  999
file created by gear template generator
  0
SECTION
  2
HEADER
  9
$ACADVER
  1
AC1006
  9
$INSBASE
  10
0.0
  20
0.0
  30
0.0
  9
$EXTMIN
  10
0.0
  20
0.0
  9
$EXTMAX
  10
10000.0
  20
10000.0
  0
ENDSEC
  0
SECTION
  2
ENTITIES
  0
LINE
  8
0
  10
0.561
  20
0
  30
0
  11
0.561
  21
8.26487
  31
0
  0
LINE
  8
0
  10
1.561
  20
0
  30
0
  11
1.561
  21
8.26487
  31
0
  0
LINE
  8
0
  10
2.561
  20
0
  30
0
  11
2.561
  21
8.26487
  31
0
  0
LINE
  8
0
  10
3.561
  20
0
  30
0
  11
3.561
  21
8.26487
  31
0
  0
LINE
  8
0
  10
4.561
  20
0
  30
0
  11
4.561
  21
8.26487
  31
0
  0
LINE
  8
0
  10
5.561
  20
0
  30
0
  11
5.561
  21
8.26487
  31
0
  0
LINE
  8
0
  10
6.561
  20
0
  30
0
  11
6.561
  21
8.26487
  31
0
  0
LINE
  8
0
  10
7.561
  20
0
  30
0
  11
7.561
  21
8.26487
  31
0
  0
LINE
  8
0
  10
0
  20
0.13244
  30
0
  11
8.26487
  21
0.13244
  31
0
  0
LINE
  8
0
  10
0
  20
1.13244
  30
0
  11
8.26487
  21
1.13244
  31
0
  0
LINE
  8
0
  10
0
  20
2.13244
  30
0
  11
8.26487
  21
2.13244
  31
0
  0
LINE
  8
0
  10
0
  20
3.13244
  30
0
  11
8.26487
  21
3.13244
  31
0
  0
LINE
  8
0
  10
0
  20
4.13244
  30
0
  11
8.26487
  21
4.13244
  31
0
  0
LINE
  8
0
  10
0
  20
5.13244
  30
0
  11
8.26487
  21
5.13244
  31
0
  0
LINE
  8
0
  10
0
  20
6.13244
  30
0
  11
8.26487
  21
6.13244
  31
0
  0
LINE
  8
0
  10
0
  20
7.13244
  30
0
  11
8.26487
  21
7.13244
  31
0
  0
LINE
  8
0
  10
0
  20
8.13244
  30
0
  11
8.26487
  21
8.13244
  31
0
  0
LINE
  8
0
  10
0.69344
  20
0
  30
0
  11
0
  21
0.69344
  31
0
  0
LINE
  8
0
  10
2.69344
  20
0
  30
0
  11
0
  21
2.69344
  31
0
  0
LINE
  8
0
  10
4.69344
  20
0
  30
0
  11
0
  21
4.69344
  31
0
  0
LINE
  8
0
  10
6.69344
  20
0
  30
0
  11
0
  21
6.69344
  31
0
  0
LINE
  8
0
  10
8.26487
  20
0.42856
  30
0
  11
0.42856
  21
8.26487
  31
0
  0
LINE
  8
0
  10
8.26487
  20
2.42856
  30
0
  11
2.42856
  21
8.26487
  31
0
  0
LINE
  8
0
  10
8.26487
  20
4.42856
  30
0
  11
4.42856
  21
8.26487
  31
0
  0
LINE
  8
0
  10
8.26487
  20
6.42856
  30
0
  11
6.42856
  21
8.26487
  31
0
  0
LINE
  8
0
  10
0
  20
7.57144
  30
0
  11
0.69344
  21
8.26487
  31
0
  0
LINE
  8
0
  10
0
  20
5.57144
  30
0
  11
2.69344
  21
8.26487
  31
0
  0
LINE
  8
0
  10
0
  20
3.57144
  30
0
  11
4.69344
  21
8.26487
  31
0
  0
LINE
  8
0
  10
0
  20
1.57144
  30
0
  11
6.69344
  21
8.26487
  31
0
  0
LINE
  8
0
  10
0.42856
  20
0
  30
0
  11
8.26487
  21
7.83631
  31
0
  0
LINE
  8
0
  10
2.42856
  20
0
  30
0
  11
8.26487
  21
5.83631
  31
0
  0
LINE
  8
0
  10
4.42856
  20
0
  30
0
  11
8.26487
  21
3.83631
  31
0
  0
LINE
  8
0
  10
6.42856
  20
0
  30
0
  11
8.26487
  21
1.83631
  31
0
  0
LINE
  8
0
  10
0.70256
  20
3.98273
  30
0
  11
0.70256
  21
3.98273
  31
0
  0
LINE
  8
0
  10
0.70256
  20
3.98273
  30
0
  11
0.69117
  21
3.98285
  31
0
  0
LINE
  8
0
  10
0.69117
  20
3.98285
  30
0
  11
0.67977
  21
3.98349
  31
0
  0
LINE
  8
0
  10
0.67977
  20
3.98349
  30
0
  11
0.65691
  21
3.98572
  31
0
  0
LINE
  8
0
  10
0.65691
  20
3.98572
  30
0
  11
0.6111
  21
3.99292
  31
0
  0
LINE
  8
0
  10
0.6111
  20
3.99292
  30
0
  11
0.5652
  21
4.00297
  31
0
  0
LINE
  8
0
  10
0.5652
  20
4.00297
  30
0
  11
0.51927
  21
4.0154
  31
0
  0
LINE
  8
0
  10
0.51927
  20
4.0154
  30
0
  11
0.47333
  21
4.02995
  31
0
  0
LINE
  8
0
  10
0.47333
  20
4.02995
  30
0
  11
0.42741
  21
4.04645
  31
0
  0
LINE
  8
0
  10
0.42741
  20
4.04645
  30
0
  11
0.42803
  21
4.2417
  31
0
  0
LINE
  8
0
  10
0.42803
  20
4.2417
  30
0
  11
0.47405
  21
4.25791
  31
0
  0
LINE
  8
0
  10
0.47405
  20
4.25791
  30
0
  11
0.52008
  21
4.27217
  31
0
  0
LINE
  8
0
  10
0.52008
  20
4.27217
  30
0
  11
0.56609
  21
4.28431
  31
0
  0
LINE
  8
0
  10
0.56609
  20
4.28431
  30
0
  11
0.61204
  21
4.29407
  31
0
  0
LINE
  8
0
  10
0.61204
  20
4.29407
  30
0
  11
0.6579
  21
4.30099
  31
0
  0
LINE
  8
0
  10
0.6579
  20
4.30099
  30
0
  11
0.68077
  21
4.30307
  31
0
  0
LINE
  8
0
  10
0.68077
  20
4.30307
  30
0
  11
0.69218
  21
4.30364
  31
0
  0
LINE
  8
0
  10
0.69218
  20
4.30364
  30
0
  11
0.70357
  21
4.30369
  31
0
  0
LINE
  8
0
  10
0.70357
  20
4.30369
  30
0
  11
0.72137
  21
4.52112
  31
0
  0
LINE
  8
0
  10
0.72137
  20
4.52112
  30
0
  11
0.71014
  21
4.52303
  31
0
  0
LINE
  8
0
  10
0.71014
  20
4.52303
  30
0
  11
0.69897
  21
4.52544
  31
0
  0
LINE
  8
0
  10
0.69897
  20
4.52544
  30
0
  11
0.67675
  21
4.53122
  31
0
  0
LINE
  8
0
  10
0.67675
  20
4.53122
  30
0
  11
0.63263
  21
4.5455
  31
0
  0
LINE
  8
0
  10
0.63263
  20
4.5455
  30
0
  11
0.58887
  21
4.5626
  31
0
  0
LINE
  8
0
  10
0.58887
  20
4.5626
  30
0
  11
0.54545
  21
4.58207
  31
0
  0
LINE
  8
0
  10
0.54545
  20
4.58207
  30
0
  11
0.50235
  21
4.60362
  31
0
  0
LINE
  8
0
  10
0.50235
  20
4.60362
  30
0
  11
0.45958
  21
4.6271
  31
0
  0
LINE
  8
0
  10
0.45958
  20
4.6271
  30
0
  11
0.49073
  21
4.81985
  31
0
  0
LINE
  8
0
  10
0.49073
  20
4.81985
  30
0
  11
0.53872
  21
4.82867
  31
0
  0
LINE
  8
0
  10
0.53872
  20
4.82867
  30
0
  11
0.58641
  21
4.83555
  31
0
  0
LINE
  8
0
  10
0.58641
  20
4.83555
  30
0
  11
0.63375
  21
4.84034
  31
0
  0
LINE
  8
0
  10
0.63375
  20
4.84034
  30
0
  11
0.68067
  21
4.84279
  31
0
  0
LINE
  8
0
  10
0.68067
  20
4.84279
  30
0
  11
0.72705
  21
4.84245
  31
0
  0
LINE
  8
0
  10
0.72705
  20
4.84245
  30
0
  11
0.74996
  21
4.84093
  31
0
  0
LINE
  8
0
  10
0.74996
  20
4.84093
  30
0
  11
0.76132
  21
4.83971
  31
0
  0
LINE
  8
0
  10
0.76132
  20
4.83971
  30
0
  11
0.77257
  21
4.83798
  31
0
  0
LINE
  8
0
  10
0.77257
  20
4.83798
  30
0
  11
0.82417
  21
5.04994
  31
0
  0
LINE
  8
0
  10
0.82417
  20
5.04994
  30
0
  11
0.81338
  21
5.05358
  31
0
  0
LINE
  8
0
  10
0.81338
  20
5.05358
  30
0
  11
0.80273
  21
5.05772
  31
0
  0
LINE
  8
0
  10
0.80273
  20
5.05772
  30
0
  11
0.78168
  21
5.0669
  31
0
  0
LINE
  8
0
  10
0.78168
  20
5.0669
  30
0
  11
0.74033
  21
5.0879
  31
0
  0
LINE
  8
0
  10
0.74033
  20
5.0879
  30
0
  11
0.69979
  21
5.11164
  31
0
  0
LINE
  8
0
  10
0.69979
  20
5.11164
  30
0
  11
0.65995
  21
5.13766
  31
0
  0
LINE
  8
0
  10
0.65995
  20
5.13766
  30
0
  11
0.62075
  21
5.16569
  31
0
  0
LINE
  8
0
  10
0.62075
  20
5.16569
  30
0
  11
0.58218
  21
5.19557
  31
0
  0
LINE
  8
0
  10
0.58218
  20
5.19557
  30
0
  11
0.6431
  21
5.38108
  31
0
  0
LINE
  8
0
  10
0.6431
  20
5.38108
  30
0
  11
0.69188
  21
5.38228
  31
0
  0
LINE
  8
0
  10
0.69188
  20
5.38228
  30
0
  11
0.74006
  21
5.38161
  31
0
  0
LINE
  8
0
  10
0.74006
  20
5.38161
  30
0
  11
0.78757
  21
5.37894
  31
0
  0
LINE
  8
0
  10
0.78757
  20
5.37894
  30
0
  11
0.83429
  21
5.37402
  31
0
  0
LINE
  8
0
  10
0.83429
  20
5.37402
  30
0
  11
0.88004
  21
5.36643
  31
0
  0
LINE
  8
0
  10
0.88004
  20
5.36643
  30
0
  11
0.90244
  21
5.36134
  31
0
  0
LINE
  8
0
  10
0.90244
  20
5.36134
  30
0
  11
0.91347
  21
5.35836
  31
0
  0
LINE
  8
0
  10
0.91347
  20
5.35836
  30
0
  11
0.92431
  21
5.35489
  31
0
  0
LINE
  8
0
  10
0.92431
  20
5.35489
  30
0
  11
1.00843
  21
5.55618
  31
0
  0
LINE
  8
0
  10
1.00843
  20
5.55618
  30
0
  11
0.99834
  21
5.56146
  31
0
  0
LINE
  8
0
  10
0.99834
  20
5.56146
  30
0
  11
0.98847
  21
5.56721
  31
0
  0
LINE
  8
0
  10
0.98847
  20
5.56721
  30
0
  11
0.96911
  21
5.57957
  31
0
  0
LINE
  8
0
  10
0.96911
  20
5.57957
  30
0
  11
0.93156
  21
5.60678
  31
0
  0
LINE
  8
0
  10
0.93156
  20
5.60678
  30
0
  11
0.89523
  21
5.63657
  31
0
  0
LINE
  8
0
  10
0.89523
  20
5.63657
  30
0
  11
0.85995
  21
5.6685
  31
0
  0
LINE
  8
0
  10
0.85995
  20
5.6685
  30
0
  11
0.82562
  21
5.70232
  31
0
  0
LINE
  8
0
  10
0.82562
  20
5.70232
  30
0
  11
0.7922
  21
5.73787
  31
0
  0
LINE
  8
0
  10
0.7922
  20
5.73787
  30
0
  11
0.88139
  21
5.91156
  31
0
  0
LINE
  8
0
  10
0.88139
  20
5.91156
  30
0
  11
0.92975
  21
5.90511
  31
0
  0
LINE
  8
0
  10
0.92975
  20
5.90511
  30
0
  11
0.97724
  21
5.89692
  31
0
  0
LINE
  8
0
  10
0.97724
  20
5.89692
  30
0
  11
1.02375
  21
5.88685
  31
0
  0
LINE
  8
0
  10
1.02375
  20
5.88685
  30
0
  11
1.06913
  21
5.87468
  31
0
  0
LINE
  8
0
  10
1.06913
  20
5.87468
  30
0
  11
1.11312
  21
5.86002
  31
0
  0
LINE
  8
0
  10
1.11312
  20
5.86002
  30
0
  11
1.13445
  21
5.8515
  31
0
  0
LINE
  8
0
  10
1.13445
  20
5.8515
  30
0
  11
1.14487
  21
5.84682
  31
0
  0
LINE
  8
0
  10
1.14487
  20
5.84682
  30
0
  11
1.15504
  21
5.8417
  31
0
  0
LINE
  8
0
  10
1.15504
  20
5.8417
  30
0
  11
1.26961
  21
6.02735
  31
0
  0
LINE
  8
0
  10
1.26961
  20
6.02735
  30
0
  11
1.26047
  21
6.03414
  31
0
  0
LINE
  8
0
  10
1.26047
  20
6.03414
  30
0
  11
1.25162
  21
6.04137
  31
0
  0
LINE
  8
0
  10
1.25162
  20
6.04137
  30
0
  11
1.23444
  21
6.0566
  31
0
  0
LINE
  8
0
  10
1.23444
  20
6.0566
  30
0
  11
1.20161
  21
6.08936
  31
0
  0
LINE
  8
0
  10
1.20161
  20
6.08936
  30
0
  11
1.17039
  21
6.12446
  31
0
  0
LINE
  8
0
  10
1.17039
  20
6.12446
  30
0
  11
1.14053
  21
6.16152
  31
0
  0
LINE
  8
0
  10
1.14053
  20
6.16152
  30
0
  11
1.11192
  21
6.20029
  31
0
  0
LINE
  8
0
  10
1.11192
  20
6.20029
  30
0
  11
1.08447
  21
6.24063
  31
0
  0
LINE
  8
0
  10
1.08447
  20
6.24063
  30
0
  11
1.19973
  21
6.39823
  31
0
  0
LINE
  8
0
  10
1.19973
  20
6.39823
  30
0
  11
1.24649
  21
6.3843
  31
0
  0
LINE
  8
0
  10
1.24649
  20
6.3843
  30
0
  11
1.29211
  21
6.36878
  31
0
  0
LINE
  8
0
  10
1.29211
  20
6.36878
  30
0
  11
1.33647
  21
6.35155
  31
0
  0
LINE
  8
0
  10
1.33647
  20
6.35155
  30
0
  11
1.37939
  21
6.33244
  31
0
  0
LINE
  8
0
  10
1.37939
  20
6.33244
  30
0
  11
1.42055
  21
6.31108
  31
0
  0
LINE
  8
0
  10
1.42055
  20
6.31108
  30
0
  11
1.44028
  21
6.29932
  31
0
  0
LINE
  8
0
  10
1.44028
  20
6.29932
  30
0
  11
1.44984
  21
6.29307
  31
0
  0
LINE
  8
0
  10
1.44984
  20
6.29307
  30
0
  11
1.45909
  21
6.28642
  31
0
  0
LINE
  8
0
  10
1.45909
  20
6.28642
  30
0
  11
1.60129
  21
6.45186
  31
0
  0
LINE
  8
0
  10
1.60129
  20
6.45186
  30
0
  11
1.59333
  21
6.46001
  31
0
  0
LINE
  8
0
  10
1.59333
  20
6.46001
  30
0
  11
1.58571
  21
6.46852
  31
0
  0
LINE
  8
0
  10
1.58571
  20
6.46852
  30
0
  11
1.57112
  21
6.48626
  31
0
  0
LINE
  8
0
  10
1.57112
  20
6.48626
  30
0
  11
1.54382
  21
6.52375
  31
0
  0
LINE
  8
0
  10
1.54382
  20
6.52375
  30
0
  11
1.51848
  21
6.56331
  31
0
  0
LINE
  8
0
  10
1.51848
  20
6.56331
  30
0
  11
1.49479
  21
6.60457
  31
0
  0
LINE
  8
0
  10
1.49479
  20
6.60457
  30
0
  11
1.47259
  21
6.64735
  31
0
  0
LINE
  8
0
  10
1.47259
  20
6.64735
  30
0
  11
1.45179
  21
6.69148
  31
0
  0
LINE
  8
0
  10
1.45179
  20
6.69148
  30
0
  11
1.59029
  21
6.82911
  31
0
  0
LINE
  8
0
  10
1.59029
  20
6.82911
  30
0
  11
1.63429
  21
6.80803
  31
0
  0
LINE
  8
0
  10
1.63429
  20
6.80803
  30
0
  11
1.67692
  21
6.78557
  31
0
  0
LINE
  8
0
  10
1.67692
  20
6.78557
  30
0
  11
1.71804
  21
6.76162
  31
0
  0
LINE
  8
0
  10
1.71804
  20
6.76162
  30
0
  11
1.75744
  21
6.73602
  31
0
  0
LINE
  8
0
  10
1.75744
  20
6.73602
  30
0
  11
1.79475
  21
6.70849
  31
0
  0
LINE
  8
0
  10
1.79475
  20
6.70849
  30
0
  11
1.8124
  21
6.69379
  31
0
  0
LINE
  8
0
  10
1.8124
  20
6.69379
  30
0
  11
1.82087
  21
6.68612
  31
0
  0
LINE
  8
0
  10
1.82087
  20
6.68612
  30
0
  11
1.82896
  21
6.67811
  31
0
  0
LINE
  8
0
  10
1.82896
  20
6.67811
  30
0
  11
1.99529
  21
6.81927
  31
0
  0
LINE
  8
0
  10
1.99529
  20
6.81927
  30
0
  11
1.9887
  21
6.82855
  31
0
  0
LINE
  8
0
  10
1.9887
  20
6.82855
  30
0
  11
1.98251
  21
6.83816
  31
0
  0
LINE
  8
0
  10
1.98251
  20
6.83816
  30
0
  11
1.97088
  21
6.85796
  31
0
  0
LINE
  8
0
  10
1.97088
  20
6.85796
  30
0
  11
1.94978
  21
6.89926
  31
0
  0
LINE
  8
0
  10
1.94978
  20
6.89926
  30
0
  11
1.93093
  21
6.94229
  31
0
  0
LINE
  8
0
  10
1.93093
  20
6.94229
  30
0
  11
1.91399
  21
6.98676
  31
0
  0
LINE
  8
0
  10
1.91399
  20
6.98676
  30
0
  11
1.89875
  21
7.03248
  31
0
  0
LINE
  8
0
  10
1.89875
  20
7.03248
  30
0
  11
1.88511
  21
7.07932
  31
0
  0
LINE
  8
0
  10
1.88511
  20
7.07932
  30
0
  11
2.04344
  21
7.19359
  31
0
  0
LINE
  8
0
  10
2.04344
  20
7.19359
  30
0
  11
2.0836
  21
7.16589
  31
0
  0
LINE
  8
0
  10
2.0836
  20
7.16589
  30
0
  11
2.12219
  21
7.13703
  31
0
  0
LINE
  8
0
  10
2.12219
  20
7.13703
  30
0
  11
2.15906
  21
7.10694
  31
0
  0
LINE
  8
0
  10
2.15906
  20
7.10694
  30
0
  11
2.19397
  21
7.0755
  31
0
  0
LINE
  8
0
  10
2.19397
  20
7.0755
  30
0
  11
2.22652
  21
7.04247
  31
0
  0
LINE
  8
0
  10
2.22652
  20
7.04247
  30
0
  11
2.24165
  21
7.02519
  31
0
  0
LINE
  8
0
  10
2.24165
  20
7.02519
  30
0
  11
2.24881
  21
7.01629
  31
0
  0
LINE
  8
0
  10
2.24881
  20
7.01629
  30
0
  11
2.25555
  21
7.00711
  31
0
  0
LINE
  8
0
  10
2.25555
  20
7.00711
  30
0
  11
2.44191
  21
7.12051
  31
0
  0
LINE
  8
0
  10
2.44191
  20
7.12051
  30
0
  11
2.43686
  21
7.13071
  31
0
  0
LINE
  8
0
  10
2.43686
  20
7.13071
  30
0
  11
2.43225
  21
7.14117
  31
0
  0
LINE
  8
0
  10
2.43225
  20
7.14117
  30
0
  11
2.42386
  21
7.16255
  31
0
  0
LINE
  8
0
  10
2.42386
  20
7.16255
  30
0
  11
2.40947
  21
7.20663
  31
0
  0
LINE
  8
0
  10
2.40947
  20
7.20663
  30
0
  11
2.39759
  21
7.25209
  31
0
  0
LINE
  8
0
  10
2.39759
  20
7.25209
  30
0
  11
2.38781
  21
7.29866
  31
0
  0
LINE
  8
0
  10
2.38781
  20
7.29866
  30
0
  11
2.37992
  21
7.3462
  31
0
  0
LINE
  8
0
  10
2.37992
  20
7.3462
  30
0
  11
2.37378
  21
7.3946
  31
0
  0
LINE
  8
0
  10
2.37378
  20
7.3946
  30
0
  11
2.54803
  21
7.4827
  31
0
  0
LINE
  8
0
  10
2.54803
  20
7.4827
  30
0
  11
2.58336
  21
7.44905
  31
0
  0
LINE
  8
0
  10
2.58336
  20
7.44905
  30
0
  11
2.61697
  21
7.41451
  31
0
  0
LINE
  8
0
  10
2.61697
  20
7.41451
  30
0
  11
2.64867
  21
7.37903
  31
0
  0
LINE
  8
0
  10
2.64867
  20
7.37903
  30
0
  11
2.67823
  21
7.34251
  31
0
  0
LINE
  8
0
  10
2.67823
  20
7.34251
  30
0
  11
2.70521
  21
7.30479
  31
0
  0
LINE
  8
0
  10
2.70521
  20
7.30479
  30
0
  11
2.71745
  21
7.28536
  31
0
  0
LINE
  8
0
  10
2.71745
  20
7.28536
  30
0
  11
2.72314
  21
7.27545
  31
0
  0
LINE
  8
0
  10
2.72314
  20
7.27545
  30
0
  11
2.72835
  21
7.26533
  31
0
  0
LINE
  8
0
  10
2.72835
  20
7.26533
  30
0
  11
2.93016
  21
7.34818
  31
0
  0
LINE
  8
0
  10
2.93016
  20
7.34818
  30
0
  11
2.92677
  21
7.35905
  31
0
  0
LINE
  8
0
  10
2.92677
  20
7.35905
  30
0
  11
2.92385
  21
7.37009
  31
0
  0
LINE
  8
0
  10
2.92385
  20
7.37009
  30
0
  11
2.9189
  21
7.39252
  31
0
  0
LINE
  8
0
  10
2.9189
  20
7.39252
  30
0
  11
2.9116
  21
7.43832
  31
0
  0
LINE
  8
0
  10
2.9116
  20
7.43832
  30
0
  11
2.90697
  21
7.48507
  31
0
  0
LINE
  8
0
  10
2.90697
  20
7.48507
  30
0
  11
2.9046
  21
7.5326
  31
0
  0
LINE
  8
0
  10
2.9046
  20
7.5326
  30
0
  11
2.90424
  21
7.58078
  31
0
  0
LINE
  8
0
  10
2.90424
  20
7.58078
  30
0
  11
2.90574
  21
7.62955
  31
0
  0
LINE
  8
0
  10
2.90574
  20
7.62955
  30
0
  11
3.09163
  21
7.6893
  31
0
  0
LINE
  8
0
  10
3.09163
  20
7.6893
  30
0
  11
3.12127
  21
7.65055
  31
0
  0
LINE
  8
0
  10
3.12127
  20
7.65055
  30
0
  11
3.14905
  21
7.61118
  31
0
  0
LINE
  8
0
  10
3.14905
  20
7.61118
  30
0
  11
3.17482
  21
7.57117
  31
0
  0
LINE
  8
0
  10
3.17482
  20
7.57117
  30
0
  11
3.1983
  21
7.53048
  31
0
  0
LINE
  8
0
  10
3.1983
  20
7.53048
  30
0
  11
3.21905
  21
7.489
  31
0
  0
LINE
  8
0
  10
3.21905
  20
7.489
  30
0
  11
3.2281
  21
7.4679
  31
0
  0
LINE
  8
0
  10
3.2281
  20
7.4679
  30
0
  11
3.23216
  21
7.45722
  31
0
  0
LINE
  8
0
  10
3.23216
  20
7.45722
  30
0
  11
3.23573
  21
7.44641
  31
0
  0
LINE
  8
0
  10
3.23573
  20
7.44641
  30
0
  11
3.44802
  21
7.49667
  31
0
  0
LINE
  8
0
  10
3.44802
  20
7.49667
  30
0
  11
3.44636
  21
7.50793
  31
0
  0
LINE
  8
0
  10
3.44636
  20
7.50793
  30
0
  11
3.44521
  21
7.5193
  31
0
  0
LINE
  8
0
  10
3.44521
  20
7.5193
  30
0
  11
3.44383
  21
7.54222
  31
0
  0
LINE
  8
0
  10
3.44383
  20
7.54222
  30
0
  11
3.44378
  21
7.5886
  31
0
  0
LINE
  8
0
  10
3.44378
  20
7.5886
  30
0
  11
3.44653
  21
7.6355
  31
0
  0
LINE
  8
0
  10
3.44653
  20
7.6355
  30
0
  11
3.45162
  21
7.68281
  31
0
  0
LINE
  8
0
  10
3.45162
  20
7.68281
  30
0
  11
3.4588
  21
7.73046
  31
0
  0
LINE
  8
0
  10
3.4588
  20
7.73046
  30
0
  11
3.46792
  21
7.77839
  31
0
  0
LINE
  8
0
  10
3.46792
  20
7.77839
  30
0
  11
3.66086
  21
7.80833
  31
0
  0
LINE
  8
0
  10
3.66086
  20
7.80833
  30
0
  11
3.68407
  21
7.76541
  31
0
  0
LINE
  8
0
  10
3.68407
  20
7.76541
  30
0
  11
3.70535
  21
7.72218
  31
0
  0
LINE
  8
0
  10
3.70535
  20
7.72218
  30
0
  11
3.72454
  21
7.67864
  31
0
  0
LINE
  8
0
  10
3.72454
  20
7.67864
  30
0
  11
3.74137
  21
7.63477
  31
0
  0
LINE
  8
0
  10
3.74137
  20
7.63477
  30
0
  11
3.75538
  21
7.59056
  31
0
  0
LINE
  8
0
  10
3.75538
  20
7.59056
  30
0
  11
3.76101
  21
7.5683
  31
0
  0
LINE
  8
0
  10
3.76101
  20
7.5683
  30
0
  11
3.76336
  21
7.55712
  31
0
  0
LINE
  8
0
  10
3.76336
  20
7.55712
  30
0
  11
3.76519
  21
7.54588
  31
0
  0
LINE
  8
0
  10
3.76519
  20
7.54588
  30
0
  11
3.98273
  21
7.56231
  31
0
  0
LINE
  8
0
  10
3.98273
  20
7.56231
  30
0
  11
3.98285
  21
7.5737
  31
0
  0
LINE
  8
0
  10
3.98285
  20
7.5737
  30
0
  11
3.98349
  21
7.58511
  31
0
  0
LINE
  8
0
  10
3.98349
  20
7.58511
  30
0
  11
3.98572
  21
7.60796
  31
0
  0
LINE
  8
0
  10
3.98572
  20
7.60796
  30
0
  11
3.99292
  21
7.65378
  31
0
  0
LINE
  8
0
  10
3.99292
  20
7.65378
  30
0
  11
4.00297
  21
7.69967
  31
0
  0
LINE
  8
0
  10
4.00297
  20
7.69967
  30
0
  11
4.0154
  21
7.7456
  31
0
  0
LINE
  8
0
  10
4.0154
  20
7.7456
  30
0
  11
4.02995
  21
7.79154
  31
0
  0
LINE
  8
0
  10
4.02995
  20
7.79154
  30
0
  11
4.04645
  21
7.83746
  31
0
  0
LINE
  8
0
  10
4.04645
  20
7.83746
  30
0
  11
4.2417
  21
7.83685
  31
0
  0
LINE
  8
0
  10
4.2417
  20
7.83685
  30
0
  11
4.25791
  21
7.79083
  31
0
  0
LINE
  8
0
  10
4.25791
  20
7.79083
  30
0
  11
4.27217
  21
7.7448
  31
0
  0
LINE
  8
0
  10
4.27217
  20
7.7448
  30
0
  11
4.28431
  21
7.69879
  31
0
  0
LINE
  8
0
  10
4.28431
  20
7.69879
  30
0
  11
4.29407
  21
7.65283
  31
0
  0
LINE
  8
0
  10
4.29407
  20
7.65283
  30
0
  11
4.30099
  21
7.60697
  31
0
  0
LINE
  8
0
  10
4.30099
  20
7.60697
  30
0
  11
4.30307
  21
7.5841
  31
0
  0
LINE
  8
0
  10
4.30307
  20
7.5841
  30
0
  11
4.30364
  21
7.57269
  31
0
  0
LINE
  8
0
  10
4.30364
  20
7.57269
  30
0
  11
4.30369
  21
7.5613
  31
0
  0
LINE
  8
0
  10
4.30369
  20
7.5613
  30
0
  11
4.52112
  21
7.54351
  31
0
  0
LINE
  8
0
  10
4.52112
  20
7.54351
  30
0
  11
4.52303
  21
7.55473
  31
0
  0
LINE
  8
0
  10
4.52303
  20
7.55473
  30
0
  11
4.52544
  21
7.5659
  31
0
  0
LINE
  8
0
  10
4.52544
  20
7.5659
  30
0
  11
4.53122
  21
7.58813
  31
0
  0
LINE
  8
0
  10
4.53122
  20
7.58813
  30
0
  11
4.5455
  21
7.63225
  31
0
  0
LINE
  8
0
  10
4.5455
  20
7.63225
  30
0
  11
4.5626
  21
7.676
  31
0
  0
LINE
  8
0
  10
4.5626
  20
7.676
  30
0
  11
4.58207
  21
7.71943
  31
0
  0
LINE
  8
0
  10
4.58207
  20
7.71943
  30
0
  11
4.60362
  21
7.76253
  31
0
  0
LINE
  8
0
  10
4.60362
  20
7.76253
  30
0
  11
4.6271
  21
7.8053
  31
0
  0
LINE
  8
0
  10
4.6271
  20
7.8053
  30
0
  11
4.81985
  21
7.77415
  31
0
  0
LINE
  8
0
  10
4.81985
  20
7.77415
  30
0
  11
4.82867
  21
7.72616
  31
0
  0
LINE
  8
0
  10
4.82867
  20
7.72616
  30
0
  11
4.83555
  21
7.67846
  31
0
  0
LINE
  8
0
  10
4.83555
  20
7.67846
  30
0
  11
4.84034
  21
7.63112
  31
0
  0
LINE
  8
0
  10
4.84034
  20
7.63112
  30
0
  11
4.84279
  21
7.5842
  31
0
  0
LINE
  8
0
  10
4.84279
  20
7.5842
  30
0
  11
4.84245
  21
7.53783
  31
0
  0
LINE
  8
0
  10
4.84245
  20
7.53783
  30
0
  11
4.84093
  21
7.51491
  31
0
  0
LINE
  8
0
  10
4.84093
  20
7.51491
  30
0
  11
4.83971
  21
7.50355
  31
0
  0
LINE
  8
0
  10
4.83971
  20
7.50355
  30
0
  11
4.83798
  21
7.4923
  31
0
  0
LINE
  8
0
  10
4.83798
  20
7.4923
  30
0
  11
5.04994
  21
7.44071
  31
0
  0
LINE
  8
0
  10
5.04994
  20
7.44071
  30
0
  11
5.05358
  21
7.4515
  31
0
  0
LINE
  8
0
  10
5.05358
  20
7.4515
  30
0
  11
5.05772
  21
7.46215
  31
0
  0
LINE
  8
0
  10
5.05772
  20
7.46215
  30
0
  11
5.0669
  21
7.4832
  31
0
  0
LINE
  8
0
  10
5.0669
  20
7.4832
  30
0
  11
5.0879
  21
7.52454
  31
0
  0
LINE
  8
0
  10
5.0879
  20
7.52454
  30
0
  11
5.11164
  21
7.56508
  31
0
  0
LINE
  8
0
  10
5.11164
  20
7.56508
  30
0
  11
5.13766
  21
7.60493
  31
0
  0
LINE
  8
0
  10
5.13766
  20
7.60493
  30
0
  11
5.16569
  21
7.64412
  31
0
  0
LINE
  8
0
  10
5.16569
  20
7.64412
  30
0
  11
5.19557
  21
7.68269
  31
0
  0
LINE
  8
0
  10
5.19557
  20
7.68269
  30
0
  11
5.38108
  21
7.62178
  31
0
  0
LINE
  8
0
  10
5.38108
  20
7.62178
  30
0
  11
5.38228
  21
7.573
  31
0
  0
LINE
  8
0
  10
5.38228
  20
7.573
  30
0
  11
5.38161
  21
7.52481
  31
0
  0
LINE
  8
0
  10
5.38161
  20
7.52481
  30
0
  11
5.37894
  21
7.4773
  31
0
  0
LINE
  8
0
  10
5.37894
  20
7.4773
  30
0
  11
5.37402
  21
7.43058
  31
0
  0
LINE
  8
0
  10
5.37402
  20
7.43058
  30
0
  11
5.36643
  21
7.38483
  31
0
  0
LINE
  8
0
  10
5.36643
  20
7.38483
  30
0
  11
5.36134
  21
7.36244
  31
0
  0
LINE
  8
0
  10
5.36134
  20
7.36244
  30
0
  11
5.35836
  21
7.35141
  31
0
  0
LINE
  8
0
  10
5.35836
  20
7.35141
  30
0
  11
5.35489
  21
7.34056
  31
0
  0
LINE
  8
0
  10
5.35489
  20
7.34056
  30
0
  11
5.55618
  21
7.25645
  31
0
  0
LINE
  8
0
  10
5.55618
  20
7.25645
  30
0
  11
5.56146
  21
7.26653
  31
0
  0
LINE
  8
0
  10
5.56146
  20
7.26653
  30
0
  11
5.56721
  21
7.27641
  31
0
  0
LINE
  8
0
  10
5.56721
  20
7.27641
  30
0
  11
5.57957
  21
7.29576
  31
0
  0
LINE
  8
0
  10
5.57957
  20
7.29576
  30
0
  11
5.60678
  21
7.33331
  31
0
  0
LINE
  8
0
  10
5.60678
  20
7.33331
  30
0
  11
5.63657
  21
7.36964
  31
0
  0
LINE
  8
0
  10
5.63657
  20
7.36964
  30
0
  11
5.6685
  21
7.40492
  31
0
  0
LINE
  8
0
  10
5.6685
  20
7.40492
  30
0
  11
5.70232
  21
7.43925
  31
0
  0
LINE
  8
0
  10
5.70232
  20
7.43925
  30
0
  11
5.73787
  21
7.47267
  31
0
  0
LINE
  8
0
  10
5.73787
  20
7.47267
  30
0
  11
5.91156
  21
7.38349
  31
0
  0
LINE
  8
0
  10
5.91156
  20
7.38349
  30
0
  11
5.90511
  21
7.33512
  31
0
  0
LINE
  8
0
  10
5.90511
  20
7.33512
  30
0
  11
5.89692
  21
7.28763
  31
0
  0
LINE
  8
0
  10
5.89692
  20
7.28763
  30
0
  11
5.88685
  21
7.24113
  31
0
  0
LINE
  8
0
  10
5.88685
  20
7.24113
  30
0
  11
5.87468
  21
7.19575
  31
0
  0
LINE
  8
0
  10
5.87468
  20
7.19575
  30
0
  11
5.86002
  21
7.15175
  31
0
  0
LINE
  8
0
  10
5.86002
  20
7.15175
  30
0
  11
5.8515
  21
7.13043
  31
0
  0
LINE
  8
0
  10
5.8515
  20
7.13043
  30
0
  11
5.84682
  21
7.12
  31
0
  0
LINE
  8
0
  10
5.84682
  20
7.12
  30
0
  11
5.8417
  21
7.10983
  31
0
  0
LINE
  8
0
  10
5.8417
  20
7.10983
  30
0
  11
6.02735
  21
6.99526
  31
0
  0
LINE
  8
0
  10
6.02735
  20
6.99526
  30
0
  11
6.03414
  21
7.0044
  31
0
  0
LINE
  8
0
  10
6.03414
  20
7.0044
  30
0
  11
6.04137
  21
7.01325
  31
0
  0
LINE
  8
0
  10
6.04137
  20
7.01325
  30
0
  11
6.0566
  21
7.03043
  31
0
  0
LINE
  8
0
  10
6.0566
  20
7.03043
  30
0
  11
6.08936
  21
7.06326
  31
0
  0
LINE
  8
0
  10
6.08936
  20
7.06326
  30
0
  11
6.12446
  21
7.09449
  31
0
  0
LINE
  8
0
  10
6.12446
  20
7.09449
  30
0
  11
6.16152
  21
7.12434
  31
0
  0
LINE
  8
0
  10
6.16152
  20
7.12434
  30
0
  11
6.20029
  21
7.15296
  31
0
  0
LINE
  8
0
  10
6.20029
  20
7.15296
  30
0
  11
6.24063
  21
7.18041
  31
0
  0
LINE
  8
0
  10
6.24063
  20
7.18041
  30
0
  11
6.39823
  21
7.06514
  31
0
  0
LINE
  8
0
  10
6.39823
  20
7.06514
  30
0
  11
6.3843
  21
7.01838
  31
0
  0
LINE
  8
0
  10
6.3843
  20
7.01838
  30
0
  11
6.36878
  21
6.97276
  31
0
  0
LINE
  8
0
  10
6.36878
  20
6.97276
  30
0
  11
6.35155
  21
6.9284
  31
0
  0
LINE
  8
0
  10
6.35155
  20
6.9284
  30
0
  11
6.33244
  21
6.88549
  31
0
  0
LINE
  8
0
  10
6.33244
  20
6.88549
  30
0
  11
6.31108
  21
6.84432
  31
0
  0
LINE
  8
0
  10
6.31108
  20
6.84432
  30
0
  11
6.29932
  21
6.8246
  31
0
  0
LINE
  8
0
  10
6.29932
  20
6.8246
  30
0
  11
6.29307
  21
6.81503
  31
0
  0
LINE
  8
0
  10
6.29307
  20
6.81503
  30
0
  11
6.28642
  21
6.80579
  31
0
  0
LINE
  8
0
  10
6.28642
  20
6.80579
  30
0
  11
6.45186
  21
6.66359
  31
0
  0
LINE
  8
0
  10
6.45186
  20
6.66359
  30
0
  11
6.46001
  21
6.67155
  31
0
  0
LINE
  8
0
  10
6.46001
  20
6.67155
  30
0
  11
6.46852
  21
6.67916
  31
0
  0
LINE
  8
0
  10
6.46852
  20
6.67916
  30
0
  11
6.48626
  21
6.69375
  31
0
  0
LINE
  8
0
  10
6.48626
  20
6.69375
  30
0
  11
6.52375
  21
6.72105
  31
0
  0
LINE
  8
0
  10
6.52375
  20
6.72105
  30
0
  11
6.56331
  21
6.7464
  31
0
  0
LINE
  8
0
  10
6.56331
  20
6.7464
  30
0
  11
6.60457
  21
6.77009
  31
0
  0
LINE
  8
0
  10
6.60457
  20
6.77009
  30
0
  11
6.64735
  21
6.79228
  31
0
  0
LINE
  8
0
  10
6.64735
  20
6.79228
  30
0
  11
6.69148
  21
6.81309
  31
0
  0
LINE
  8
0
  10
6.69148
  20
6.81309
  30
0
  11
6.82911
  21
6.67459
  31
0
  0
LINE
  8
0
  10
6.82911
  20
6.67459
  30
0
  11
6.80803
  21
6.63058
  31
0
  0
LINE
  8
0
  10
6.80803
  20
6.63058
  30
0
  11
6.78557
  21
6.58795
  31
0
  0
LINE
  8
0
  10
6.78557
  20
6.58795
  30
0
  11
6.76162
  21
6.54683
  31
0
  0
LINE
  8
0
  10
6.76162
  20
6.54683
  30
0
  11
6.73602
  21
6.50744
  31
0
  0
LINE
  8
0
  10
6.73602
  20
6.50744
  30
0
  11
6.70849
  21
6.47012
  31
0
  0
LINE
  8
0
  10
6.70849
  20
6.47012
  30
0
  11
6.69379
  21
6.45248
  31
0
  0
LINE
  8
0
  10
6.69379
  20
6.45248
  30
0
  11
6.68612
  21
6.44401
  31
0
  0
LINE
  8
0
  10
6.68612
  20
6.44401
  30
0
  11
6.67811
  21
6.43592
  31
0
  0
LINE
  8
0
  10
6.67811
  20
6.43592
  30
0
  11
6.81927
  21
6.26958
  31
0
  0
LINE
  8
0
  10
6.81927
  20
6.26958
  30
0
  11
6.82855
  21
6.27618
  31
0
  0
LINE
  8
0
  10
6.82855
  20
6.27618
  30
0
  11
6.83816
  21
6.28236
  31
0
  0
LINE
  8
0
  10
6.83816
  20
6.28236
  30
0
  11
6.85796
  21
6.294
  31
0
  0
LINE
  8
0
  10
6.85796
  20
6.294
  30
0
  11
6.89926
  21
6.3151
  31
0
  0
LINE
  8
0
  10
6.89926
  20
6.3151
  30
0
  11
6.94229
  21
6.33394
  31
0
  0
LINE
  8
0
  10
6.94229
  20
6.33394
  30
0
  11
6.98676
  21
6.35089
  31
0
  0
LINE
  8
0
  10
6.98676
  20
6.35089
  30
0
  11
7.03248
  21
6.36612
  31
0
  0
LINE
  8
0
  10
7.03248
  20
6.36612
  30
0
  11
7.07932
  21
6.37976
  31
0
  0
LINE
  8
0
  10
7.07932
  20
6.37976
  30
0
  11
7.19359
  21
6.22144
  31
0
  0
LINE
  8
0
  10
7.19359
  20
6.22144
  30
0
  11
7.16589
  21
6.18127
  31
0
  0
LINE
  8
0
  10
7.16589
  20
6.18127
  30
0
  11
7.13703
  21
6.14268
  31
0
  0
LINE
  8
0
  10
7.13703
  20
6.14268
  30
0
  11
7.10694
  21
6.10581
  31
0
  0
LINE
  8
0
  10
7.10694
  20
6.10581
  30
0
  11
7.0755
  21
6.07091
  31
0
  0
LINE
  8
0
  10
7.0755
  20
6.07091
  30
0
  11
7.04247
  21
6.03836
  31
0
  0
LINE
  8
0
  10
7.04247
  20
6.03836
  30
0
  11
7.02519
  21
6.02323
  31
0
  0
LINE
  8
0
  10
7.02519
  20
6.02323
  30
0
  11
7.01629
  21
6.01606
  31
0
  0
LINE
  8
0
  10
7.01629
  20
6.01606
  30
0
  11
7.00711
  21
6.00932
  31
0
  0
LINE
  8
0
  10
7.00711
  20
6.00932
  30
0
  11
7.12051
  21
5.82296
  31
0
  0
LINE
  8
0
  10
7.12051
  20
5.82296
  30
0
  11
7.13071
  21
5.82802
  31
0
  0
LINE
  8
0
  10
7.13071
  20
5.82802
  30
0
  11
7.14117
  21
5.83263
  31
0
  0
LINE
  8
0
  10
7.14117
  20
5.83263
  30
0
  11
7.16255
  21
5.84102
  31
0
  0
LINE
  8
0
  10
7.16255
  20
5.84102
  30
0
  11
7.20663
  21
5.8554
  31
0
  0
LINE
  8
0
  10
7.20663
  20
5.8554
  30
0
  11
7.25209
  21
5.86728
  31
0
  0
LINE
  8
0
  10
7.25209
  20
5.86728
  30
0
  11
7.29866
  21
5.87706
  31
0
  0
LINE
  8
0
  10
7.29866
  20
5.87706
  30
0
  11
7.3462
  21
5.88495
  31
0
  0
LINE
  8
0
  10
7.3462
  20
5.88495
  30
0
  11
7.3946
  21
5.8911
  31
0
  0
LINE
  8
0
  10
7.3946
  20
5.8911
  30
0
  11
7.4827
  21
5.71685
  31
0
  0
LINE
  8
0
  10
7.4827
  20
5.71685
  30
0
  11
7.44905
  21
5.68151
  31
0
  0
LINE
  8
0
  10
7.44905
  20
5.68151
  30
0
  11
7.41451
  21
5.64791
  31
0
  0
LINE
  8
0
  10
7.41451
  20
5.64791
  30
0
  11
7.37903
  21
5.6162
  31
0
  0
LINE
  8
0
  10
7.37903
  20
5.6162
  30
0
  11
7.34251
  21
5.58664
  31
0
  0
LINE
  8
0
  10
7.34251
  20
5.58664
  30
0
  11
7.30479
  21
5.55966
  31
0
  0
LINE
  8
0
  10
7.30479
  20
5.55966
  30
0
  11
7.28536
  21
5.54742
  31
0
  0
LINE
  8
0
  10
7.28536
  20
5.54742
  30
0
  11
7.27545
  21
5.54174
  31
0
  0
LINE
  8
0
  10
7.27545
  20
5.54174
  30
0
  11
7.26533
  21
5.53652
  31
0
  0
LINE
  8
0
  10
7.26533
  20
5.53652
  30
0
  11
7.34818
  21
5.33471
  31
0
  0
LINE
  8
0
  10
7.34818
  20
5.33471
  30
0
  11
7.35905
  21
5.33811
  31
0
  0
LINE
  8
0
  10
7.35905
  20
5.33811
  30
0
  11
7.37009
  21
5.34103
  31
0
  0
LINE
  8
0
  10
7.37009
  20
5.34103
  30
0
  11
7.39252
  21
5.34597
  31
0
  0
LINE
  8
0
  10
7.39252
  20
5.34597
  30
0
  11
7.43832
  21
5.35328
  31
0
  0
LINE
  8
0
  10
7.43832
  20
5.35328
  30
0
  11
7.48507
  21
5.3579
  31
0
  0
LINE
  8
0
  10
7.48507
  20
5.3579
  30
0
  11
7.5326
  21
5.36027
  31
0
  0
LINE
  8
0
  10
7.5326
  20
5.36027
  30
0
  11
7.58078
  21
5.36063
  31
0
  0
LINE
  8
0
  10
7.58078
  20
5.36063
  30
0
  11
7.62955
  21
5.35913
  31
0
  0
LINE
  8
0
  10
7.62955
  20
5.35913
  30
0
  11
7.6893
  21
5.17325
  31
0
  0
LINE
  8
0
  10
7.6893
  20
5.17325
  30
0
  11
7.65055
  21
5.14361
  31
0
  0
LINE
  8
0
  10
7.65055
  20
5.14361
  30
0
  11
7.61118
  21
5.11582
  31
0
  0
LINE
  8
0
  10
7.61118
  20
5.11582
  30
0
  11
7.57117
  21
5.09006
  31
0
  0
LINE
  8
0
  10
7.57117
  20
5.09006
  30
0
  11
7.53048
  21
5.06657
  31
0
  0
LINE
  8
0
  10
7.53048
  20
5.06657
  30
0
  11
7.489
  21
5.04583
  31
0
  0
LINE
  8
0
  10
7.489
  20
5.04583
  30
0
  11
7.4679
  21
5.03678
  31
0
  0
LINE
  8
0
  10
7.4679
  20
5.03678
  30
0
  11
7.45722
  21
5.03271
  31
0
  0
LINE
  8
0
  10
7.45722
  20
5.03271
  30
0
  11
7.44641
  21
5.02914
  31
0
  0
LINE
  8
0
  10
7.44641
  20
5.02914
  30
0
  11
7.49667
  21
4.81685
  31
0
  0
LINE
  8
0
  10
7.49667
  20
4.81685
  30
0
  11
7.50793
  21
4.81851
  31
0
  0
LINE
  8
0
  10
7.50793
  20
4.81851
  30
0
  11
7.5193
  21
4.81967
  31
0
  0
LINE
  8
0
  10
7.5193
  20
4.81967
  30
0
  11
7.54222
  21
4.82104
  31
0
  0
LINE
  8
0
  10
7.54222
  20
4.82104
  30
0
  11
7.5886
  21
4.82109
  31
0
  0
LINE
  8
0
  10
7.5886
  20
4.82109
  30
0
  11
7.6355
  21
4.81835
  31
0
  0
LINE
  8
0
  10
7.6355
  20
4.81835
  30
0
  11
7.68281
  21
4.81326
  31
0
  0
LINE
  8
0
  10
7.68281
  20
4.81326
  30
0
  11
7.73046
  21
4.80607
  31
0
  0
LINE
  8
0
  10
7.73046
  20
4.80607
  30
0
  11
7.77839
  21
4.79696
  31
0
  0
LINE
  8
0
  10
7.77839
  20
4.79696
  30
0
  11
7.80833
  21
4.60401
  31
0
  0
LINE
  8
0
  10
7.80833
  20
4.60401
  30
0
  11
7.76541
  21
4.5808
  31
0
  0
LINE
  8
0
  10
7.76541
  20
4.5808
  30
0
  11
7.72218
  21
4.55952
  31
0
  0
LINE
  8
0
  10
7.72218
  20
4.55952
  30
0
  11
7.67864
  21
4.54033
  31
0
  0
LINE
  8
0
  10
7.67864
  20
4.54033
  30
0
  11
7.63477
  21
4.5235
  31
0
  0
LINE
  8
0
  10
7.63477
  20
4.5235
  30
0
  11
7.59056
  21
4.5095
  31
0
  0
LINE
  8
0
  10
7.59056
  20
4.5095
  30
0
  11
7.5683
  21
4.50386
  31
0
  0
LINE
  8
0
  10
7.5683
  20
4.50386
  30
0
  11
7.55712
  21
4.50152
  31
0
  0
LINE
  8
0
  10
7.55712
  20
4.50152
  30
0
  11
7.54588
  21
4.49968
  31
0
  0
LINE
  8
0
  10
7.54588
  20
4.49968
  30
0
  11
7.56231
  21
4.28215
  31
0
  0
LINE
  8
0
  10
7.56231
  20
4.28215
  30
0
  11
7.5737
  21
4.28202
  31
0
  0
LINE
  8
0
  10
7.5737
  20
4.28202
  30
0
  11
7.58511
  21
4.28138
  31
0
  0
LINE
  8
0
  10
7.58511
  20
4.28138
  30
0
  11
7.60796
  21
4.27915
  31
0
  0
LINE
  8
0
  10
7.60796
  20
4.27915
  30
0
  11
7.65378
  21
4.27195
  31
0
  0
LINE
  8
0
  10
7.65378
  20
4.27195
  30
0
  11
7.69967
  21
4.2619
  31
0
  0
LINE
  8
0
  10
7.69967
  20
4.2619
  30
0
  11
7.7456
  21
4.24947
  31
0
  0
LINE
  8
0
  10
7.7456
  20
4.24947
  30
0
  11
7.79154
  21
4.23492
  31
0
  0
LINE
  8
0
  10
7.79154
  20
4.23492
  30
0
  11
7.83746
  21
4.21842
  31
0
  0
LINE
  8
0
  10
7.83746
  20
4.21842
  30
0
  11
7.83685
  21
4.02317
  31
0
  0
LINE
  8
0
  10
7.83685
  20
4.02317
  30
0
  11
7.79083
  21
4.00696
  31
0
  0
LINE
  8
0
  10
7.79083
  20
4.00696
  30
0
  11
7.7448
  21
3.9927
  31
0
  0
LINE
  8
0
  10
7.7448
  20
3.9927
  30
0
  11
7.69879
  21
3.98056
  31
0
  0
LINE
  8
0
  10
7.69879
  20
3.98056
  30
0
  11
7.65283
  21
3.9708
  31
0
  0
LINE
  8
0
  10
7.65283
  20
3.9708
  30
0
  11
7.60697
  21
3.96389
  31
0
  0
LINE
  8
0
  10
7.60697
  20
3.96389
  30
0
  11
7.5841
  21
3.9618
  31
0
  0
LINE
  8
0
  10
7.5841
  20
3.9618
  30
0
  11
7.57269
  21
3.96123
  31
0
  0
LINE
  8
0
  10
7.57269
  20
3.96123
  30
0
  11
7.5613
  21
3.96118
  31
0
  0
LINE
  8
0
  10
7.5613
  20
3.96118
  30
0
  11
7.54351
  21
3.74375
  31
0
  0
LINE
  8
0
  10
7.54351
  20
3.74375
  30
0
  11
7.55473
  21
3.74185
  31
0
  0
LINE
  8
0
  10
7.55473
  20
3.74185
  30
0
  11
7.5659
  21
3.73943
  31
0
  0
LINE
  8
0
  10
7.5659
  20
3.73943
  30
0
  11
7.58813
  21
3.73366
  31
0
  0
LINE
  8
0
  10
7.58813
  20
3.73366
  30
0
  11
7.63225
  21
3.71937
  31
0
  0
LINE
  8
0
  10
7.63225
  20
3.71937
  30
0
  11
7.676
  21
3.70227
  31
0
  0
LINE
  8
0
  10
7.676
  20
3.70227
  30
0
  11
7.71943
  21
3.68281
  31
0
  0
LINE
  8
0
  10
7.71943
  20
3.68281
  30
0
  11
7.76253
  21
3.66125
  31
0
  0
LINE
  8
0
  10
7.76253
  20
3.66125
  30
0
  11
7.8053
  21
3.63777
  31
0
  0
LINE
  8
0
  10
7.8053
  20
3.63777
  30
0
  11
7.77415
  21
3.44502
  31
0
  0
LINE
  8
0
  10
7.77415
  20
3.44502
  30
0
  11
7.72616
  21
3.43621
  31
0
  0
LINE
  8
0
  10
7.72616
  20
3.43621
  30
0
  11
7.67846
  21
3.42932
  31
0
  0
LINE
  8
0
  10
7.67846
  20
3.42932
  30
0
  11
7.63112
  21
3.42453
  31
0
  0
LINE
  8
0
  10
7.63112
  20
3.42453
  30
0
  11
7.5842
  21
3.42208
  31
0
  0
LINE
  8
0
  10
7.5842
  20
3.42208
  30
0
  11
7.53783
  21
3.42242
  31
0
  0
LINE
  8
0
  10
7.53783
  20
3.42242
  30
0
  11
7.51491
  21
3.42394
  31
0
  0
LINE
  8
0
  10
7.51491
  20
3.42394
  30
0
  11
7.50355
  21
3.42517
  31
0
  0
LINE
  8
0
  10
7.50355
  20
3.42517
  30
0
  11
7.4923
  21
3.4269
  31
0
  0
LINE
  8
0
  10
7.4923
  20
3.4269
  30
0
  11
7.44071
  21
3.21493
  31
0
  0
LINE
  8
0
  10
7.44071
  20
3.21493
  30
0
  11
7.4515
  21
3.21129
  31
0
  0
LINE
  8
0
  10
7.4515
  20
3.21129
  30
0
  11
7.46215
  21
3.20716
  31
0
  0
LINE
  8
0
  10
7.46215
  20
3.20716
  30
0
  11
7.4832
  21
3.19798
  31
0
  0
LINE
  8
0
  10
7.4832
  20
3.19798
  30
0
  11
7.52454
  21
3.17697
  31
0
  0
LINE
  8
0
  10
7.52454
  20
3.17697
  30
0
  11
7.56508
  21
3.15323
  31
0
  0
LINE
  8
0
  10
7.56508
  20
3.15323
  30
0
  11
7.60493
  21
3.12721
  31
0
  0
LINE
  8
0
  10
7.60493
  20
3.12721
  30
0
  11
7.64412
  21
3.09918
  31
0
  0
LINE
  8
0
  10
7.64412
  20
3.09918
  30
0
  11
7.68269
  21
3.0693
  31
0
  0
LINE
  8
0
  10
7.68269
  20
3.0693
  30
0
  11
7.62178
  21
2.88379
  31
0
  0
LINE
  8
0
  10
7.62178
  20
2.88379
  30
0
  11
7.573
  21
2.8826
  31
0
  0
LINE
  8
0
  10
7.573
  20
2.8826
  30
0
  11
7.52481
  21
2.88326
  31
0
  0
LINE
  8
0
  10
7.52481
  20
2.88326
  30
0
  11
7.4773
  21
2.88593
  31
0
  0
LINE
  8
0
  10
7.4773
  20
2.88593
  30
0
  11
7.43058
  21
2.89085
  31
0
  0
LINE
  8
0
  10
7.43058
  20
2.89085
  30
0
  11
7.38483
  21
2.89844
  31
0
  0
LINE
  8
0
  10
7.38483
  20
2.89844
  30
0
  11
7.36244
  21
2.90353
  31
0
  0
LINE
  8
0
  10
7.36244
  20
2.90353
  30
0
  11
7.35141
  21
2.90652
  31
0
  0
LINE
  8
0
  10
7.35141
  20
2.90652
  30
0
  11
7.34056
  21
2.90998
  31
0
  0
LINE
  8
0
  10
7.34056
  20
2.90998
  30
0
  11
7.25645
  21
2.7087
  31
0
  0
LINE
  8
0
  10
7.25645
  20
2.7087
  30
0
  11
7.26653
  21
2.70342
  31
0
  0
LINE
  8
0
  10
7.26653
  20
2.70342
  30
0
  11
7.27641
  21
2.69767
  31
0
  0
LINE
  8
0
  10
7.27641
  20
2.69767
  30
0
  11
7.29576
  21
2.68531
  31
0
  0
LINE
  8
0
  10
7.29576
  20
2.68531
  30
0
  11
7.33331
  21
2.65809
  31
0
  0
LINE
  8
0
  10
7.33331
  20
2.65809
  30
0
  11
7.36964
  21
2.6283
  31
0
  0
LINE
  8
0
  10
7.36964
  20
2.6283
  30
0
  11
7.40492
  21
2.59637
  31
0
  0
LINE
  8
0
  10
7.40492
  20
2.59637
  30
0
  11
7.43925
  21
2.56255
  31
0
  0
LINE
  8
0
  10
7.43925
  20
2.56255
  30
0
  11
7.47267
  21
2.52701
  31
0
  0
LINE
  8
0
  10
7.47267
  20
2.52701
  30
0
  11
7.38349
  21
2.35331
  31
0
  0
LINE
  8
0
  10
7.38349
  20
2.35331
  30
0
  11
7.33512
  21
2.35976
  31
0
  0
LINE
  8
0
  10
7.33512
  20
2.35976
  30
0
  11
7.28763
  21
2.36795
  31
0
  0
LINE
  8
0
  10
7.28763
  20
2.36795
  30
0
  11
7.24113
  21
2.37803
  31
0
  0
LINE
  8
0
  10
7.24113
  20
2.37803
  30
0
  11
7.19575
  21
2.39019
  31
0
  0
LINE
  8
0
  10
7.19575
  20
2.39019
  30
0
  11
7.15175
  21
2.40485
  31
0
  0
LINE
  8
0
  10
7.15175
  20
2.40485
  30
0
  11
7.13043
  21
2.41338
  31
0
  0
LINE
  8
0
  10
7.13043
  20
2.41338
  30
0
  11
7.12
  21
2.41805
  31
0
  0
LINE
  8
0
  10
7.12
  20
2.41805
  30
0
  11
7.10983
  21
2.42317
  31
0
  0
LINE
  8
0
  10
7.10983
  20
2.42317
  30
0
  11
6.99526
  21
2.23752
  31
0
  0
LINE
  8
0
  10
6.99526
  20
2.23752
  30
0
  11
7.0044
  21
2.23073
  31
0
  0
LINE
  8
0
  10
7.0044
  20
2.23073
  30
0
  11
7.01325
  21
2.22351
  31
0
  0
LINE
  8
0
  10
7.01325
  20
2.22351
  30
0
  11
7.03043
  21
2.20827
  31
0
  0
LINE
  8
0
  10
7.03043
  20
2.20827
  30
0
  11
7.06326
  21
2.17552
  31
0
  0
LINE
  8
0
  10
7.06326
  20
2.17552
  30
0
  11
7.09449
  21
2.14041
  31
0
  0
LINE
  8
0
  10
7.09449
  20
2.14041
  30
0
  11
7.12434
  21
2.10335
  31
0
  0
LINE
  8
0
  10
7.12434
  20
2.10335
  30
0
  11
7.15296
  21
2.06458
  31
0
  0
LINE
  8
0
  10
7.15296
  20
2.06458
  30
0
  11
7.18041
  21
2.02424
  31
0
  0
LINE
  8
0
  10
7.18041
  20
2.02424
  30
0
  11
7.06514
  21
1.86664
  31
0
  0
LINE
  8
0
  10
7.06514
  20
1.86664
  30
0
  11
7.01838
  21
1.88058
  31
0
  0
LINE
  8
0
  10
7.01838
  20
1.88058
  30
0
  11
6.97276
  21
1.8961
  31
0
  0
LINE
  8
0
  10
6.97276
  20
1.8961
  30
0
  11
6.9284
  21
1.91332
  31
0
  0
LINE
  8
0
  10
6.9284
  20
1.91332
  30
0
  11
6.88549
  21
1.93244
  31
0
  0
LINE
  8
0
  10
6.88549
  20
1.93244
  30
0
  11
6.84432
  21
1.9538
  31
0
  0
LINE
  8
0
  10
6.84432
  20
1.9538
  30
0
  11
6.8246
  21
1.96555
  31
0
  0
LINE
  8
0
  10
6.8246
  20
1.96555
  30
0
  11
6.81503
  21
1.9718
  31
0
  0
LINE
  8
0
  10
6.81503
  20
1.9718
  30
0
  11
6.80579
  21
1.97845
  31
0
  0
LINE
  8
0
  10
6.80579
  20
1.97845
  30
0
  11
6.66359
  21
1.81301
  31
0
  0
LINE
  8
0
  10
6.66359
  20
1.81301
  30
0
  11
6.67155
  21
1.80487
  31
0
  0
LINE
  8
0
  10
6.67155
  20
1.80487
  30
0
  11
6.67916
  21
1.79635
  31
0
  0
LINE
  8
0
  10
6.67916
  20
1.79635
  30
0
  11
6.69375
  21
1.77861
  31
0
  0
LINE
  8
0
  10
6.69375
  20
1.77861
  30
0
  11
6.72105
  21
1.74113
  31
0
  0
LINE
  8
0
  10
6.72105
  20
1.74113
  30
0
  11
6.7464
  21
1.70157
  31
0
  0
LINE
  8
0
  10
6.7464
  20
1.70157
  30
0
  11
6.77009
  21
1.6603
  31
0
  0
LINE
  8
0
  10
6.77009
  20
1.6603
  30
0
  11
6.79228
  21
1.61753
  31
0
  0
LINE
  8
0
  10
6.79228
  20
1.61753
  30
0
  11
6.81309
  21
1.57339
  31
0
  0
LINE
  8
0
  10
6.81309
  20
1.57339
  30
0
  11
6.67459
  21
1.43576
  31
0
  0
LINE
  8
0
  10
6.67459
  20
1.43576
  30
0
  11
6.63058
  21
1.45684
  31
0
  0
LINE
  8
0
  10
6.63058
  20
1.45684
  30
0
  11
6.58795
  21
1.47931
  31
0
  0
LINE
  8
0
  10
6.58795
  20
1.47931
  30
0
  11
6.54683
  21
1.50326
  31
0
  0
LINE
  8
0
  10
6.54683
  20
1.50326
  30
0
  11
6.50744
  21
1.52885
  31
0
  0
LINE
  8
0
  10
6.50744
  20
1.52885
  30
0
  11
6.47012
  21
1.55639
  31
0
  0
LINE
  8
0
  10
6.47012
  20
1.55639
  30
0
  11
6.45248
  21
1.57108
  31
0
  0
LINE
  8
0
  10
6.45248
  20
1.57108
  30
0
  11
6.44401
  21
1.57875
  31
0
  0
LINE
  8
0
  10
6.44401
  20
1.57875
  30
0
  11
6.43592
  21
1.58676
  31
0
  0
LINE
  8
0
  10
6.43592
  20
1.58676
  30
0
  11
6.26958
  21
1.44561
  31
0
  0
LINE
  8
0
  10
6.26958
  20
1.44561
  30
0
  11
6.27618
  21
1.43632
  31
0
  0
LINE
  8
0
  10
6.27618
  20
1.43632
  30
0
  11
6.28236
  21
1.42672
  31
0
  0
LINE
  8
0
  10
6.28236
  20
1.42672
  30
0
  11
6.294
  21
1.40692
  31
0
  0
LINE
  8
0
  10
6.294
  20
1.40692
  30
0
  11
6.3151
  21
1.36562
  31
0
  0
LINE
  8
0
  10
6.3151
  20
1.36562
  30
0
  11
6.33394
  21
1.32258
  31
0
  0
LINE
  8
0
  10
6.33394
  20
1.32258
  30
0
  11
6.35089
  21
1.27812
  31
0
  0
LINE
  8
0
  10
6.35089
  20
1.27812
  30
0
  11
6.36612
  21
1.2324
  31
0
  0
LINE
  8
0
  10
6.36612
  20
1.2324
  30
0
  11
6.37976
  21
1.18555
  31
0
  0
LINE
  8
0
  10
6.37976
  20
1.18555
  30
0
  11
6.22144
  21
1.07128
  31
0
  0
LINE
  8
0
  10
6.22144
  20
1.07128
  30
0
  11
6.18127
  21
1.09898
  31
0
  0
LINE
  8
0
  10
6.18127
  20
1.09898
  30
0
  11
6.14268
  21
1.12784
  31
0
  0
LINE
  8
0
  10
6.14268
  20
1.12784
  30
0
  11
6.10581
  21
1.15793
  31
0
  0
LINE
  8
0
  10
6.10581
  20
1.15793
  30
0
  11
6.07091
  21
1.18937
  31
0
  0
LINE
  8
0
  10
6.07091
  20
1.18937
  30
0
  11
6.03836
  21
1.22241
  31
0
  0
LINE
  8
0
  10
6.03836
  20
1.22241
  30
0
  11
6.02323
  21
1.23968
  31
0
  0
LINE
  8
0
  10
6.02323
  20
1.23968
  30
0
  11
6.01606
  21
1.24858
  31
0
  0
LINE
  8
0
  10
6.01606
  20
1.24858
  30
0
  11
6.00932
  21
1.25776
  31
0
  0
LINE
  8
0
  10
6.00932
  20
1.25776
  30
0
  11
5.82296
  21
1.14436
  31
0
  0
LINE
  8
0
  10
5.82296
  20
1.14436
  30
0
  11
5.82802
  21
1.13416
  31
0
  0
LINE
  8
0
  10
5.82802
  20
1.13416
  30
0
  11
5.83263
  21
1.1237
  31
0
  0
LINE
  8
0
  10
5.83263
  20
1.1237
  30
0
  11
5.84102
  21
1.10233
  31
0
  0
LINE
  8
0
  10
5.84102
  20
1.10233
  30
0
  11
5.8554
  21
1.05824
  31
0
  0
LINE
  8
0
  10
5.8554
  20
1.05824
  30
0
  11
5.86728
  21
1.01279
  31
0
  0
LINE
  8
0
  10
5.86728
  20
1.01279
  30
0
  11
5.87706
  21
0.96622
  31
0
  0
LINE
  8
0
  10
5.87706
  20
0.96622
  30
0
  11
5.88495
  21
0.91868
  31
0
  0
LINE
  8
0
  10
5.88495
  20
0.91868
  30
0
  11
5.8911
  21
0.87027
  31
0
  0
LINE
  8
0
  10
5.8911
  20
0.87027
  30
0
  11
5.71685
  21
0.78218
  31
0
  0
LINE
  8
0
  10
5.71685
  20
0.78218
  30
0
  11
5.68151
  21
0.81582
  31
0
  0
LINE
  8
0
  10
5.68151
  20
0.81582
  30
0
  11
5.64791
  21
0.85036
  31
0
  0
LINE
  8
0
  10
5.64791
  20
0.85036
  30
0
  11
5.6162
  21
0.88585
  31
0
  0
LINE
  8
0
  10
5.6162
  20
0.88585
  30
0
  11
5.58664
  21
0.92236
  31
0
  0
LINE
  8
0
  10
5.58664
  20
0.92236
  30
0
  11
5.55966
  21
0.96008
  31
0
  0
LINE
  8
0
  10
5.55966
  20
0.96008
  30
0
  11
5.54742
  21
0.97951
  31
0
  0
LINE
  8
0
  10
5.54742
  20
0.97951
  30
0
  11
5.54174
  21
0.98942
  31
0
  0
LINE
  8
0
  10
5.54174
  20
0.98942
  30
0
  11
5.53652
  21
0.99954
  31
0
  0
LINE
  8
0
  10
5.53652
  20
0.99954
  30
0
  11
5.33471
  21
0.91669
  31
0
  0
LINE
  8
0
  10
5.33471
  20
0.91669
  30
0
  11
5.33811
  21
0.90583
  31
0
  0
LINE
  8
0
  10
5.33811
  20
0.90583
  30
0
  11
5.34103
  21
0.89478
  31
0
  0
LINE
  8
0
  10
5.34103
  20
0.89478
  30
0
  11
5.34597
  21
0.87235
  31
0
  0
LINE
  8
0
  10
5.34597
  20
0.87235
  30
0
  11
5.35328
  21
0.82656
  31
0
  0
LINE
  8
0
  10
5.35328
  20
0.82656
  30
0
  11
5.3579
  21
0.7798
  31
0
  0
LINE
  8
0
  10
5.3579
  20
0.7798
  30
0
  11
5.36027
  21
0.73228
  31
0
  0
LINE
  8
0
  10
5.36027
  20
0.73228
  30
0
  11
5.36063
  21
0.68409
  31
0
  0
LINE
  8
0
  10
5.36063
  20
0.68409
  30
0
  11
5.35913
  21
0.63532
  31
0
  0
LINE
  8
0
  10
5.35913
  20
0.63532
  30
0
  11
5.17325
  21
0.57557
  31
0
  0
LINE
  8
0
  10
5.17325
  20
0.57557
  30
0
  11
5.14361
  21
0.61433
  31
0
  0
LINE
  8
0
  10
5.14361
  20
0.61433
  30
0
  11
5.11582
  21
0.6537
  31
0
  0
LINE
  8
0
  10
5.11582
  20
0.6537
  30
0
  11
5.09006
  21
0.69371
  31
0
  0
LINE
  8
0
  10
5.09006
  20
0.69371
  30
0
  11
5.06657
  21
0.7344
  31
0
  0
LINE
  8
0
  10
5.06657
  20
0.7344
  30
0
  11
5.04583
  21
0.77587
  31
0
  0
LINE
  8
0
  10
5.04583
  20
0.77587
  30
0
  11
5.03678
  21
0.79698
  31
0
  0
LINE
  8
0
  10
5.03678
  20
0.79698
  30
0
  11
5.03271
  21
0.80766
  31
0
  0
LINE
  8
0
  10
5.03271
  20
0.80766
  30
0
  11
5.02914
  21
0.81847
  31
0
  0
LINE
  8
0
  10
5.02914
  20
0.81847
  30
0
  11
4.81685
  21
0.76821
  31
0
  0
LINE
  8
0
  10
4.81685
  20
0.76821
  30
0
  11
4.81851
  21
0.75694
  31
0
  0
LINE
  8
0
  10
4.81851
  20
0.75694
  30
0
  11
4.81967
  21
0.74557
  31
0
  0
LINE
  8
0
  10
4.81967
  20
0.74557
  30
0
  11
4.82104
  21
0.72265
  31
0
  0
LINE
  8
0
  10
4.82104
  20
0.72265
  30
0
  11
4.82109
  21
0.67628
  31
0
  0
LINE
  8
0
  10
4.82109
  20
0.67628
  30
0
  11
4.81835
  21
0.62938
  31
0
  0
LINE
  8
0
  10
4.81835
  20
0.62938
  30
0
  11
4.81326
  21
0.58206
  31
0
  0
LINE
  8
0
  10
4.81326
  20
0.58206
  30
0
  11
4.80607
  21
0.53441
  31
0
  0
LINE
  8
0
  10
4.80607
  20
0.53441
  30
0
  11
4.79696
  21
0.48648
  31
0
  0
LINE
  8
0
  10
4.79696
  20
0.48648
  30
0
  11
4.60401
  21
0.45654
  31
0
  0
LINE
  8
0
  10
4.60401
  20
0.45654
  30
0
  11
4.5808
  21
0.49946
  31
0
  0
LINE
  8
0
  10
4.5808
  20
0.49946
  30
0
  11
4.55952
  21
0.54269
  31
0
  0
LINE
  8
0
  10
4.55952
  20
0.54269
  30
0
  11
4.54033
  21
0.58624
  31
0
  0
LINE
  8
0
  10
4.54033
  20
0.58624
  30
0
  11
4.5235
  21
0.6301
  31
0
  0
LINE
  8
0
  10
4.5235
  20
0.6301
  30
0
  11
4.5095
  21
0.67431
  31
0
  0
LINE
  8
0
  10
4.5095
  20
0.67431
  30
0
  11
4.50386
  21
0.69657
  31
0
  0
LINE
  8
0
  10
4.50386
  20
0.69657
  30
0
  11
4.50152
  21
0.70776
  31
0
  0
LINE
  8
0
  10
4.50152
  20
0.70776
  30
0
  11
4.49968
  21
0.71899
  31
0
  0
LINE
  8
0
  10
4.49968
  20
0.71899
  30
0
  11
4.28215
  21
0.70256
  31
0
  0
LINE
  8
0
  10
4.28215
  20
0.70256
  30
0
  11
4.28202
  21
0.69117
  31
0
  0
LINE
  8
0
  10
4.28202
  20
0.69117
  30
0
  11
4.28138
  21
0.67977
  31
0
  0
LINE
  8
0
  10
4.28138
  20
0.67977
  30
0
  11
4.27915
  21
0.65691
  31
0
  0
LINE
  8
0
  10
4.27915
  20
0.65691
  30
0
  11
4.27195
  21
0.6111
  31
0
  0
LINE
  8
0
  10
4.27195
  20
0.6111
  30
0
  11
4.2619
  21
0.5652
  31
0
  0
LINE
  8
0
  10
4.2619
  20
0.5652
  30
0
  11
4.24947
  21
0.51927
  31
0
  0
LINE
  8
0
  10
4.24947
  20
0.51927
  30
0
  11
4.23492
  21
0.47333
  31
0
  0
LINE
  8
0
  10
4.23492
  20
0.47333
  30
0
  11
4.21842
  21
0.42741
  31
0
  0
LINE
  8
0
  10
4.21842
  20
0.42741
  30
0
  11
4.02317
  21
0.42803
  31
0
  0
LINE
  8
0
  10
4.02317
  20
0.42803
  30
0
  11
4.00696
  21
0.47405
  31
0
  0
LINE
  8
0
  10
4.00696
  20
0.47405
  30
0
  11
3.9927
  21
0.52008
  31
0
  0
LINE
  8
0
  10
3.9927
  20
0.52008
  30
0
  11
3.98056
  21
0.56609
  31
0
  0
LINE
  8
0
  10
3.98056
  20
0.56609
  30
0
  11
3.9708
  21
0.61204
  31
0
  0
LINE
  8
0
  10
3.9708
  20
0.61204
  30
0
  11
3.96389
  21
0.6579
  31
0
  0
LINE
  8
0
  10
3.96389
  20
0.6579
  30
0
  11
3.9618
  21
0.68077
  31
0
  0
LINE
  8
0
  10
3.9618
  20
0.68077
  30
0
  11
3.96123
  21
0.69218
  31
0
  0
LINE
  8
0
  10
3.96123
  20
0.69218
  30
0
  11
3.96118
  21
0.70357
  31
0
  0
LINE
  8
0
  10
3.96118
  20
0.70357
  30
0
  11
3.74375
  21
0.72137
  31
0
  0
LINE
  8
0
  10
3.74375
  20
0.72137
  30
0
  11
3.74185
  21
0.71014
  31
0
  0
LINE
  8
0
  10
3.74185
  20
0.71014
  30
0
  11
3.73943
  21
0.69897
  31
0
  0
LINE
  8
0
  10
3.73943
  20
0.69897
  30
0
  11
3.73366
  21
0.67675
  31
0
  0
LINE
  8
0
  10
3.73366
  20
0.67675
  30
0
  11
3.71937
  21
0.63263
  31
0
  0
LINE
  8
0
  10
3.71937
  20
0.63263
  30
0
  11
3.70227
  21
0.58887
  31
0
  0
LINE
  8
0
  10
3.70227
  20
0.58887
  30
0
  11
3.68281
  21
0.54545
  31
0
  0
LINE
  8
0
  10
3.68281
  20
0.54545
  30
0
  11
3.66125
  21
0.50235
  31
0
  0
LINE
  8
0
  10
3.66125
  20
0.50235
  30
0
  11
3.63777
  21
0.45958
  31
0
  0
LINE
  8
0
  10
3.63777
  20
0.45958
  30
0
  11
3.44502
  21
0.49073
  31
0
  0
LINE
  8
0
  10
3.44502
  20
0.49073
  30
0
  11
3.43621
  21
0.53872
  31
0
  0
LINE
  8
0
  10
3.43621
  20
0.53872
  30
0
  11
3.42932
  21
0.58641
  31
0
  0
LINE
  8
0
  10
3.42932
  20
0.58641
  30
0
  11
3.42453
  21
0.63375
  31
0
  0
LINE
  8
0
  10
3.42453
  20
0.63375
  30
0
  11
3.42208
  21
0.68067
  31
0
  0
LINE
  8
0
  10
3.42208
  20
0.68067
  30
0
  11
3.42242
  21
0.72705
  31
0
  0
LINE
  8
0
  10
3.42242
  20
0.72705
  30
0
  11
3.42394
  21
0.74996
  31
0
  0
LINE
  8
0
  10
3.42394
  20
0.74996
  30
0
  11
3.42517
  21
0.76132
  31
0
  0
LINE
  8
0
  10
3.42517
  20
0.76132
  30
0
  11
3.4269
  21
0.77257
  31
0
  0
LINE
  8
0
  10
3.4269
  20
0.77257
  30
0
  11
3.21493
  21
0.82417
  31
0
  0
LINE
  8
0
  10
3.21493
  20
0.82417
  30
0
  11
3.21129
  21
0.81338
  31
0
  0
LINE
  8
0
  10
3.21129
  20
0.81338
  30
0
  11
3.20716
  21
0.80273
  31
0
  0
LINE
  8
0
  10
3.20716
  20
0.80273
  30
0
  11
3.19798
  21
0.78168
  31
0
  0
LINE
  8
0
  10
3.19798
  20
0.78168
  30
0
  11
3.17697
  21
0.74033
  31
0
  0
LINE
  8
0
  10
3.17697
  20
0.74033
  30
0
  11
3.15323
  21
0.69979
  31
0
  0
LINE
  8
0
  10
3.15323
  20
0.69979
  30
0
  11
3.12721
  21
0.65995
  31
0
  0
LINE
  8
0
  10
3.12721
  20
0.65995
  30
0
  11
3.09918
  21
0.62075
  31
0
  0
LINE
  8
0
  10
3.09918
  20
0.62075
  30
0
  11
3.0693
  21
0.58218
  31
0
  0
LINE
  8
0
  10
3.0693
  20
0.58218
  30
0
  11
2.88379
  21
0.6431
  31
0
  0
LINE
  8
0
  10
2.88379
  20
0.6431
  30
0
  11
2.8826
  21
0.69188
  31
0
  0
LINE
  8
0
  10
2.8826
  20
0.69188
  30
0
  11
2.88326
  21
0.74006
  31
0
  0
LINE
  8
0
  10
2.88326
  20
0.74006
  30
0
  11
2.88593
  21
0.78757
  31
0
  0
LINE
  8
0
  10
2.88593
  20
0.78757
  30
0
  11
2.89085
  21
0.83429
  31
0
  0
LINE
  8
0
  10
2.89085
  20
0.83429
  30
0
  11
2.89844
  21
0.88004
  31
0
  0
LINE
  8
0
  10
2.89844
  20
0.88004
  30
0
  11
2.90353
  21
0.90244
  31
0
  0
LINE
  8
0
  10
2.90353
  20
0.90244
  30
0
  11
2.90652
  21
0.91347
  31
0
  0
LINE
  8
0
  10
2.90652
  20
0.91347
  30
0
  11
2.90998
  21
0.92431
  31
0
  0
LINE
  8
0
  10
2.90998
  20
0.92431
  30
0
  11
2.7087
  21
1.00843
  31
0
  0
LINE
  8
0
  10
2.7087
  20
1.00843
  30
0
  11
2.70342
  21
0.99834
  31
0
  0
LINE
  8
0
  10
2.70342
  20
0.99834
  30
0
  11
2.69767
  21
0.98847
  31
0
  0
LINE
  8
0
  10
2.69767
  20
0.98847
  30
0
  11
2.68531
  21
0.96911
  31
0
  0
LINE
  8
0
  10
2.68531
  20
0.96911
  30
0
  11
2.65809
  21
0.93156
  31
0
  0
LINE
  8
0
  10
2.65809
  20
0.93156
  30
0
  11
2.6283
  21
0.89523
  31
0
  0
LINE
  8
0
  10
2.6283
  20
0.89523
  30
0
  11
2.59637
  21
0.85995
  31
0
  0
LINE
  8
0
  10
2.59637
  20
0.85995
  30
0
  11
2.56255
  21
0.82562
  31
0
  0
LINE
  8
0
  10
2.56255
  20
0.82562
  30
0
  11
2.52701
  21
0.7922
  31
0
  0
LINE
  8
0
  10
2.52701
  20
0.7922
  30
0
  11
2.35331
  21
0.88139
  31
0
  0
LINE
  8
0
  10
2.35331
  20
0.88139
  30
0
  11
2.35976
  21
0.92975
  31
0
  0
LINE
  8
0
  10
2.35976
  20
0.92975
  30
0
  11
2.36795
  21
0.97724
  31
0
  0
LINE
  8
0
  10
2.36795
  20
0.97724
  30
0
  11
2.37803
  21
1.02375
  31
0
  0
LINE
  8
0
  10
2.37803
  20
1.02375
  30
0
  11
2.39019
  21
1.06913
  31
0
  0
LINE
  8
0
  10
2.39019
  20
1.06913
  30
0
  11
2.40485
  21
1.11312
  31
0
  0
LINE
  8
0
  10
2.40485
  20
1.11312
  30
0
  11
2.41338
  21
1.13445
  31
0
  0
LINE
  8
0
  10
2.41338
  20
1.13445
  30
0
  11
2.41805
  21
1.14487
  31
0
  0
LINE
  8
0
  10
2.41805
  20
1.14487
  30
0
  11
2.42317
  21
1.15504
  31
0
  0
LINE
  8
0
  10
2.42317
  20
1.15504
  30
0
  11
2.23752
  21
1.26961
  31
0
  0
LINE
  8
0
  10
2.23752
  20
1.26961
  30
0
  11
2.23073
  21
1.26047
  31
0
  0
LINE
  8
0
  10
2.23073
  20
1.26047
  30
0
  11
2.22351
  21
1.25162
  31
0
  0
LINE
  8
0
  10
2.22351
  20
1.25162
  30
0
  11
2.20827
  21
1.23444
  31
0
  0
LINE
  8
0
  10
2.20827
  20
1.23444
  30
0
  11
2.17552
  21
1.20161
  31
0
  0
LINE
  8
0
  10
2.17552
  20
1.20161
  30
0
  11
2.14041
  21
1.17039
  31
0
  0
LINE
  8
0
  10
2.14041
  20
1.17039
  30
0
  11
2.10335
  21
1.14053
  31
0
  0
LINE
  8
0
  10
2.10335
  20
1.14053
  30
0
  11
2.06458
  21
1.11192
  31
0
  0
LINE
  8
0
  10
2.06458
  20
1.11192
  30
0
  11
2.02424
  21
1.08447
  31
0
  0
LINE
  8
0
  10
2.02424
  20
1.08447
  30
0
  11
1.86664
  21
1.19973
  31
0
  0
LINE
  8
0
  10
1.86664
  20
1.19973
  30
0
  11
1.88058
  21
1.24649
  31
0
  0
LINE
  8
0
  10
1.88058
  20
1.24649
  30
0
  11
1.8961
  21
1.29211
  31
0
  0
LINE
  8
0
  10
1.8961
  20
1.29211
  30
0
  11
1.91332
  21
1.33647
  31
0
  0
LINE
  8
0
  10
1.91332
  20
1.33647
  30
0
  11
1.93244
  21
1.37939
  31
0
  0
LINE
  8
0
  10
1.93244
  20
1.37939
  30
0
  11
1.9538
  21
1.42055
  31
0
  0
LINE
  8
0
  10
1.9538
  20
1.42055
  30
0
  11
1.96555
  21
1.44028
  31
0
  0
LINE
  8
0
  10
1.96555
  20
1.44028
  30
0
  11
1.9718
  21
1.44984
  31
0
  0
LINE
  8
0
  10
1.9718
  20
1.44984
  30
0
  11
1.97845
  21
1.45909
  31
0
  0
LINE
  8
0
  10
1.97845
  20
1.45909
  30
0
  11
1.81301
  21
1.60129
  31
0
  0
LINE
  8
0
  10
1.81301
  20
1.60129
  30
0
  11
1.80487
  21
1.59333
  31
0
  0
LINE
  8
0
  10
1.80487
  20
1.59333
  30
0
  11
1.79635
  21
1.58571
  31
0
  0
LINE
  8
0
  10
1.79635
  20
1.58571
  30
0
  11
1.77861
  21
1.57112
  31
0
  0
LINE
  8
0
  10
1.77861
  20
1.57112
  30
0
  11
1.74113
  21
1.54382
  31
0
  0
LINE
  8
0
  10
1.74113
  20
1.54382
  30
0
  11
1.70157
  21
1.51848
  31
0
  0
LINE
  8
0
  10
1.70157
  20
1.51848
  30
0
  11
1.6603
  21
1.49479
  31
0
  0
LINE
  8
0
  10
1.6603
  20
1.49479
  30
0
  11
1.61753
  21
1.47259
  31
0
  0
LINE
  8
0
  10
1.61753
  20
1.47259
  30
0
  11
1.57339
  21
1.45179
  31
0
  0
LINE
  8
0
  10
1.57339
  20
1.45179
  30
0
  11
1.43576
  21
1.59029
  31
0
  0
LINE
  8
0
  10
1.43576
  20
1.59029
  30
0
  11
1.45684
  21
1.63429
  31
0
  0
LINE
  8
0
  10
1.45684
  20
1.63429
  30
0
  11
1.47931
  21
1.67692
  31
0
  0
LINE
  8
0
  10
1.47931
  20
1.67692
  30
0
  11
1.50326
  21
1.71804
  31
0
  0
LINE
  8
0
  10
1.50326
  20
1.71804
  30
0
  11
1.52885
  21
1.75744
  31
0
  0
LINE
  8
0
  10
1.52885
  20
1.75744
  30
0
  11
1.55639
  21
1.79475
  31
0
  0
LINE
  8
0
  10
1.55639
  20
1.79475
  30
0
  11
1.57108
  21
1.8124
  31
0
  0
LINE
  8
0
  10
1.57108
  20
1.8124
  30
0
  11
1.57875
  21
1.82087
  31
0
  0
LINE
  8
0
  10
1.57875
  20
1.82087
  30
0
  11
1.58676
  21
1.82896
  31
0
  0
LINE
  8
0
  10
1.58676
  20
1.82896
  30
0
  11
1.44561
  21
1.99529
  31
0
  0
LINE
  8
0
  10
1.44561
  20
1.99529
  30
0
  11
1.43632
  21
1.9887
  31
0
  0
LINE
  8
0
  10
1.43632
  20
1.9887
  30
0
  11
1.42672
  21
1.98251
  31
0
  0
LINE
  8
0
  10
1.42672
  20
1.98251
  30
0
  11
1.40692
  21
1.97088
  31
0
  0
LINE
  8
0
  10
1.40692
  20
1.97088
  30
0
  11
1.36562
  21
1.94978
  31
0
  0
LINE
  8
0
  10
1.36562
  20
1.94978
  30
0
  11
1.32258
  21
1.93093
  31
0
  0
LINE
  8
0
  10
1.32258
  20
1.93093
  30
0
  11
1.27812
  21
1.91399
  31
0
  0
LINE
  8
0
  10
1.27812
  20
1.91399
  30
0
  11
1.2324
  21
1.89875
  31
0
  0
LINE
  8
0
  10
1.2324
  20
1.89875
  30
0
  11
1.18555
  21
1.88511
  31
0
  0
LINE
  8
0
  10
1.18555
  20
1.88511
  30
0
  11
1.07128
  21
2.04344
  31
0
  0
LINE
  8
0
  10
1.07128
  20
2.04344
  30
0
  11
1.09898
  21
2.0836
  31
0
  0
LINE
  8
0
  10
1.09898
  20
2.0836
  30
0
  11
1.12784
  21
2.12219
  31
0
  0
LINE
  8
0
  10
1.12784
  20
2.12219
  30
0
  11
1.15793
  21
2.15906
  31
0
  0
LINE
  8
0
  10
1.15793
  20
2.15906
  30
0
  11
1.18937
  21
2.19397
  31
0
  0
LINE
  8
0
  10
1.18937
  20
2.19397
  30
0
  11
1.22241
  21
2.22652
  31
0
  0
LINE
  8
0
  10
1.22241
  20
2.22652
  30
0
  11
1.23968
  21
2.24165
  31
0
  0
LINE
  8
0
  10
1.23968
  20
2.24165
  30
0
  11
1.24858
  21
2.24881
  31
0
  0
LINE
  8
0
  10
1.24858
  20
2.24881
  30
0
  11
1.25776
  21
2.25555
  31
0
  0
LINE
  8
0
  10
1.25776
  20
2.25555
  30
0
  11
1.14436
  21
2.44191
  31
0
  0
LINE
  8
0
  10
1.14436
  20
2.44191
  30
0
  11
1.13416
  21
2.43686
  31
0
  0
LINE
  8
0
  10
1.13416
  20
2.43686
  30
0
  11
1.1237
  21
2.43225
  31
0
  0
LINE
  8
0
  10
1.1237
  20
2.43225
  30
0
  11
1.10233
  21
2.42386
  31
0
  0
LINE
  8
0
  10
1.10233
  20
2.42386
  30
0
  11
1.05824
  21
2.40947
  31
0
  0
LINE
  8
0
  10
1.05824
  20
2.40947
  30
0
  11
1.01279
  21
2.39759
  31
0
  0
LINE
  8
0
  10
1.01279
  20
2.39759
  30
0
  11
0.96622
  21
2.38781
  31
0
  0
LINE
  8
0
  10
0.96622
  20
2.38781
  30
0
  11
0.91868
  21
2.37992
  31
0
  0
LINE
  8
0
  10
0.91868
  20
2.37992
  30
0
  11
0.87027
  21
2.37378
  31
0
  0
LINE
  8
0
  10
0.87027
  20
2.37378
  30
0
  11
0.78218
  21
2.54803
  31
0
  0
LINE
  8
0
  10
0.78218
  20
2.54803
  30
0
  11
0.81582
  21
2.58336
  31
0
  0
LINE
  8
0
  10
0.81582
  20
2.58336
  30
0
  11
0.85036
  21
2.61697
  31
0
  0
LINE
  8
0
  10
0.85036
  20
2.61697
  30
0
  11
0.88585
  21
2.64867
  31
0
  0
LINE
  8
0
  10
0.88585
  20
2.64867
  30
0
  11
0.92236
  21
2.67823
  31
0
  0
LINE
  8
0
  10
0.92236
  20
2.67823
  30
0
  11
0.96008
  21
2.70521
  31
0
  0
LINE
  8
0
  10
0.96008
  20
2.70521
  30
0
  11
0.97951
  21
2.71745
  31
0
  0
LINE
  8
0
  10
0.97951
  20
2.71745
  30
0
  11
0.98942
  21
2.72314
  31
0
  0
LINE
  8
0
  10
0.98942
  20
2.72314
  30
0
  11
0.99954
  21
2.72835
  31
0
  0
LINE
  8
0
  10
0.99954
  20
2.72835
  30
0
  11
0.91669
  21
2.93016
  31
0
  0
LINE
  8
0
  10
0.91669
  20
2.93016
  30
0
  11
0.90583
  21
2.92677
  31
0
  0
LINE
  8
0
  10
0.90583
  20
2.92677
  30
0
  11
0.89478
  21
2.92385
  31
0
  0
LINE
  8
0
  10
0.89478
  20
2.92385
  30
0
  11
0.87235
  21
2.9189
  31
0
  0
LINE
  8
0
  10
0.87235
  20
2.9189
  30
0
  11
0.82656
  21
2.9116
  31
0
  0
LINE
  8
0
  10
0.82656
  20
2.9116
  30
0
  11
0.7798
  21
2.90697
  31
0
  0
LINE
  8
0
  10
0.7798
  20
2.90697
  30
0
  11
0.73228
  21
2.9046
  31
0
  0
LINE
  8
0
  10
0.73228
  20
2.9046
  30
0
  11
0.68409
  21
2.90424
  31
0
  0
LINE
  8
0
  10
0.68409
  20
2.90424
  30
0
  11
0.63532
  21
2.90574
  31
0
  0
LINE
  8
0
  10
0.63532
  20
2.90574
  30
0
  11
0.57557
  21
3.09163
  31
0
  0
LINE
  8
0
  10
0.57557
  20
3.09163
  30
0
  11
0.61433
  21
3.12127
  31
0
  0
LINE
  8
0
  10
0.61433
  20
3.12127
  30
0
  11
0.6537
  21
3.14905
  31
0
  0
LINE
  8
0
  10
0.6537
  20
3.14905
  30
0
  11
0.69371
  21
3.17482
  31
0
  0
LINE
  8
0
  10
0.69371
  20
3.17482
  30
0
  11
0.7344
  21
3.1983
  31
0
  0
LINE
  8
0
  10
0.7344
  20
3.1983
  30
0
  11
0.77587
  21
3.21905
  31
0
  0
LINE
  8
0
  10
0.77587
  20
3.21905
  30
0
  11
0.79698
  21
3.2281
  31
0
  0
LINE
  8
0
  10
0.79698
  20
3.2281
  30
0
  11
0.80766
  21
3.23216
  31
0
  0
LINE
  8
0
  10
0.80766
  20
3.23216
  30
0
  11
0.81847
  21
3.23573
  31
0
  0
LINE
  8
0
  10
0.81847
  20
3.23573
  30
0
  11
0.76821
  21
3.44802
  31
0
  0
LINE
  8
0
  10
0.76821
  20
3.44802
  30
0
  11
0.75694
  21
3.44636
  31
0
  0
LINE
  8
0
  10
0.75694
  20
3.44636
  30
0
  11
0.74557
  21
3.44521
  31
0
  0
LINE
  8
0
  10
0.74557
  20
3.44521
  30
0
  11
0.72265
  21
3.44383
  31
0
  0
LINE
  8
0
  10
0.72265
  20
3.44383
  30
0
  11
0.67628
  21
3.44378
  31
0
  0
LINE
  8
0
  10
0.67628
  20
3.44378
  30
0
  11
0.62938
  21
3.44653
  31
0
  0
LINE
  8
0
  10
0.62938
  20
3.44653
  30
0
  11
0.58206
  21
3.45162
  31
0
  0
LINE
  8
0
  10
0.58206
  20
3.45162
  30
0
  11
0.53441
  21
3.4588
  31
0
  0
LINE
  8
0
  10
0.53441
  20
3.4588
  30
0
  11
0.48648
  21
3.46792
  31
0
  0
LINE
  8
0
  10
0.48648
  20
3.46792
  30
0
  11
0.45654
  21
3.66086
  31
0
  0
LINE
  8
0
  10
0.45654
  20
3.66086
  30
0
  11
0.49946
  21
3.68407
  31
0
  0
LINE
  8
0
  10
0.49946
  20
3.68407
  30
0
  11
0.54269
  21
3.70535
  31
0
  0
LINE
  8
0
  10
0.54269
  20
3.70535
  30
0
  11
0.58624
  21
3.72454
  31
0
  0
LINE
  8
0
  10
0.58624
  20
3.72454
  30
0
  11
0.6301
  21
3.74137
  31
0
  0
LINE
  8
0
  10
0.6301
  20
3.74137
  30
0
  11
0.67431
  21
3.75538
  31
0
  0
LINE
  8
0
  10
0.67431
  20
3.75538
  30
0
  11
0.69657
  21
3.76101
  31
0
  0
LINE
  8
0
  10
0.69657
  20
3.76101
  30
0
  11
0.70776
  21
3.76336
  31
0
  0
LINE
  8
0
  10
0.70776
  20
3.76336
  30
0
  11
0.71899
  21
3.76519
  31
0
  0
LINE
  8
0
  10
0.71899
  20
3.76519
  30
0
  11
0.70256
  21
3.98273
  31
0
  0
LINE
  8
0
  10
8.26487
  20
4.13244
  30
0
  11
8.26487
  21
4.13244
  31
0
  0
LINE
  8
0
  10
8.26487
  20
4.13244
  30
0
  11
8.22952
  21
4.67183
  31
0
  0
LINE
  8
0
  10
8.22952
  20
4.67183
  30
0
  11
8.12406
  21
5.20199
  31
0
  0
LINE
  8
0
  10
8.12406
  20
5.20199
  30
0
  11
7.95031
  21
5.71385
  31
0
  0
LINE
  8
0
  10
7.95031
  20
5.71385
  30
0
  11
7.71123
  21
6.19866
  31
0
  0
LINE
  8
0
  10
7.71123
  20
6.19866
  30
0
  11
7.41092
  21
6.64811
  31
0
  0
LINE
  8
0
  10
7.41092
  20
6.64811
  30
0
  11
7.05451
  21
7.05451
  31
0
  0
LINE
  8
0
  10
7.05451
  20
7.05451
  30
0
  11
6.64811
  21
7.41092
  31
0
  0
LINE
  8
0
  10
6.64811
  20
7.41092
  30
0
  11
6.19866
  21
7.71123
  31
0
  0
LINE
  8
0
  10
6.19866
  20
7.71123
  30
0
  11
5.71385
  21
7.95031
  31
0
  0
LINE
  8
0
  10
5.71385
  20
7.95031
  30
0
  11
5.20199
  21
8.12406
  31
0
  0
LINE
  8
0
  10
5.20199
  20
8.12406
  30
0
  11
4.67183
  21
8.22952
  31
0
  0
LINE
  8
0
  10
4.67183
  20
8.22952
  30
0
  11
4.13244
  21
8.26487
  31
0
  0
LINE
  8
0
  10
4.13244
  20
8.26487
  30
0
  11
3.59305
  21
8.22952
  31
0
  0
LINE
  8
0
  10
3.59305
  20
8.22952
  30
0
  11
3.06288
  21
8.12406
  31
0
  0
LINE
  8
0
  10
3.06288
  20
8.12406
  30
0
  11
2.55102
  21
7.95031
  31
0
  0
LINE
  8
0
  10
2.55102
  20
7.95031
  30
0
  11
2.06622
  21
7.71123
  31
0
  0
LINE
  8
0
  10
2.06622
  20
7.71123
  30
0
  11
1.61677
  21
7.41092
  31
0
  0
LINE
  8
0
  10
1.61677
  20
7.41092
  30
0
  11
1.21036
  21
7.05451
  31
0
  0
LINE
  8
0
  10
1.21036
  20
7.05451
  30
0
  11
0.85395
  21
6.64811
  31
0
  0
LINE
  8
0
  10
0.85395
  20
6.64811
  30
0
  11
0.55364
  21
6.19866
  31
0
  0
LINE
  8
0
  10
0.55364
  20
6.19866
  30
0
  11
0.31456
  21
5.71385
  31
0
  0
LINE
  8
0
  10
0.31456
  20
5.71385
  30
0
  11
0.14081
  21
5.20199
  31
0
  0
LINE
  8
0
  10
0.14081
  20
5.20199
  30
0
  11
0.03535
  21
4.67183
  31
0
  0
LINE
  8
0
  10
0.03535
  20
4.67183
  30
0
  11
0
  21
4.13244
  31
0
  0
LINE
  8
0
  10
0
  20
4.13244
  30
0
  11
0.03535
  21
3.59305
  31
0
  0
LINE
  8
0
  10
0.03535
  20
3.59305
  30
0
  11
0.14081
  21
3.06288
  31
0
  0
LINE
  8
0
  10
0.14081
  20
3.06288
  30
0
  11
0.31456
  21
2.55102
  31
0
  0
LINE
  8
0
  10
0.31456
  20
2.55102
  30
0
  11
0.55364
  21
2.06622
  31
0
  0
LINE
  8
0
  10
0.55364
  20
2.06622
  30
0
  11
0.85395
  21
1.61677
  31
0
  0
LINE
  8
0
  10
0.85395
  20
1.61677
  30
0
  11
1.21036
  21
1.21036
  31
0
  0
LINE
  8
0
  10
1.21036
  20
1.21036
  30
0
  11
1.61677
  21
0.85395
  31
0
  0
LINE
  8
0
  10
1.61677
  20
0.85395
  30
0
  11
2.06622
  21
0.55364
  31
0
  0
LINE
  8
0
  10
2.06622
  20
0.55364
  30
0
  11
2.55102
  21
0.31456
  31
0
  0
LINE
  8
0
  10
2.55102
  20
0.31456
  30
0
  11
3.06288
  21
0.14081
  31
0
  0
LINE
  8
0
  10
3.06288
  20
0.14081
  30
0
  11
3.59305
  21
0.03535
  31
0
  0
LINE
  8
0
  10
3.59305
  20
0.03535
  30
0
  11
4.13244
  21
0
  31
0
  0
LINE
  8
0
  10
4.13244
  20
0
  30
0
  11
4.67183
  21
0.03535
  31
0
  0
LINE
  8
0
  10
4.67183
  20
0.03535
  30
0
  11
5.20199
  21
0.14081
  31
0
  0
LINE
  8
0
  10
5.20199
  20
0.14081
  30
0
  11
5.71385
  21
0.31456
  31
0
  0
LINE
  8
0
  10
5.71385
  20
0.31456
  30
0
  11
6.19866
  21
0.55364
  31
0
  0
LINE
  8
0
  10
6.19866
  20
0.55364
  30
0
  11
6.64811
  21
0.85395
  31
0
  0
LINE
  8
0
  10
6.64811
  20
0.85395
  30
0
  11
7.05451
  21
1.21036
  31
0
  0
LINE
  8
0
  10
7.05451
  20
1.21036
  30
0
  11
7.41092
  21
1.61677
  31
0
  0
LINE
  8
0
  10
7.41092
  20
1.61677
  30
0
  11
7.71123
  21
2.06622
  31
0
  0
LINE
  8
0
  10
7.71123
  20
2.06622
  30
0
  11
7.95031
  21
2.55102
  31
0
  0
LINE
  8
0
  10
7.95031
  20
2.55102
  30
0
  11
8.12406
  21
3.06288
  31
0
  0
LINE
  8
0
  10
8.12406
  20
3.06288
  30
0
  11
8.22952
  21
3.59305
  31
0
  0
LINE
  8
0
  10
8.22952
  20
3.59305
  30
0
  11
8.26487
  21
4.13244
  31
0
  0
LINE
  8
0
  10
8.26487
  20
4.13244
  30
0
  11
8.26487
  21
4.13244
  31
0
  0
LINE
  8
0
  10
4.63244
  20
4.13244
  30
0
  11
4.63244
  21
4.13244
  31
0
  0
LINE
  8
0
  10
4.63244
  20
4.13244
  30
0
  11
4.6154
  21
4.26185
  31
0
  0
LINE
  8
0
  10
4.6154
  20
4.26185
  30
0
  11
4.56545
  21
4.38244
  31
0
  0
LINE
  8
0
  10
4.56545
  20
4.38244
  30
0
  11
4.48599
  21
4.48599
  31
0
  0
LINE
  8
0
  10
4.48599
  20
4.48599
  30
0
  11
4.38244
  21
4.56545
  31
0
  0
LINE
  8
0
  10
4.38244
  20
4.56545
  30
0
  11
4.26185
  21
4.6154
  31
0
  0
LINE
  8
0
  10
4.26185
  20
4.6154
  30
0
  11
4.13244
  21
4.63244
  31
0
  0
LINE
  8
0
  10
4.13244
  20
4.63244
  30
0
  11
4.00303
  21
4.6154
  31
0
  0
LINE
  8
0
  10
4.00303
  20
4.6154
  30
0
  11
3.88244
  21
4.56545
  31
0
  0
LINE
  8
0
  10
3.88244
  20
4.56545
  30
0
  11
3.77888
  21
4.48599
  31
0
  0
LINE
  8
0
  10
3.77888
  20
4.48599
  30
0
  11
3.69942
  21
4.38244
  31
0
  0
LINE
  8
0
  10
3.69942
  20
4.38244
  30
0
  11
3.64947
  21
4.26185
  31
0
  0
LINE
  8
0
  10
3.64947
  20
4.26185
  30
0
  11
3.63244
  21
4.13244
  31
0
  0
LINE
  8
0
  10
3.63244
  20
4.13244
  30
0
  11
3.64947
  21
4.00303
  31
0
  0
LINE
  8
0
  10
3.64947
  20
4.00303
  30
0
  11
3.69942
  21
3.88244
  31
0
  0
LINE
  8
0
  10
3.69942
  20
3.88244
  30
0
  11
3.77888
  21
3.77888
  31
0
  0
LINE
  8
0
  10
3.77888
  20
3.77888
  30
0
  11
3.88244
  21
3.69942
  31
0
  0
LINE
  8
0
  10
3.88244
  20
3.69942
  30
0
  11
4.00303
  21
3.64947
  31
0
  0
LINE
  8
0
  10
4.00303
  20
3.64947
  30
0
  11
4.13244
  21
3.63244
  31
0
  0
LINE
  8
0
  10
4.13244
  20
3.63244
  30
0
  11
4.26185
  21
3.64947
  31
0
  0
LINE
  8
0
  10
4.26185
  20
3.64947
  30
0
  11
4.38244
  21
3.69942
  31
0
  0
LINE
  8
0
  10
4.38244
  20
3.69942
  30
0
  11
4.48599
  21
3.77888
  31
0
  0
LINE
  8
0
  10
4.48599
  20
3.77888
  30
0
  11
4.56545
  21
3.88244
  31
0
  0
LINE
  8
0
  10
4.56545
  20
3.88244
  30
0
  11
4.6154
  21
4.00303
  31
0
  0
LINE
  8
0
  10
4.6154
  20
4.00303
  30
0
  11
4.63244
  21
4.13244
  31
0
  0
LINE
  8
0
  10
4.63244
  20
4.13244
  30
0
  11
4.63244
  21
4.13244
  31
0
  0
LINE
  8
0
  10
0.69931
  20
4.14322
  30
0
  11
0.42643
  21
4.14408
  31
0
  0
LINE
  8
0
  10
0.74327
  20
4.68015
  30
0
  11
0.47388
  21
4.72368
  31
0
  0
LINE
  8
0
  10
0.87067
  20
5.20359
  30
0
  11
0.61142
  21
5.28873
  31
0
  0
LINE
  8
0
  10
1.0784
  20
5.70065
  30
0
  11
0.83565
  21
5.8253
  31
0
  0
LINE
  8
0
  10
1.36132
  20
6.1591
  30
0
  11
1.14106
  21
6.32019
  31
0
  0
LINE
  8
0
  10
1.71248
  20
6.56765
  30
0
  11
1.52013
  21
6.76121
  31
0
  0
LINE
  8
0
  10
2.12322
  20
6.91623
  30
0
  11
1.96352
  21
7.1375
  31
0
  0
LINE
  8
0
  10
2.58344
  20
7.19627
  30
0
  11
2.46032
  21
7.4398
  31
0
  0
LINE
  8
0
  10
3.0818
  20
7.40087
  30
0
  11
2.99829
  21
7.66065
  31
0
  0
LINE
  8
0
  10
3.60603
  20
7.52498
  30
0
  11
3.56419
  21
7.79463
  31
0
  0
LINE
  8
0
  10
4.14322
  20
7.56556
  30
0
  11
4.14408
  21
7.83844
  31
0
  0
LINE
  8
0
  10
4.68015
  20
7.52161
  30
0
  11
4.72368
  21
7.79099
  31
0
  0
LINE
  8
0
  10
5.20359
  20
7.3942
  30
0
  11
5.28873
  21
7.65346
  31
0
  0
LINE
  8
0
  10
5.70065
  20
7.18648
  30
0
  11
5.8253
  21
7.42922
  31
0
  0
LINE
  8
0
  10
6.1591
  20
6.90355
  30
0
  11
6.32019
  21
7.12381
  31
0
  0
LINE
  8
0
  10
6.56765
  20
6.5524
  30
0
  11
6.76121
  21
6.74474
  31
0
  0
LINE
  8
0
  10
6.91623
  20
6.14165
  30
0
  11
7.1375
  21
6.30135
  31
0
  0
LINE
  8
0
  10
7.19627
  20
5.68143
  30
0
  11
7.4398
  21
5.80455
  31
0
  0
LINE
  8
0
  10
7.40087
  20
5.18307
  30
0
  11
7.66065
  21
5.26658
  31
0
  0
LINE
  8
0
  10
7.52498
  20
4.65884
  30
0
  11
7.79463
  21
4.70068
  31
0
  0
LINE
  8
0
  10
7.56556
  20
4.12165
  30
0
  11
7.83844
  21
4.12079
  31
0
  0
LINE
  8
0
  10
7.52161
  20
3.58473
  30
0
  11
7.79099
  21
3.54119
  31
0
  0
LINE
  8
0
  10
7.3942
  20
3.06129
  30
0
  11
7.65346
  21
2.97615
  31
0
  0
LINE
  8
0
  10
7.18648
  20
2.56422
  30
0
  11
7.42922
  21
2.43957
  31
0
  0
LINE
  8
0
  10
6.90355
  20
2.10577
  30
0
  11
7.12381
  21
1.94468
  31
0
  0
LINE
  8
0
  10
6.5524
  20
1.69722
  30
0
  11
6.74474
  21
1.50366
  31
0
  0
LINE
  8
0
  10
6.14165
  20
1.34864
  30
0
  11
6.30135
  21
1.12737
  31
0
  0
LINE
  8
0
  10
5.68143
  20
1.0686
  30
0
  11
5.80455
  21
0.82508
  31
0
  0
LINE
  8
0
  10
5.18307
  20
0.86401
  30
0
  11
5.26658
  21
0.60422
  31
0
  0
LINE
  8
0
  10
4.65884
  20
0.73989
  30
0
  11
4.70068
  21
0.47024
  31
0
  0
LINE
  8
0
  10
4.12165
  20
0.69931
  30
0
  11
4.12079
  21
0.42643
  31
0
  0
LINE
  8
0
  10
3.58473
  20
0.74327
  30
0
  11
3.54119
  21
0.47388
  31
0
  0
LINE
  8
0
  10
3.06129
  20
0.87067
  30
0
  11
2.97615
  21
0.61142
  31
0
  0
LINE
  8
0
  10
2.56422
  20
1.0784
  30
0
  11
2.43957
  21
0.83565
  31
0
  0
LINE
  8
0
  10
2.10577
  20
1.36132
  30
0
  11
1.94468
  21
1.14106
  31
0
  0
LINE
  8
0
  10
1.69722
  20
1.71248
  30
0
  11
1.50366
  21
1.52013
  31
0
  0
LINE
  8
0
  10
1.34864
  20
2.12322
  30
0
  11
1.12737
  21
1.96352
  31
0
  0
LINE
  8
0
  10
1.0686
  20
2.58344
  30
0
  11
0.82508
  21
2.46032
  31
0
  0
LINE
  8
0
  10
0.86401
  20
3.0818
  30
0
  11
0.60422
  21
2.99829
  31
0
  0
LINE
  8
0
  10
0.73989
  20
3.60603
  30
0
  11
0.47024
  21
3.56419
  31
0
  0
LINE
  8
0
  10
7.70387
  20
4.13244
  30
0
  11
7.70387
  21
4.13244
  31
0
  0
LINE
  8
0
  10
7.70387
  20
4.13244
  30
0
  11
7.69683
  21
4.35669
  31
0
  0
LINE
  8
0
  10
7.69683
  20
4.35669
  30
0
  11
7.67571
  21
4.58006
  31
0
  0
LINE
  8
0
  10
7.67571
  20
4.58006
  30
0
  11
7.64061
  21
4.80166
  31
0
  0
LINE
  8
0
  10
7.64061
  20
4.80166
  30
0
  11
7.59167
  21
5.02062
  31
0
  0
LINE
  8
0
  10
7.59167
  20
5.02062
  30
0
  11
7.52908
  21
5.23607
  31
0
  0
LINE
  8
0
  10
7.52908
  20
5.23607
  30
0
  11
7.45307
  21
5.44717
  31
0
  0
LINE
  8
0
  10
7.45307
  20
5.44717
  30
0
  11
7.36397
  21
5.65308
  31
0
  0
LINE
  8
0
  10
7.36397
  20
5.65308
  30
0
  11
7.26211
  21
5.85299
  31
0
  0
LINE
  8
0
  10
7.26211
  20
5.85299
  30
0
  11
7.1479
  21
6.04611
  31
0
  0
LINE
  8
0
  10
7.1479
  20
6.04611
  30
0
  11
7.02179
  21
6.23167
  31
0
  0
LINE
  8
0
  10
7.02179
  20
6.23167
  30
0
  11
6.88428
  21
6.40896
  31
0
  0
LINE
  8
0
  10
6.88428
  20
6.40896
  30
0
  11
6.7359
  21
6.57725
  31
0
  0
LINE
  8
0
  10
6.7359
  20
6.57725
  30
0
  11
6.57725
  21
6.7359
  31
0
  0
LINE
  8
0
  10
6.57725
  20
6.7359
  30
0
  11
6.40896
  21
6.88428
  31
0
  0
LINE
  8
0
  10
6.40896
  20
6.88428
  30
0
  11
6.23167
  21
7.02179
  31
0
  0
LINE
  8
0
  10
6.23167
  20
7.02179
  30
0
  11
6.04611
  21
7.1479
  31
0
  0
LINE
  8
0
  10
6.04611
  20
7.1479
  30
0
  11
5.85299
  21
7.26211
  31
0
  0
LINE
  8
0
  10
5.85299
  20
7.26211
  30
0
  11
5.65308
  21
7.36397
  31
0
  0
LINE
  8
0
  10
5.65308
  20
7.36397
  30
0
  11
5.44717
  21
7.45307
  31
0
  0
LINE
  8
0
  10
5.44717
  20
7.45307
  30
0
  11
5.23607
  21
7.52908
  31
0
  0
LINE
  8
0
  10
5.23607
  20
7.52908
  30
0
  11
5.02062
  21
7.59167
  31
0
  0
LINE
  8
0
  10
5.02062
  20
7.59167
  30
0
  11
4.80166
  21
7.64061
  31
0
  0
LINE
  8
0
  10
4.80166
  20
7.64061
  30
0
  11
4.58006
  21
7.67571
  31
0
  0
LINE
  8
0
  10
4.58006
  20
7.67571
  30
0
  11
4.35669
  21
7.69683
  31
0
  0
LINE
  8
0
  10
4.35669
  20
7.69683
  30
0
  11
4.13244
  21
7.70387
  31
0
  0
LINE
  8
0
  10
4.13244
  20
7.70387
  30
0
  11
3.90818
  21
7.69683
  31
0
  0
LINE
  8
0
  10
3.90818
  20
7.69683
  30
0
  11
3.68482
  21
7.67571
  31
0
  0
LINE
  8
0
  10
3.68482
  20
7.67571
  30
0
  11
3.46322
  21
7.64061
  31
0
  0
LINE
  8
0
  10
3.46322
  20
7.64061
  30
0
  11
3.24426
  21
7.59167
  31
0
  0
LINE
  8
0
  10
3.24426
  20
7.59167
  30
0
  11
3.0288
  21
7.52908
  31
0
  0
LINE
  8
0
  10
3.0288
  20
7.52908
  30
0
  11
2.8177
  21
7.45307
  31
0
  0
LINE
  8
0
  10
2.8177
  20
7.45307
  30
0
  11
2.61179
  21
7.36397
  31
0
  0
LINE
  8
0
  10
2.61179
  20
7.36397
  30
0
  11
2.41188
  21
7.26211
  31
0
  0
LINE
  8
0
  10
2.41188
  20
7.26211
  30
0
  11
2.21877
  21
7.1479
  31
0
  0
LINE
  8
0
  10
2.21877
  20
7.1479
  30
0
  11
2.0332
  21
7.02179
  31
0
  0
LINE
  8
0
  10
2.0332
  20
7.02179
  30
0
  11
1.85592
  21
6.88428
  31
0
  0
LINE
  8
0
  10
1.85592
  20
6.88428
  30
0
  11
1.68762
  21
6.7359
  31
0
  0
LINE
  8
0
  10
1.68762
  20
6.7359
  30
0
  11
1.52897
  21
6.57725
  31
0
  0
LINE
  8
0
  10
1.52897
  20
6.57725
  30
0
  11
1.3806
  21
6.40896
  31
0
  0
LINE
  8
0
  10
1.3806
  20
6.40896
  30
0
  11
1.24308
  21
6.23167
  31
0
  0
LINE
  8
0
  10
1.24308
  20
6.23167
  30
0
  11
1.11697
  21
6.04611
  31
0
  0
LINE
  8
0
  10
1.11697
  20
6.04611
  30
0
  11
1.00276
  21
5.85299
  31
0
  0
LINE
  8
0
  10
1.00276
  20
5.85299
  30
0
  11
0.9009
  21
5.65308
  31
0
  0
LINE
  8
0
  10
0.9009
  20
5.65308
  30
0
  11
0.8118
  21
5.44717
  31
0
  0
LINE
  8
0
  10
0.8118
  20
5.44717
  30
0
  11
0.7358
  21
5.23607
  31
0
  0
LINE
  8
0
  10
0.7358
  20
5.23607
  30
0
  11
0.6732
  21
5.02062
  31
0
  0
LINE
  8
0
  10
0.6732
  20
5.02062
  30
0
  11
0.62426
  21
4.80166
  31
0
  0
LINE
  8
0
  10
0.62426
  20
4.80166
  30
0
  11
0.58916
  21
4.58006
  31
0
  0
LINE
  8
0
  10
0.58916
  20
4.58006
  30
0
  11
0.56805
  21
4.35669
  31
0
  0
LINE
  8
0
  10
0.56805
  20
4.35669
  30
0
  11
0.561
  21
4.13244
  31
0
  0
LINE
  8
0
  10
0.561
  20
4.13244
  30
0
  11
0.56805
  21
3.90818
  31
0
  0
LINE
  8
0
  10
0.56805
  20
3.90818
  30
0
  11
0.58916
  21
3.68482
  31
0
  0
LINE
  8
0
  10
0.58916
  20
3.68482
  30
0
  11
0.62426
  21
3.46322
  31
0
  0
LINE
  8
0
  10
0.62426
  20
3.46322
  30
0
  11
0.6732
  21
3.24426
  31
0
  0
LINE
  8
0
  10
0.6732
  20
3.24426
  30
0
  11
0.7358
  21
3.0288
  31
0
  0
LINE
  8
0
  10
0.7358
  20
3.0288
  30
0
  11
0.8118
  21
2.8177
  31
0
  0
LINE
  8
0
  10
0.8118
  20
2.8177
  30
0
  11
0.9009
  21
2.61179
  31
0
  0
LINE
  8
0
  10
0.9009
  20
2.61179
  30
0
  11
1.00276
  21
2.41188
  31
0
  0
LINE
  8
0
  10
1.00276
  20
2.41188
  30
0
  11
1.11697
  21
2.21877
  31
0
  0
LINE
  8
0
  10
1.11697
  20
2.21877
  30
0
  11
1.24308
  21
2.0332
  31
0
  0
LINE
  8
0
  10
1.24308
  20
2.0332
  30
0
  11
1.3806
  21
1.85592
  31
0
  0
LINE
  8
0
  10
1.3806
  20
1.85592
  30
0
  11
1.52897
  21
1.68762
  31
0
  0
LINE
  8
0
  10
1.52897
  20
1.68762
  30
0
  11
1.68762
  21
1.52897
  31
0
  0
LINE
  8
0
  10
1.68762
  20
1.52897
  30
0
  11
1.85592
  21
1.3806
  31
0
  0
LINE
  8
0
  10
1.85592
  20
1.3806
  30
0
  11
2.0332
  21
1.24308
  31
0
  0
LINE
  8
0
  10
2.0332
  20
1.24308
  30
0
  11
2.21877
  21
1.11697
  31
0
  0
LINE
  8
0
  10
2.21877
  20
1.11697
  30
0
  11
2.41188
  21
1.00276
  31
0
  0
LINE
  8
0
  10
2.41188
  20
1.00276
  30
0
  11
2.61179
  21
0.9009
  31
0
  0
LINE
  8
0
  10
2.61179
  20
0.9009
  30
0
  11
2.8177
  21
0.8118
  31
0
  0
LINE
  8
0
  10
2.8177
  20
0.8118
  30
0
  11
3.0288
  21
0.7358
  31
0
  0
LINE
  8
0
  10
3.0288
  20
0.7358
  30
0
  11
3.24426
  21
0.6732
  31
0
  0
LINE
  8
0
  10
3.24426
  20
0.6732
  30
0
  11
3.46322
  21
0.62426
  31
0
  0
LINE
  8
0
  10
3.46322
  20
0.62426
  30
0
  11
3.68482
  21
0.58916
  31
0
  0
LINE
  8
0
  10
3.68482
  20
0.58916
  30
0
  11
3.90818
  21
0.56805
  31
0
  0
LINE
  8
0
  10
3.90818
  20
0.56805
  30
0
  11
4.13244
  21
0.561
  31
0
  0
LINE
  8
0
  10
4.13244
  20
0.561
  30
0
  11
4.35669
  21
0.56805
  31
0
  0
LINE
  8
0
  10
4.35669
  20
0.56805
  30
0
  11
4.58006
  21
0.58916
  31
0
  0
LINE
  8
0
  10
4.58006
  20
0.58916
  30
0
  11
4.80166
  21
0.62426
  31
0
  0
LINE
  8
0
  10
4.80166
  20
0.62426
  30
0
  11
5.02062
  21
0.6732
  31
0
  0
LINE
  8
0
  10
5.02062
  20
0.6732
  30
0
  11
5.23607
  21
0.7358
  31
0
  0
LINE
  8
0
  10
5.23607
  20
0.7358
  30
0
  11
5.44717
  21
0.8118
  31
0
  0
LINE
  8
0
  10
5.44717
  20
0.8118
  30
0
  11
5.65308
  21
0.9009
  31
0
  0
LINE
  8
0
  10
5.65308
  20
0.9009
  30
0
  11
5.85299
  21
1.00276
  31
0
  0
LINE
  8
0
  10
5.85299
  20
1.00276
  30
0
  11
6.04611
  21
1.11697
  31
0
  0
LINE
  8
0
  10
6.04611
  20
1.11697
  30
0
  11
6.23167
  21
1.24308
  31
0
  0
LINE
  8
0
  10
6.23167
  20
1.24308
  30
0
  11
6.40896
  21
1.3806
  31
0
  0
LINE
  8
0
  10
6.40896
  20
1.3806
  30
0
  11
6.57725
  21
1.52897
  31
0
  0
LINE
  8
0
  10
6.57725
  20
1.52897
  30
0
  11
6.7359
  21
1.68762
  31
0
  0
LINE
  8
0
  10
6.7359
  20
1.68762
  30
0
  11
6.88428
  21
1.85592
  31
0
  0
LINE
  8
0
  10
6.88428
  20
1.85592
  30
0
  11
7.02179
  21
2.0332
  31
0
  0
LINE
  8
0
  10
7.02179
  20
2.0332
  30
0
  11
7.1479
  21
2.21877
  31
0
  0
LINE
  8
0
  10
7.1479
  20
2.21877
  30
0
  11
7.26211
  21
2.41188
  31
0
  0
LINE
  8
0
  10
7.26211
  20
2.41188
  30
0
  11
7.36397
  21
2.61179
  31
0
  0
LINE
  8
0
  10
7.36397
  20
2.61179
  30
0
  11
7.45307
  21
2.8177
  31
0
  0
LINE
  8
0
  10
7.45307
  20
2.8177
  30
0
  11
7.52908
  21
3.0288
  31
0
  0
LINE
  8
0
  10
7.52908
  20
3.0288
  30
0
  11
7.59167
  21
3.24426
  31
0
  0
LINE
  8
0
  10
7.59167
  20
3.24426
  30
0
  11
7.64061
  21
3.46322
  31
0
  0
LINE
  8
0
  10
7.64061
  20
3.46322
  30
0
  11
7.67571
  21
3.68482
  31
0
  0
LINE
  8
0
  10
7.67571
  20
3.68482
  30
0
  11
7.69683
  21
3.90818
  31
0
  0
LINE
  8
0
  10
7.69683
  20
3.90818
  30
0
  11
7.70387
  21
4.13244
  31
0
  0
LINE
  8
0
  10
7.70387
  20
4.13244
  30
0
  11
7.70387
  21
4.13244
  31
0
  0
LINE
  8
0
  10
2.8971
  20
4.13244
  30
0
  11
5.36778
  21
4.13244
  31
0
  0
LINE
  8
0
  10
4.13244
  20
2.8971
  30
0
  11
4.13244
  21
5.36778
  31
0
  0
LINE
  8
0
  10
0.70914
  20
3.99723
  30
0
  11
0.70914
  21
3.99723
  31
0
  0
LINE
  8
0
  10
0.70914
  20
3.99723
  30
0
  11
0.70326
  21
4.00638
  31
0
  0
LINE
  8
0
  10
0.70326
  20
4.00638
  30
0
  11
0.69826
  21
4.00945
  31
0
  0
LINE
  8
0
  10
0.69826
  20
4.00945
  30
0
  11
0.69342
  21
4.01142
  31
0
  0
LINE
  8
0
  10
0.69342
  20
4.01142
  30
0
  11
0.68866
  21
4.01277
  31
0
  0
LINE
  8
0
  10
0.68866
  20
4.01277
  30
0
  11
0.68396
  21
4.01371
  31
0
  0
LINE
  8
0
  10
0.68396
  20
4.01371
  30
0
  11
0.6793
  21
4.01434
  31
0
  0
LINE
  8
0
  10
0.6793
  20
4.01434
  30
0
  11
0.67007
  21
4.01487
  31
0
  0
LINE
  8
0
  10
0.67007
  20
4.01487
  30
0
  11
0.66093
  21
4.01466
  31
0
  0
LINE
  8
0
  10
0.66093
  20
4.01466
  30
0
  11
0.65186
  21
4.01386
  31
0
  0
LINE
  8
0
  10
0.65186
  20
4.01386
  30
0
  11
0.6339
  21
4.01086
  31
0
  0
LINE
  8
0
  10
0.6339
  20
4.01086
  30
0
  11
0.61613
  21
4.00633
  31
0
  0
LINE
  8
0
  10
0.61613
  20
4.00633
  30
0
  11
0.5985
  21
4.00075
  31
0
  0
LINE
  8
0
  10
0.5985
  20
4.00075
  30
0
  11
0.57999
  21
4.00215
  31
0
  0
LINE
  8
0
  10
0.57999
  20
4.00215
  30
0
  11
0.56131
  21
4.00501
  31
0
  0
LINE
  8
0
  10
0.56131
  20
4.00501
  30
0
  11
0.54253
  21
4.00904
  31
0
  0
LINE
  8
0
  10
0.54253
  20
4.00904
  30
0
  11
0.52367
  21
4.01412
  31
0
  0
LINE
  8
0
  10
0.52367
  20
4.01412
  30
0
  11
0.50476
  21
4.02017
  31
0
  0
LINE
  8
0
  10
0.50476
  20
4.02017
  30
0
  11
0.48582
  21
4.02712
  31
0
  0
LINE
  8
0
  10
0.48582
  20
4.02712
  30
0
  11
0.46687
  21
4.03494
  31
0
  0
LINE
  8
0
  10
0.46687
  20
4.03494
  30
0
  11
0.44794
  21
4.0436
  31
0
  0
LINE
  8
0
  10
0.44794
  20
4.0436
  30
0
  11
0.42903
  21
4.05306
  31
0
  0
LINE
  8
0
  10
0.42903
  20
4.05306
  30
0
  11
0.43096
  21
4.237
  31
0
  0
LINE
  8
0
  10
0.43096
  20
4.237
  30
0
  11
0.45006
  21
4.24606
  31
0
  0
LINE
  8
0
  10
0.45006
  20
4.24606
  30
0
  11
0.46917
  21
4.25432
  31
0
  0
LINE
  8
0
  10
0.46917
  20
4.25432
  30
0
  11
0.48828
  21
4.26174
  31
0
  0
LINE
  8
0
  10
0.48828
  20
4.26174
  30
0
  11
0.50736
  21
4.2683
  31
0
  0
LINE
  8
0
  10
0.50736
  20
4.2683
  30
0
  11
0.52639
  21
4.27394
  31
0
  0
LINE
  8
0
  10
0.52639
  20
4.27394
  30
0
  11
0.54535
  21
4.27863
  31
0
  0
LINE
  8
0
  10
0.54535
  20
4.27863
  30
0
  11
0.56422
  21
4.28227
  31
0
  0
LINE
  8
0
  10
0.56422
  20
4.28227
  30
0
  11
0.58294
  21
4.28473
  31
0
  0
LINE
  8
0
  10
0.58294
  20
4.28473
  30
0
  11
0.60148
  21
4.28575
  31
0
  0
LINE
  8
0
  10
0.60148
  20
4.28575
  30
0
  11
0.61899
  21
4.2798
  31
0
  0
LINE
  8
0
  10
0.61899
  20
4.2798
  30
0
  11
0.63667
  21
4.27489
  31
0
  0
LINE
  8
0
  10
0.63667
  20
4.27489
  30
0
  11
0.65456
  21
4.27152
  31
0
  0
LINE
  8
0
  10
0.65456
  20
4.27152
  30
0
  11
0.66361
  21
4.27054
  31
0
  0
LINE
  8
0
  10
0.66361
  20
4.27054
  30
0
  11
0.67274
  21
4.27013
  31
0
  0
LINE
  8
0
  10
0.67274
  20
4.27013
  30
0
  11
0.68198
  21
4.27047
  31
0
  0
LINE
  8
0
  10
0.68198
  20
4.27047
  30
0
  11
0.68665
  21
4.271
  31
0
  0
LINE
  8
0
  10
0.68665
  20
4.271
  30
0
  11
0.69137
  21
4.27184
  31
0
  0
LINE
  8
0
  10
0.69137
  20
4.27184
  30
0
  11
0.69616
  21
4.2731
  31
0
  0
LINE
  8
0
  10
0.69616
  20
4.2731
  30
0
  11
0.70104
  21
4.27496
  31
0
  0
LINE
  8
0
  10
0.70104
  20
4.27496
  30
0
  11
0.7061
  21
4.27792
  31
0
  0
LINE
  8
0
  10
0.7061
  20
4.27792
  30
0
  11
0.71218
  21
4.28695
  31
0
  0
LINE
  8
0
  10
0.71218
  20
4.28695
  30
0
  11
0.76524
  21
4.47699
  31
0
  0
LINE
  8
0
  10
0.76524
  20
4.47699
  30
0
  11
0.76472
  21
4.48786
  31
0
  0
LINE
  8
0
  10
0.76472
  20
4.48786
  30
0
  11
0.76192
  21
4.49301
  31
0
  0
LINE
  8
0
  10
0.76192
  20
4.49301
  30
0
  11
0.75871
  21
4.49714
  31
0
  0
LINE
  8
0
  10
0.75871
  20
4.49714
  30
0
  11
0.75527
  21
4.50069
  31
0
  0
LINE
  8
0
  10
0.75527
  20
4.50069
  30
0
  11
0.75167
  21
4.50385
  31
0
  0
LINE
  8
0
  10
0.75167
  20
4.50385
  30
0
  11
0.74794
  21
4.50673
  31
0
  0
LINE
  8
0
  10
0.74794
  20
4.50673
  30
0
  11
0.74021
  21
4.5118
  31
0
  0
LINE
  8
0
  10
0.74021
  20
4.5118
  30
0
  11
0.7322
  21
4.51619
  31
0
  0
LINE
  8
0
  10
0.7322
  20
4.51619
  30
0
  11
0.72395
  21
4.52003
  31
0
  0
LINE
  8
0
  10
0.72395
  20
4.52003
  30
0
  11
0.70689
  21
4.52642
  31
0
  0
LINE
  8
0
  10
0.70689
  20
4.52642
  30
0
  11
0.68923
  21
4.53137
  31
0
  0
LINE
  8
0
  10
0.68923
  20
4.53137
  30
0
  11
0.67117
  21
4.53536
  31
0
  0
LINE
  8
0
  10
0.67117
  20
4.53536
  30
0
  11
0.65584
  21
4.54583
  31
0
  0
LINE
  8
0
  10
0.65584
  20
4.54583
  30
0
  11
0.6411
  21
4.55764
  31
0
  0
LINE
  8
0
  10
0.6411
  20
4.55764
  30
0
  11
0.62685
  21
4.57052
  31
0
  0
LINE
  8
0
  10
0.62685
  20
4.57052
  30
0
  11
0.61306
  21
4.58436
  31
0
  0
LINE
  8
0
  10
0.61306
  20
4.58436
  30
0
  11
0.5997
  21
4.59905
  31
0
  0
LINE
  8
0
  10
0.5997
  20
4.59905
  30
0
  11
0.58678
  21
4.61454
  31
0
  0
LINE
  8
0
  10
0.58678
  20
4.61454
  30
0
  11
0.57428
  21
4.63078
  31
0
  0
LINE
  8
0
  10
0.57428
  20
4.63078
  30
0
  11
0.56221
  21
4.64775
  31
0
  0
LINE
  8
0
  10
0.56221
  20
4.64775
  30
0
  11
0.55057
  21
4.66539
  31
0
  0
LINE
  8
0
  10
0.55057
  20
4.66539
  30
0
  11
0.64421
  21
4.82373
  31
0
  0
LINE
  8
0
  10
0.64421
  20
4.82373
  30
0
  11
0.66528
  21
4.82203
  31
0
  0
LINE
  8
0
  10
0.66528
  20
4.82203
  30
0
  11
0.68596
  21
4.81962
  31
0
  0
LINE
  8
0
  10
0.68596
  20
4.81962
  30
0
  11
0.70621
  21
4.8165
  31
0
  0
LINE
  8
0
  10
0.70621
  20
4.8165
  30
0
  11
0.72602
  21
4.81263
  31
0
  0
LINE
  8
0
  10
0.72602
  20
4.81263
  30
0
  11
0.74533
  21
4.80801
  31
0
  0
LINE
  8
0
  10
0.74533
  20
4.80801
  30
0
  11
0.76409
  21
4.80258
  31
0
  0
LINE
  8
0
  10
0.76409
  20
4.80258
  30
0
  11
0.78225
  21
4.7963
  31
0
  0
LINE
  8
0
  10
0.78225
  20
4.7963
  30
0
  11
0.7997
  21
4.78907
  31
0
  0
LINE
  8
0
  10
0.7997
  20
4.78907
  30
0
  11
0.81626
  21
4.78069
  31
0
  0
LINE
  8
0
  10
0.81626
  20
4.78069
  30
0
  11
0.82845
  21
4.76678
  31
0
  0
LINE
  8
0
  10
0.82845
  20
4.76678
  30
0
  11
0.8413
  21
4.75369
  31
0
  0
LINE
  8
0
  10
0.8413
  20
4.75369
  30
0
  11
0.85511
  21
4.74182
  31
0
  0
LINE
  8
0
  10
0.85511
  20
4.74182
  30
0
  11
0.86246
  21
4.73645
  31
0
  0
LINE
  8
0
  10
0.86246
  20
4.73645
  30
0
  11
0.87016
  21
4.73153
  31
0
  0
LINE
  8
0
  10
0.87016
  20
4.73153
  30
0
  11
0.87833
  21
4.72721
  31
0
  0
LINE
  8
0
  10
0.87833
  20
4.72721
  30
0
  11
0.88264
  21
4.72533
  31
0
  0
LINE
  8
0
  10
0.88264
  20
4.72533
  30
0
  11
0.88715
  21
4.72369
  31
0
  0
LINE
  8
0
  10
0.88715
  20
4.72369
  30
0
  11
0.89192
  21
4.72239
  31
0
  0
LINE
  8
0
  10
0.89192
  20
4.72239
  30
0
  11
0.89709
  21
4.72156
  31
0
  0
LINE
  8
0
  10
0.89709
  20
4.72156
  30
0
  11
0.90295
  21
4.72159
  31
0
  0
LINE
  8
0
  10
0.90295
  20
4.72159
  30
0
  11
0.91272
  21
4.72637
  31
0
  0
LINE
  8
0
  10
0.91272
  20
4.72637
  30
0
  11
1.0537
  21
4.86443
  31
0
  0
LINE
  8
0
  10
1.0537
  20
4.86443
  30
0
  11
1.05868
  21
4.8741
  31
0
  0
LINE
  8
0
  10
1.05868
  20
4.8741
  30
0
  11
1.05884
  21
4.87996
  31
0
  0
LINE
  8
0
  10
1.05884
  20
4.87996
  30
0
  11
1.05812
  21
4.88514
  31
0
  0
LINE
  8
0
  10
1.05812
  20
4.88514
  30
0
  11
1.05691
  21
4.88993
  31
0
  0
LINE
  8
0
  10
1.05691
  20
4.88993
  30
0
  11
1.05537
  21
4.89448
  31
0
  0
LINE
  8
0
  10
1.05537
  20
4.89448
  30
0
  11
1.05359
  21
4.89883
  31
0
  0
LINE
  8
0
  10
1.05359
  20
4.89883
  30
0
  11
1.04943
  21
4.90708
  31
0
  0
LINE
  8
0
  10
1.04943
  20
4.90708
  30
0
  11
1.04468
  21
4.91489
  31
0
  0
LINE
  8
0
  10
1.04468
  20
4.91489
  30
0
  11
1.03946
  21
4.92235
  31
0
  0
LINE
  8
0
  10
1.03946
  20
4.92235
  30
0
  11
1.02788
  21
4.9364
  31
0
  0
LINE
  8
0
  10
1.02788
  20
4.9364
  30
0
  11
1.01506
  21
4.94952
  31
0
  0
LINE
  8
0
  10
1.01506
  20
4.94952
  30
0
  11
1.00142
  21
4.962
  31
0
  0
LINE
  8
0
  10
1.00142
  20
4.962
  30
0
  11
0.99338
  21
4.97874
  31
0
  0
LINE
  8
0
  10
0.99338
  20
4.97874
  30
0
  11
0.98651
  21
4.99634
  31
0
  0
LINE
  8
0
  10
0.98651
  20
4.99634
  30
0
  11
0.98062
  21
5.01462
  31
0
  0
LINE
  8
0
  10
0.98062
  20
5.01462
  30
0
  11
0.97559
  21
5.0335
  31
0
  0
LINE
  8
0
  10
0.97559
  20
5.0335
  30
0
  11
0.97137
  21
5.0529
  31
0
  0
LINE
  8
0
  10
0.97137
  20
5.0529
  30
0
  11
0.96792
  21
5.07278
  31
0
  0
LINE
  8
0
  10
0.96792
  20
5.07278
  30
0
  11
0.96522
  21
5.09309
  31
0
  0
LINE
  8
0
  10
0.96522
  20
5.09309
  30
0
  11
0.96324
  21
5.11382
  31
0
  0
LINE
  8
0
  10
0.96324
  20
5.11382
  30
0
  11
0.96199
  21
5.13492
  31
0
  0
LINE
  8
0
  10
0.96199
  20
5.13492
  30
0
  11
1.12225
  21
5.22522
  31
0
  0
LINE
  8
0
  10
1.12225
  20
5.22522
  30
0
  11
1.13965
  21
5.21322
  31
0
  0
LINE
  8
0
  10
1.13965
  20
5.21322
  30
0
  11
1.15635
  21
5.20079
  31
0
  0
LINE
  8
0
  10
1.15635
  20
5.20079
  30
0
  11
1.17233
  21
5.18796
  31
0
  0
LINE
  8
0
  10
1.17233
  20
5.18796
  30
0
  11
1.18755
  21
5.17471
  31
0
  0
LINE
  8
0
  10
1.18755
  20
5.17471
  30
0
  11
1.20196
  21
5.16105
  31
0
  0
LINE
  8
0
  10
1.20196
  20
5.16105
  30
0
  11
1.2155
  21
5.14697
  31
0
  0
LINE
  8
0
  10
1.2155
  20
5.14697
  30
0
  11
1.22808
  21
5.13245
  31
0
  0
LINE
  8
0
  10
1.22808
  20
5.13245
  30
0
  11
1.23958
  21
5.11747
  31
0
  0
LINE
  8
0
  10
1.23958
  20
5.11747
  30
0
  11
1.24973
  21
5.10192
  31
0
  0
LINE
  8
0
  10
1.24973
  20
5.10192
  30
0
  11
1.25334
  21
5.08378
  31
0
  0
LINE
  8
0
  10
1.25334
  20
5.08378
  30
0
  11
1.25792
  21
5.06602
  31
0
  0
LINE
  8
0
  10
1.25792
  20
5.06602
  30
0
  11
1.26395
  21
5.04884
  31
0
  0
LINE
  8
0
  10
1.26395
  20
5.04884
  30
0
  11
1.26762
  21
5.04051
  31
0
  0
LINE
  8
0
  10
1.26762
  20
5.04051
  30
0
  11
1.27184
  21
5.0324
  31
0
  0
LINE
  8
0
  10
1.27184
  20
5.0324
  30
0
  11
1.27675
  21
5.02457
  31
0
  0
LINE
  8
0
  10
1.27675
  20
5.02457
  30
0
  11
1.27954
  21
5.02079
  31
0
  0
LINE
  8
0
  10
1.27954
  20
5.02079
  30
0
  11
1.28263
  21
5.01712
  31
0
  0
LINE
  8
0
  10
1.28263
  20
5.01712
  30
0
  11
1.28611
  21
5.0136
  31
0
  0
LINE
  8
0
  10
1.28611
  20
5.0136
  30
0
  11
1.29016
  21
5.01031
  31
0
  0
LINE
  8
0
  10
1.29016
  20
5.01031
  30
0
  11
1.29526
  21
5.0074
  31
0
  0
LINE
  8
0
  10
1.29526
  20
5.0074
  30
0
  11
1.30611
  21
5.00666
  31
0
  0
LINE
  8
0
  10
1.30611
  20
5.00666
  30
0
  11
1.49723
  21
5.05573
  31
0
  0
LINE
  8
0
  10
1.49723
  20
5.05573
  30
0
  11
1.50638
  21
5.06161
  31
0
  0
LINE
  8
0
  10
1.50638
  20
5.06161
  30
0
  11
1.50944
  21
5.06661
  31
0
  0
LINE
  8
0
  10
1.50944
  20
5.06661
  30
0
  11
1.51141
  21
5.07145
  31
0
  0
LINE
  8
0
  10
1.51141
  20
5.07145
  30
0
  11
1.51277
  21
5.07621
  31
0
  0
LINE
  8
0
  10
1.51277
  20
5.07621
  30
0
  11
1.51371
  21
5.08091
  31
0
  0
LINE
  8
0
  10
1.51371
  20
5.08091
  30
0
  11
1.51433
  21
5.08557
  31
0
  0
LINE
  8
0
  10
1.51433
  20
5.08557
  30
0
  11
1.51486
  21
5.0948
  31
0
  0
LINE
  8
0
  10
1.51486
  20
5.0948
  30
0
  11
1.51465
  21
5.10394
  31
0
  0
LINE
  8
0
  10
1.51465
  20
5.10394
  30
0
  11
1.51386
  21
5.11301
  31
0
  0
LINE
  8
0
  10
1.51386
  20
5.11301
  30
0
  11
1.51086
  21
5.13097
  31
0
  0
LINE
  8
0
  10
1.51086
  20
5.13097
  30
0
  11
1.50632
  21
5.14874
  31
0
  0
LINE
  8
0
  10
1.50632
  20
5.14874
  30
0
  11
1.50074
  21
5.16637
  31
0
  0
LINE
  8
0
  10
1.50074
  20
5.16637
  30
0
  11
1.50215
  21
5.18488
  31
0
  0
LINE
  8
0
  10
1.50215
  20
5.18488
  30
0
  11
1.505
  21
5.20355
  31
0
  0
LINE
  8
0
  10
1.505
  20
5.20355
  30
0
  11
1.50904
  21
5.22234
  31
0
  0
LINE
  8
0
  10
1.50904
  20
5.22234
  30
0
  11
1.51412
  21
5.2412
  31
0
  0
LINE
  8
0
  10
1.51412
  20
5.2412
  30
0
  11
1.52016
  21
5.26011
  31
0
  0
LINE
  8
0
  10
1.52016
  20
5.26011
  30
0
  11
1.52712
  21
5.27905
  31
0
  0
LINE
  8
0
  10
1.52712
  20
5.27905
  30
0
  11
1.53494
  21
5.298
  31
0
  0
LINE
  8
0
  10
1.53494
  20
5.298
  30
0
  11
1.54359
  21
5.31693
  31
0
  0
LINE
  8
0
  10
1.54359
  20
5.31693
  30
0
  11
1.55305
  21
5.33584
  31
0
  0
LINE
  8
0
  10
1.55305
  20
5.33584
  30
0
  11
1.73699
  21
5.33391
  31
0
  0
LINE
  8
0
  10
1.73699
  20
5.33391
  30
0
  11
1.74606
  21
5.31481
  31
0
  0
LINE
  8
0
  10
1.74606
  20
5.31481
  30
0
  11
1.75431
  21
5.2957
  31
0
  0
LINE
  8
0
  10
1.75431
  20
5.2957
  30
0
  11
1.76173
  21
5.27659
  31
0
  0
LINE
  8
0
  10
1.76173
  20
5.27659
  30
0
  11
1.76829
  21
5.25751
  31
0
  0
LINE
  8
0
  10
1.76829
  20
5.25751
  30
0
  11
1.77394
  21
5.23848
  31
0
  0
LINE
  8
0
  10
1.77394
  20
5.23848
  30
0
  11
1.77862
  21
5.21951
  31
0
  0
LINE
  8
0
  10
1.77862
  20
5.21951
  30
0
  11
1.78227
  21
5.20065
  31
0
  0
LINE
  8
0
  10
1.78227
  20
5.20065
  30
0
  11
1.78473
  21
5.18192
  31
0
  0
LINE
  8
0
  10
1.78473
  20
5.18192
  30
0
  11
1.78575
  21
5.16339
  31
0
  0
LINE
  8
0
  10
1.78575
  20
5.16339
  30
0
  11
1.7798
  21
5.14587
  31
0
  0
LINE
  8
0
  10
1.7798
  20
5.14587
  30
0
  11
1.77489
  21
5.1282
  31
0
  0
LINE
  8
0
  10
1.77489
  20
5.1282
  30
0
  11
1.77151
  21
5.11031
  31
0
  0
LINE
  8
0
  10
1.77151
  20
5.11031
  30
0
  11
1.77053
  21
5.10126
  31
0
  0
LINE
  8
0
  10
1.77053
  20
5.10126
  30
0
  11
1.77013
  21
5.09213
  31
0
  0
LINE
  8
0
  10
1.77013
  20
5.09213
  30
0
  11
1.77047
  21
5.08289
  31
0
  0
LINE
  8
0
  10
1.77047
  20
5.08289
  30
0
  11
1.77099
  21
5.07822
  31
0
  0
LINE
  8
0
  10
1.77099
  20
5.07822
  30
0
  11
1.77183
  21
5.0735
  31
0
  0
LINE
  8
0
  10
1.77183
  20
5.0735
  30
0
  11
1.77309
  21
5.06871
  31
0
  0
LINE
  8
0
  10
1.77309
  20
5.06871
  30
0
  11
1.77495
  21
5.06383
  31
0
  0
LINE
  8
0
  10
1.77495
  20
5.06383
  30
0
  11
1.77792
  21
5.05877
  31
0
  0
LINE
  8
0
  10
1.77792
  20
5.05877
  30
0
  11
1.78694
  21
5.05269
  31
0
  0
LINE
  8
0
  10
1.78694
  20
5.05269
  30
0
  11
1.97699
  21
4.99963
  31
0
  0
LINE
  8
0
  10
1.97699
  20
4.99963
  30
0
  11
1.98785
  21
5.00015
  31
0
  0
LINE
  8
0
  10
1.98785
  20
5.00015
  30
0
  11
1.99301
  21
5.00295
  31
0
  0
LINE
  8
0
  10
1.99301
  20
5.00295
  30
0
  11
1.99713
  21
5.00616
  31
0
  0
LINE
  8
0
  10
1.99713
  20
5.00616
  30
0
  11
2.00068
  21
5.0096
  31
0
  0
LINE
  8
0
  10
2.00068
  20
5.0096
  30
0
  11
2.00385
  21
5.0132
  31
0
  0
LINE
  8
0
  10
2.00385
  20
5.0132
  30
0
  11
2.00672
  21
5.01693
  31
0
  0
LINE
  8
0
  10
2.00672
  20
5.01693
  30
0
  11
2.0118
  21
5.02465
  31
0
  0
LINE
  8
0
  10
2.0118
  20
5.02465
  30
0
  11
2.01618
  21
5.03267
  31
0
  0
LINE
  8
0
  10
2.01618
  20
5.03267
  30
0
  11
2.02003
  21
5.04092
  31
0
  0
LINE
  8
0
  10
2.02003
  20
5.04092
  30
0
  11
2.02641
  21
5.05798
  31
0
  0
LINE
  8
0
  10
2.02641
  20
5.05798
  30
0
  11
2.03137
  21
5.07564
  31
0
  0
LINE
  8
0
  10
2.03137
  20
5.07564
  30
0
  11
2.03535
  21
5.0937
  31
0
  0
LINE
  8
0
  10
2.03535
  20
5.0937
  30
0
  11
2.04582
  21
5.10902
  31
0
  0
LINE
  8
0
  10
2.04582
  20
5.10902
  30
0
  11
2.05763
  21
5.12377
  31
0
  0
LINE
  8
0
  10
2.05763
  20
5.12377
  30
0
  11
2.07052
  21
5.13802
  31
0
  0
LINE
  8
0
  10
2.07052
  20
5.13802
  30
0
  11
2.08435
  21
5.15181
  31
0
  0
LINE
  8
0
  10
2.08435
  20
5.15181
  30
0
  11
2.09904
  21
5.16516
  31
0
  0
LINE
  8
0
  10
2.09904
  20
5.16516
  30
0
  11
2.11453
  21
5.17809
  31
0
  0
LINE
  8
0
  10
2.11453
  20
5.17809
  30
0
  11
2.13078
  21
5.19059
  31
0
  0
LINE
  8
0
  10
2.13078
  20
5.19059
  30
0
  11
2.14774
  21
5.20266
  31
0
  0
LINE
  8
0
  10
2.14774
  20
5.20266
  30
0
  11
2.16539
  21
5.2143
  31
0
  0
LINE
  8
0
  10
2.16539
  20
5.2143
  30
0
  11
2.32372
  21
5.12066
  31
0
  0
LINE
  8
0
  10
2.32372
  20
5.12066
  30
0
  11
2.32202
  21
5.09959
  31
0
  0
LINE
  8
0
  10
2.32202
  20
5.09959
  30
0
  11
2.31962
  21
5.07891
  31
0
  0
LINE
  8
0
  10
2.31962
  20
5.07891
  30
0
  11
2.31649
  21
5.05865
  31
0
  0
LINE
  8
0
  10
2.31649
  20
5.05865
  30
0
  11
2.31263
  21
5.03885
  31
0
  0
LINE
  8
0
  10
2.31263
  20
5.03885
  30
0
  11
2.308
  21
5.01954
  31
0
  0
LINE
  8
0
  10
2.308
  20
5.01954
  30
0
  11
2.30258
  21
5.00078
  31
0
  0
LINE
  8
0
  10
2.30258
  20
5.00078
  30
0
  11
2.2963
  21
4.98262
  31
0
  0
LINE
  8
0
  10
2.2963
  20
4.98262
  30
0
  11
2.28907
  21
4.96517
  31
0
  0
LINE
  8
0
  10
2.28907
  20
4.96517
  30
0
  11
2.28068
  21
4.94861
  31
0
  0
LINE
  8
0
  10
2.28068
  20
4.94861
  30
0
  11
2.26677
  21
4.93642
  31
0
  0
LINE
  8
0
  10
2.26677
  20
4.93642
  30
0
  11
2.25369
  21
4.92357
  31
0
  0
LINE
  8
0
  10
2.25369
  20
4.92357
  30
0
  11
2.24182
  21
4.90976
  31
0
  0
LINE
  8
0
  10
2.24182
  20
4.90976
  30
0
  11
2.23644
  21
4.90241
  31
0
  0
LINE
  8
0
  10
2.23644
  20
4.90241
  30
0
  11
2.23153
  21
4.89471
  31
0
  0
LINE
  8
0
  10
2.23153
  20
4.89471
  30
0
  11
2.2272
  21
4.88653
  31
0
  0
LINE
  8
0
  10
2.2272
  20
4.88653
  30
0
  11
2.22532
  21
4.88222
  31
0
  0
LINE
  8
0
  10
2.22532
  20
4.88222
  30
0
  11
2.22369
  21
4.87772
  31
0
  0
LINE
  8
0
  10
2.22369
  20
4.87772
  30
0
  11
2.22238
  21
4.87294
  31
0
  0
LINE
  8
0
  10
2.22238
  20
4.87294
  30
0
  11
2.22155
  21
4.86778
  31
0
  0
LINE
  8
0
  10
2.22155
  20
4.86778
  30
0
  11
2.22159
  21
4.86192
  31
0
  0
LINE
  8
0
  10
2.22159
  20
4.86192
  30
0
  11
2.22637
  21
4.85215
  31
0
  0
LINE
  8
0
  10
2.22637
  20
4.85215
  30
0
  11
2.36442
  21
4.71117
  31
0
  0
LINE
  8
0
  10
2.36442
  20
4.71117
  30
0
  11
2.37409
  21
4.70619
  31
0
  0
LINE
  8
0
  10
2.37409
  20
4.70619
  30
0
  11
2.37995
  21
4.70603
  31
0
  0
LINE
  8
0
  10
2.37995
  20
4.70603
  30
0
  11
2.38513
  21
4.70675
  31
0
  0
LINE
  8
0
  10
2.38513
  20
4.70675
  30
0
  11
2.38993
  21
4.70796
  31
0
  0
LINE
  8
0
  10
2.38993
  20
4.70796
  30
0
  11
2.39447
  21
4.70949
  31
0
  0
LINE
  8
0
  10
2.39447
  20
4.70949
  30
0
  11
2.39882
  21
4.71128
  31
0
  0
LINE
  8
0
  10
2.39882
  20
4.71128
  30
0
  11
2.40708
  21
4.71544
  31
0
  0
LINE
  8
0
  10
2.40708
  20
4.71544
  30
0
  11
2.41489
  21
4.72019
  31
0
  0
LINE
  8
0
  10
2.41489
  20
4.72019
  30
0
  11
2.42234
  21
4.72541
  31
0
  0
LINE
  8
0
  10
2.42234
  20
4.72541
  30
0
  11
2.4364
  21
4.73699
  31
0
  0
LINE
  8
0
  10
2.4364
  20
4.73699
  30
0
  11
2.44952
  21
4.7498
  31
0
  0
LINE
  8
0
  10
2.44952
  20
4.7498
  30
0
  11
2.462
  21
4.76345
  31
0
  0
LINE
  8
0
  10
2.462
  20
4.76345
  30
0
  11
2.47873
  21
4.77149
  31
0
  0
LINE
  8
0
  10
2.47873
  20
4.77149
  30
0
  11
2.49633
  21
4.77835
  31
0
  0
LINE
  8
0
  10
2.49633
  20
4.77835
  30
0
  11
2.51462
  21
4.78425
  31
0
  0
LINE
  8
0
  10
2.51462
  20
4.78425
  30
0
  11
2.53349
  21
4.78928
  31
0
  0
LINE
  8
0
  10
2.53349
  20
4.78928
  30
0
  11
2.55289
  21
4.7935
  31
0
  0
LINE
  8
0
  10
2.55289
  20
4.7935
  30
0
  11
2.57277
  21
4.79695
  31
0
  0
LINE
  8
0
  10
2.57277
  20
4.79695
  30
0
  11
2.59309
  21
4.79965
  31
0
  0
LINE
  8
0
  10
2.59309
  20
4.79965
  30
0
  11
2.61381
  21
4.80162
  31
0
  0
LINE
  8
0
  10
2.61381
  20
4.80162
  30
0
  11
2.63492
  21
4.80288
  31
0
  0
LINE
  8
0
  10
2.63492
  20
4.80288
  30
0
  11
2.72522
  21
4.64262
  31
0
  0
LINE
  8
0
  10
2.72522
  20
4.64262
  30
0
  11
2.71321
  21
4.62522
  31
0
  0
LINE
  8
0
  10
2.71321
  20
4.62522
  30
0
  11
2.70079
  21
4.60851
  31
0
  0
LINE
  8
0
  10
2.70079
  20
4.60851
  30
0
  11
2.68795
  21
4.59253
  31
0
  0
LINE
  8
0
  10
2.68795
  20
4.59253
  30
0
  11
2.6747
  21
4.57732
  31
0
  0
LINE
  8
0
  10
2.6747
  20
4.57732
  30
0
  11
2.66104
  21
4.56291
  31
0
  0
LINE
  8
0
  10
2.66104
  20
4.56291
  30
0
  11
2.64696
  21
4.54937
  31
0
  0
LINE
  8
0
  10
2.64696
  20
4.54937
  30
0
  11
2.63245
  21
4.53678
  31
0
  0
LINE
  8
0
  10
2.63245
  20
4.53678
  30
0
  11
2.61746
  21
4.52529
  31
0
  0
LINE
  8
0
  10
2.61746
  20
4.52529
  30
0
  11
2.60192
  21
4.51514
  31
0
  0
LINE
  8
0
  10
2.60192
  20
4.51514
  30
0
  11
2.58378
  21
4.51153
  31
0
  0
LINE
  8
0
  10
2.58378
  20
4.51153
  30
0
  11
2.56602
  21
4.50695
  31
0
  0
LINE
  8
0
  10
2.56602
  20
4.50695
  30
0
  11
2.54883
  21
4.50092
  31
0
  0
LINE
  8
0
  10
2.54883
  20
4.50092
  30
0
  11
2.54051
  21
4.49725
  31
0
  0
LINE
  8
0
  10
2.54051
  20
4.49725
  30
0
  11
2.5324
  21
4.49303
  31
0
  0
LINE
  8
0
  10
2.5324
  20
4.49303
  30
0
  11
2.52456
  21
4.48812
  31
0
  0
LINE
  8
0
  10
2.52456
  20
4.48812
  30
0
  11
2.52078
  21
4.48533
  31
0
  0
LINE
  8
0
  10
2.52078
  20
4.48533
  30
0
  11
2.51711
  21
4.48224
  31
0
  0
LINE
  8
0
  10
2.51711
  20
4.48224
  30
0
  11
2.5136
  21
4.47876
  31
0
  0
LINE
  8
0
  10
2.5136
  20
4.47876
  30
0
  11
2.5103
  21
4.4747
  31
0
  0
LINE
  8
0
  10
2.5103
  20
4.4747
  30
0
  11
2.5074
  21
4.46961
  31
0
  0
LINE
  8
0
  10
2.5074
  20
4.46961
  30
0
  11
2.50665
  21
4.45876
  31
0
  0
LINE
  8
0
  10
2.50665
  20
4.45876
  30
0
  11
2.55572
  21
4.26764
  31
0
  0
LINE
  8
0
  10
2.55572
  20
4.26764
  30
0
  11
2.5616
  21
4.25849
  31
0
  0
LINE
  8
0
  10
2.5616
  20
4.25849
  30
0
  11
2.5666
  21
4.25542
  31
0
  0
LINE
  8
0
  10
2.5666
  20
4.25542
  30
0
  11
2.57144
  21
4.25346
  31
0
  0
LINE
  8
0
  10
2.57144
  20
4.25346
  30
0
  11
2.5762
  21
4.2521
  31
0
  0
LINE
  8
0
  10
2.5762
  20
4.2521
  30
0
  11
2.5809
  21
4.25116
  31
0
  0
LINE
  8
0
  10
2.5809
  20
4.25116
  30
0
  11
2.58557
  21
4.25054
  31
0
  0
LINE
  8
0
  10
2.58557
  20
4.25054
  30
0
  11
2.5948
  21
4.25001
  31
0
  0
LINE
  8
0
  10
2.5948
  20
4.25001
  30
0
  11
2.60393
  21
4.25022
  31
0
  0
LINE
  8
0
  10
2.60393
  20
4.25022
  30
0
  11
2.613
  21
4.25101
  31
0
  0
LINE
  8
0
  10
2.613
  20
4.25101
  30
0
  11
2.63096
  21
4.25401
  31
0
  0
LINE
  8
0
  10
2.63096
  20
4.25401
  30
0
  11
2.64873
  21
4.25855
  31
0
  0
LINE
  8
0
  10
2.64873
  20
4.25855
  30
0
  11
2.66637
  21
4.26413
  31
0
  0
LINE
  8
0
  10
2.66637
  20
4.26413
  30
0
  11
2.68488
  21
4.26272
  31
0
  0
LINE
  8
0
  10
2.68488
  20
4.26272
  30
0
  11
2.70355
  21
4.25987
  31
0
  0
LINE
  8
0
  10
2.70355
  20
4.25987
  30
0
  11
2.72233
  21
4.25583
  31
0
  0
LINE
  8
0
  10
2.72233
  20
4.25583
  30
0
  11
2.74119
  21
4.25075
  31
0
  0
LINE
  8
0
  10
2.74119
  20
4.25075
  30
0
  11
2.7601
  21
4.2447
  31
0
  0
LINE
  8
0
  10
2.7601
  20
4.2447
  30
0
  11
2.77904
  21
4.23775
  31
0
  0
LINE
  8
0
  10
2.77904
  20
4.23775
  30
0
  11
2.79799
  21
4.22993
  31
0
  0
LINE
  8
0
  10
2.79799
  20
4.22993
  30
0
  11
2.81693
  21
4.22128
  31
0
  0
LINE
  8
0
  10
2.81693
  20
4.22128
  30
0
  11
2.83583
  21
4.21181
  31
0
  0
LINE
  8
0
  10
2.83583
  20
4.21181
  30
0
  11
2.8339
  21
4.02787
  31
0
  0
LINE
  8
0
  10
2.8339
  20
4.02787
  30
0
  11
2.81481
  21
4.01881
  31
0
  0
LINE
  8
0
  10
2.81481
  20
4.01881
  30
0
  11
2.79569
  21
4.01055
  31
0
  0
LINE
  8
0
  10
2.79569
  20
4.01055
  30
0
  11
2.77659
  21
4.00313
  31
0
  0
LINE
  8
0
  10
2.77659
  20
4.00313
  30
0
  11
2.75751
  21
3.99658
  31
0
  0
LINE
  8
0
  10
2.75751
  20
3.99658
  30
0
  11
2.73847
  21
3.99093
  31
0
  0
LINE
  8
0
  10
2.73847
  20
3.99093
  30
0
  11
2.71951
  21
3.98624
  31
0
  0
LINE
  8
0
  10
2.71951
  20
3.98624
  30
0
  11
2.70065
  21
3.9826
  31
0
  0
LINE
  8
0
  10
2.70065
  20
3.9826
  30
0
  11
2.68192
  21
3.98014
  31
0
  0
LINE
  8
0
  10
2.68192
  20
3.98014
  30
0
  11
2.66338
  21
3.97912
  31
0
  0
LINE
  8
0
  10
2.66338
  20
3.97912
  30
0
  11
2.64587
  21
3.98507
  31
0
  0
LINE
  8
0
  10
2.64587
  20
3.98507
  30
0
  11
2.6282
  21
3.98998
  31
0
  0
LINE
  8
0
  10
2.6282
  20
3.98998
  30
0
  11
2.6103
  21
3.99335
  31
0
  0
LINE
  8
0
  10
2.6103
  20
3.99335
  30
0
  11
2.60125
  21
3.99434
  31
0
  0
LINE
  8
0
  10
2.60125
  20
3.99434
  30
0
  11
2.59212
  21
3.99474
  31
0
  0
LINE
  8
0
  10
2.59212
  20
3.99474
  30
0
  11
2.58288
  21
3.9944
  31
0
  0
LINE
  8
0
  10
2.58288
  20
3.9944
  30
0
  11
2.57821
  21
3.99387
  31
0
  0
LINE
  8
0
  10
2.57821
  20
3.99387
  30
0
  11
2.57349
  21
3.99303
  31
0
  0
LINE
  8
0
  10
2.57349
  20
3.99303
  30
0
  11
2.5687
  21
3.99178
  31
0
  0
LINE
  8
0
  10
2.5687
  20
3.99178
  30
0
  11
2.56382
  21
3.98991
  31
0
  0
LINE
  8
0
  10
2.56382
  20
3.98991
  30
0
  11
2.55876
  21
3.98695
  31
0
  0
LINE
  8
0
  10
2.55876
  20
3.98695
  30
0
  11
2.55269
  21
3.97793
  31
0
  0
LINE
  8
0
  10
2.55269
  20
3.97793
  30
0
  11
2.49962
  21
3.78788
  31
0
  0
LINE
  8
0
  10
2.49962
  20
3.78788
  30
0
  11
2.50014
  21
3.77702
  31
0
  0
LINE
  8
0
  10
2.50014
  20
3.77702
  30
0
  11
2.50294
  21
3.77186
  31
0
  0
LINE
  8
0
  10
2.50294
  20
3.77186
  30
0
  11
2.50615
  21
3.76774
  31
0
  0
LINE
  8
0
  10
2.50615
  20
3.76774
  30
0
  11
2.50959
  21
3.76418
  31
0
  0
LINE
  8
0
  10
2.50959
  20
3.76418
  30
0
  11
2.5132
  21
3.76102
  31
0
  0
LINE
  8
0
  10
2.5132
  20
3.76102
  30
0
  11
2.51692
  21
3.75815
  31
0
  0
LINE
  8
0
  10
2.51692
  20
3.75815
  30
0
  11
2.52465
  21
3.75307
  31
0
  0
LINE
  8
0
  10
2.52465
  20
3.75307
  30
0
  11
2.53267
  21
3.74869
  31
0
  0
LINE
  8
0
  10
2.53267
  20
3.74869
  30
0
  11
2.54092
  21
3.74484
  31
0
  0
LINE
  8
0
  10
2.54092
  20
3.74484
  30
0
  11
2.55797
  21
3.73846
  31
0
  0
LINE
  8
0
  10
2.55797
  20
3.73846
  30
0
  11
2.57563
  21
3.7335
  31
0
  0
LINE
  8
0
  10
2.57563
  20
3.7335
  30
0
  11
2.59369
  21
3.72952
  31
0
  0
LINE
  8
0
  10
2.59369
  20
3.72952
  30
0
  11
2.60902
  21
3.71904
  31
0
  0
LINE
  8
0
  10
2.60902
  20
3.71904
  30
0
  11
2.62376
  21
3.70724
  31
0
  0
LINE
  8
0
  10
2.62376
  20
3.70724
  30
0
  11
2.63801
  21
3.69435
  31
0
  0
LINE
  8
0
  10
2.63801
  20
3.69435
  30
0
  11
2.6518
  21
3.68052
  31
0
  0
LINE
  8
0
  10
2.6518
  20
3.68052
  30
0
  11
2.66516
  21
3.66583
  31
0
  0
LINE
  8
0
  10
2.66516
  20
3.66583
  30
0
  11
2.67808
  21
3.65034
  31
0
  0
LINE
  8
0
  10
2.67808
  20
3.65034
  30
0
  11
2.69058
  21
3.63409
  31
0
  0
LINE
  8
0
  10
2.69058
  20
3.63409
  30
0
  11
2.70266
  21
3.61713
  31
0
  0
LINE
  8
0
  10
2.70266
  20
3.61713
  30
0
  11
2.71429
  21
3.59948
  31
0
  0
LINE
  8
0
  10
2.71429
  20
3.59948
  30
0
  11
2.62066
  21
3.44115
  31
0
  0
LINE
  8
0
  10
2.62066
  20
3.44115
  30
0
  11
2.59958
  21
3.44284
  31
0
  0
LINE
  8
0
  10
2.59958
  20
3.44284
  30
0
  11
2.5789
  21
3.44525
  31
0
  0
LINE
  8
0
  10
2.5789
  20
3.44525
  30
0
  11
2.55865
  21
3.44838
  31
0
  0
LINE
  8
0
  10
2.55865
  20
3.44838
  30
0
  11
2.53884
  21
3.45224
  31
0
  0
LINE
  8
0
  10
2.53884
  20
3.45224
  30
0
  11
2.51954
  21
3.45687
  31
0
  0
LINE
  8
0
  10
2.51954
  20
3.45687
  30
0
  11
2.50077
  21
3.46229
  31
0
  0
LINE
  8
0
  10
2.50077
  20
3.46229
  30
0
  11
2.48261
  21
3.46857
  31
0
  0
LINE
  8
0
  10
2.48261
  20
3.46857
  30
0
  11
2.46516
  21
3.4758
  31
0
  0
LINE
  8
0
  10
2.46516
  20
3.4758
  30
0
  11
2.4486
  21
3.48419
  31
0
  0
LINE
  8
0
  10
2.4486
  20
3.48419
  30
0
  11
2.43641
  21
3.49809
  31
0
  0
LINE
  8
0
  10
2.43641
  20
3.49809
  30
0
  11
2.42356
  21
3.51118
  31
0
  0
LINE
  8
0
  10
2.42356
  20
3.51118
  30
0
  11
2.40975
  21
3.52305
  31
0
  0
LINE
  8
0
  10
2.40975
  20
3.52305
  30
0
  11
2.40241
  21
3.52843
  31
0
  0
LINE
  8
0
  10
2.40241
  20
3.52843
  30
0
  11
2.3947
  21
3.53334
  31
0
  0
LINE
  8
0
  10
2.3947
  20
3.53334
  30
0
  11
2.38653
  21
3.53767
  31
0
  0
LINE
  8
0
  10
2.38653
  20
3.53767
  30
0
  11
2.38222
  21
3.53955
  31
0
  0
LINE
  8
0
  10
2.38222
  20
3.53955
  30
0
  11
2.37771
  21
3.54118
  31
0
  0
LINE
  8
0
  10
2.37771
  20
3.54118
  30
0
  11
2.37294
  21
3.54249
  31
0
  0
LINE
  8
0
  10
2.37294
  20
3.54249
  30
0
  11
2.36778
  21
3.54331
  31
0
  0
LINE
  8
0
  10
2.36778
  20
3.54331
  30
0
  11
2.36191
  21
3.54328
  31
0
  0
LINE
  8
0
  10
2.36191
  20
3.54328
  30
0
  11
2.35214
  21
3.5385
  31
0
  0
LINE
  8
0
  10
2.35214
  20
3.5385
  30
0
  11
2.21117
  21
3.40045
  31
0
  0
LINE
  8
0
  10
2.21117
  20
3.40045
  30
0
  11
2.20618
  21
3.39078
  31
0
  0
LINE
  8
0
  10
2.20618
  20
3.39078
  30
0
  11
2.20603
  21
3.38491
  31
0
  0
LINE
  8
0
  10
2.20603
  20
3.38491
  30
0
  11
2.20674
  21
3.37974
  31
0
  0
LINE
  8
0
  10
2.20674
  20
3.37974
  30
0
  11
2.20795
  21
3.37494
  31
0
  0
LINE
  8
0
  10
2.20795
  20
3.37494
  30
0
  11
2.20949
  21
3.3704
  31
0
  0
LINE
  8
0
  10
2.20949
  20
3.3704
  30
0
  11
2.21128
  21
3.36605
  31
0
  0
LINE
  8
0
  10
2.21128
  20
3.36605
  30
0
  11
2.21543
  21
3.35779
  31
0
  0
LINE
  8
0
  10
2.21543
  20
3.35779
  30
0
  11
2.22018
  21
3.34998
  31
0
  0
LINE
  8
0
  10
2.22018
  20
3.34998
  30
0
  11
2.2254
  21
3.34253
  31
0
  0
LINE
  8
0
  10
2.2254
  20
3.34253
  30
0
  11
2.23698
  21
3.32847
  31
0
  0
LINE
  8
0
  10
2.23698
  20
3.32847
  30
0
  11
2.2498
  21
3.31535
  31
0
  0
LINE
  8
0
  10
2.2498
  20
3.31535
  30
0
  11
2.26345
  21
3.30287
  31
0
  0
LINE
  8
0
  10
2.26345
  20
3.30287
  30
0
  11
2.27148
  21
3.28613
  31
0
  0
LINE
  8
0
  10
2.27148
  20
3.28613
  30
0
  11
2.27835
  21
3.26854
  31
0
  0
LINE
  8
0
  10
2.27835
  20
3.26854
  30
0
  11
2.28424
  21
3.25025
  31
0
  0
LINE
  8
0
  10
2.28424
  20
3.25025
  30
0
  11
2.28927
  21
3.23138
  31
0
  0
LINE
  8
0
  10
2.28927
  20
3.23138
  30
0
  11
2.29349
  21
3.21198
  31
0
  0
LINE
  8
0
  10
2.29349
  20
3.21198
  30
0
  11
2.29694
  21
3.1921
  31
0
  0
LINE
  8
0
  10
2.29694
  20
3.1921
  30
0
  11
2.29964
  21
3.17178
  31
0
  0
LINE
  8
0
  10
2.29964
  20
3.17178
  30
0
  11
2.30162
  21
3.15105
  31
0
  0
LINE
  8
0
  10
2.30162
  20
3.15105
  30
0
  11
2.30287
  21
3.12995
  31
0
  0
LINE
  8
0
  10
2.30287
  20
3.12995
  30
0
  11
2.14261
  21
3.03965
  31
0
  0
LINE
  8
0
  10
2.14261
  20
3.03965
  30
0
  11
2.12521
  21
3.05166
  31
0
  0
LINE
  8
0
  10
2.12521
  20
3.05166
  30
0
  11
2.10851
  21
3.06408
  31
0
  0
LINE
  8
0
  10
2.10851
  20
3.06408
  30
0
  11
2.09253
  21
3.07692
  31
0
  0
LINE
  8
0
  10
2.09253
  20
3.07692
  30
0
  11
2.07731
  21
3.09016
  31
0
  0
LINE
  8
0
  10
2.07731
  20
3.09016
  30
0
  11
2.0629
  21
3.10382
  31
0
  0
LINE
  8
0
  10
2.0629
  20
3.10382
  30
0
  11
2.04936
  21
3.1179
  31
0
  0
LINE
  8
0
  10
2.04936
  20
3.1179
  30
0
  11
2.03678
  21
3.13242
  31
0
  0
LINE
  8
0
  10
2.03678
  20
3.13242
  30
0
  11
2.02528
  21
3.14741
  31
0
  0
LINE
  8
0
  10
2.02528
  20
3.14741
  30
0
  11
2.01513
  21
3.16295
  31
0
  0
LINE
  8
0
  10
2.01513
  20
3.16295
  30
0
  11
2.01153
  21
3.18109
  31
0
  0
LINE
  8
0
  10
2.01153
  20
3.18109
  30
0
  11
2.00694
  21
3.19885
  31
0
  0
LINE
  8
0
  10
2.00694
  20
3.19885
  30
0
  11
2.00092
  21
3.21603
  31
0
  0
LINE
  8
0
  10
2.00092
  20
3.21603
  30
0
  11
1.99725
  21
3.22436
  31
0
  0
LINE
  8
0
  10
1.99725
  20
3.22436
  30
0
  11
1.99303
  21
3.23247
  31
0
  0
LINE
  8
0
  10
1.99303
  20
3.23247
  30
0
  11
1.98811
  21
3.2403
  31
0
  0
LINE
  8
0
  10
1.98811
  20
3.2403
  30
0
  11
1.98532
  21
3.24409
  31
0
  0
LINE
  8
0
  10
1.98532
  20
3.24409
  30
0
  11
1.98223
  21
3.24775
  31
0
  0
LINE
  8
0
  10
1.98223
  20
3.24775
  30
0
  11
1.97875
  21
3.25127
  31
0
  0
LINE
  8
0
  10
1.97875
  20
3.25127
  30
0
  11
1.9747
  21
3.25457
  31
0
  0
LINE
  8
0
  10
1.9747
  20
3.25457
  30
0
  11
1.9696
  21
3.25747
  31
0
  0
LINE
  8
0
  10
1.9696
  20
3.25747
  30
0
  11
1.95875
  21
3.25822
  31
0
  0
LINE
  8
0
  10
1.95875
  20
3.25822
  30
0
  11
1.76763
  21
3.20915
  31
0
  0
LINE
  8
0
  10
1.76763
  20
3.20915
  30
0
  11
1.75848
  21
3.20326
  31
0
  0
LINE
  8
0
  10
1.75848
  20
3.20326
  30
0
  11
1.75542
  21
3.19827
  31
0
  0
LINE
  8
0
  10
1.75542
  20
3.19827
  30
0
  11
1.75345
  21
3.19342
  31
0
  0
LINE
  8
0
  10
1.75345
  20
3.19342
  30
0
  11
1.7521
  21
3.18867
  31
0
  0
LINE
  8
0
  10
1.7521
  20
3.18867
  30
0
  11
1.75116
  21
3.18396
  31
0
  0
LINE
  8
0
  10
1.75116
  20
3.18396
  30
0
  11
1.75053
  21
3.1793
  31
0
  0
LINE
  8
0
  10
1.75053
  20
3.1793
  30
0
  11
1.75
  21
3.17007
  31
0
  0
LINE
  8
0
  10
1.75
  20
3.17007
  30
0
  11
1.75021
  21
3.16093
  31
0
  0
LINE
  8
0
  10
1.75021
  20
3.16093
  30
0
  11
1.751
  21
3.15187
  31
0
  0
LINE
  8
0
  10
1.751
  20
3.15187
  30
0
  11
1.754
  21
3.13391
  31
0
  0
LINE
  8
0
  10
1.754
  20
3.13391
  30
0
  11
1.75854
  21
3.11614
  31
0
  0
LINE
  8
0
  10
1.75854
  20
3.11614
  30
0
  11
1.76412
  21
3.0985
  31
0
  0
LINE
  8
0
  10
1.76412
  20
3.0985
  30
0
  11
1.76272
  21
3.07999
  31
0
  0
LINE
  8
0
  10
1.76272
  20
3.07999
  30
0
  11
1.75986
  21
3.06132
  31
0
  0
LINE
  8
0
  10
1.75986
  20
3.06132
  30
0
  11
1.75583
  21
3.04254
  31
0
  0
LINE
  8
0
  10
1.75583
  20
3.04254
  30
0
  11
1.75074
  21
3.02368
  31
0
  0
LINE
  8
0
  10
1.75074
  20
3.02368
  30
0
  11
1.7447
  21
3.00476
  31
0
  0
LINE
  8
0
  10
1.7447
  20
3.00476
  30
0
  11
1.73775
  21
2.98582
  31
0
  0
LINE
  8
0
  10
1.73775
  20
2.98582
  30
0
  11
1.72993
  21
2.96688
  31
0
  0
LINE
  8
0
  10
1.72993
  20
2.96688
  30
0
  11
1.72127
  21
2.94794
  31
0
  0
LINE
  8
0
  10
1.72127
  20
2.94794
  30
0
  11
1.71181
  21
2.92904
  31
0
  0
LINE
  8
0
  10
1.71181
  20
2.92904
  30
0
  11
1.52787
  21
2.93096
  31
0
  0
LINE
  8
0
  10
1.52787
  20
2.93096
  30
0
  11
1.5188
  21
2.95006
  31
0
  0
LINE
  8
0
  10
1.5188
  20
2.95006
  30
0
  11
1.51055
  21
2.96917
  31
0
  0
LINE
  8
0
  10
1.51055
  20
2.96917
  30
0
  11
1.50313
  21
2.98828
  31
0
  0
LINE
  8
0
  10
1.50313
  20
2.98828
  30
0
  11
1.49657
  21
3.00736
  31
0
  0
LINE
  8
0
  10
1.49657
  20
3.00736
  30
0
  11
1.49092
  21
3.0264
  31
0
  0
LINE
  8
0
  10
1.49092
  20
3.0264
  30
0
  11
1.48624
  21
3.04536
  31
0
  0
LINE
  8
0
  10
1.48624
  20
3.04536
  30
0
  11
1.4826
  21
3.06422
  31
0
  0
LINE
  8
0
  10
1.4826
  20
3.06422
  30
0
  11
1.48013
  21
3.08295
  31
0
  0
LINE
  8
0
  10
1.48013
  20
3.08295
  30
0
  11
1.47912
  21
3.10149
  31
0
  0
LINE
  8
0
  10
1.47912
  20
3.10149
  30
0
  11
1.48506
  21
3.119
  31
0
  0
LINE
  8
0
  10
1.48506
  20
3.119
  30
0
  11
1.48997
  21
3.13667
  31
0
  0
LINE
  8
0
  10
1.48997
  20
3.13667
  30
0
  11
1.49335
  21
3.15457
  31
0
  0
LINE
  8
0
  10
1.49335
  20
3.15457
  30
0
  11
1.49433
  21
3.16361
  31
0
  0
LINE
  8
0
  10
1.49433
  20
3.16361
  30
0
  11
1.49473
  21
3.17275
  31
0
  0
LINE
  8
0
  10
1.49473
  20
3.17275
  30
0
  11
1.4944
  21
3.18198
  31
0
  0
LINE
  8
0
  10
1.4944
  20
3.18198
  30
0
  11
1.49387
  21
3.18666
  31
0
  0
LINE
  8
0
  10
1.49387
  20
3.18666
  30
0
  11
1.49303
  21
3.19138
  31
0
  0
LINE
  8
0
  10
1.49303
  20
3.19138
  30
0
  11
1.49177
  21
3.19616
  31
0
  0
LINE
  8
0
  10
1.49177
  20
3.19616
  30
0
  11
1.48991
  21
3.20105
  31
0
  0
LINE
  8
0
  10
1.48991
  20
3.20105
  30
0
  11
1.48695
  21
3.20611
  31
0
  0
LINE
  8
0
  10
1.48695
  20
3.20611
  30
0
  11
1.47792
  21
3.21218
  31
0
  0
LINE
  8
0
  10
1.47792
  20
3.21218
  30
0
  11
1.28788
  21
3.26524
  31
0
  0
LINE
  8
0
  10
1.28788
  20
3.26524
  30
0
  11
1.27701
  21
3.26472
  31
0
  0
LINE
  8
0
  10
1.27701
  20
3.26472
  30
0
  11
1.27186
  21
3.26193
  31
0
  0
LINE
  8
0
  10
1.27186
  20
3.26193
  30
0
  11
1.26773
  21
3.25872
  31
0
  0
LINE
  8
0
  10
1.26773
  20
3.25872
  30
0
  11
1.26418
  21
3.25527
  31
0
  0
LINE
  8
0
  10
1.26418
  20
3.25527
  30
0
  11
1.26101
  21
3.25167
  31
0
  0
LINE
  8
0
  10
1.26101
  20
3.25167
  30
0
  11
1.25814
  21
3.24795
  31
0
  0
LINE
  8
0
  10
1.25814
  20
3.24795
  30
0
  11
1.25307
  21
3.24022
  31
0
  0
LINE
  8
0
  10
1.25307
  20
3.24022
  30
0
  11
1.24868
  21
3.2322
  31
0
  0
LINE
  8
0
  10
1.24868
  20
3.2322
  30
0
  11
1.24483
  21
3.22395
  31
0
  0
LINE
  8
0
  10
1.24483
  20
3.22395
  30
0
  11
1.23845
  21
3.2069
  31
0
  0
LINE
  8
0
  10
1.23845
  20
3.2069
  30
0
  11
1.2335
  21
3.18924
  31
0
  0
LINE
  8
0
  10
1.2335
  20
3.18924
  30
0
  11
1.22951
  21
3.17118
  31
0
  0
LINE
  8
0
  10
1.22951
  20
3.17118
  30
0
  11
1.21904
  21
3.15585
  31
0
  0
LINE
  8
0
  10
1.21904
  20
3.15585
  30
0
  11
1.20723
  21
3.14111
  31
0
  0
LINE
  8
0
  10
1.20723
  20
3.14111
  30
0
  11
1.19434
  21
3.12686
  31
0
  0
LINE
  8
0
  10
1.19434
  20
3.12686
  30
0
  11
1.18051
  21
3.11307
  31
0
  0
LINE
  8
0
  10
1.18051
  20
3.11307
  30
0
  11
1.16582
  21
3.09971
  31
0
  0
LINE
  8
0
  10
1.16582
  20
3.09971
  30
0
  11
1.15033
  21
3.08678
  31
0
  0
LINE
  8
0
  10
1.15033
  20
3.08678
  30
0
  11
1.13408
  21
3.07428
  31
0
  0
LINE
  8
0
  10
1.13408
  20
3.07428
  30
0
  11
1.11712
  21
3.06221
  31
0
  0
LINE
  8
0
  10
1.11712
  20
3.06221
  30
0
  11
1.09947
  21
3.05057
  31
0
  0
LINE
  8
0
  10
1.09947
  20
3.05057
  30
0
  11
0.94114
  21
3.14421
  31
0
  0
LINE
  8
0
  10
0.94114
  20
3.14421
  30
0
  11
0.94284
  21
3.16528
  31
0
  0
LINE
  8
0
  10
0.94284
  20
3.16528
  30
0
  11
0.94525
  21
3.18596
  31
0
  0
LINE
  8
0
  10
0.94525
  20
3.18596
  30
0
  11
0.94837
  21
3.20622
  31
0
  0
LINE
  8
0
  10
0.94837
  20
3.20622
  30
0
  11
0.95224
  21
3.22602
  31
0
  0
LINE
  8
0
  10
0.95224
  20
3.22602
  30
0
  11
0.95686
  21
3.24533
  31
0
  0
LINE
  8
0
  10
0.95686
  20
3.24533
  30
0
  11
0.96229
  21
3.2641
  31
0
  0
LINE
  8
0
  10
0.96229
  20
3.2641
  30
0
  11
0.96856
  21
3.28225
  31
0
  0
LINE
  8
0
  10
0.96856
  20
3.28225
  30
0
  11
0.97579
  21
3.2997
  31
0
  0
LINE
  8
0
  10
0.97579
  20
3.2997
  30
0
  11
0.98418
  21
3.31627
  31
0
  0
LINE
  8
0
  10
0.98418
  20
3.31627
  30
0
  11
0.99809
  21
3.32846
  31
0
  0
LINE
  8
0
  10
0.99809
  20
3.32846
  30
0
  11
1.01118
  21
3.34131
  31
0
  0
LINE
  8
0
  10
1.01118
  20
3.34131
  30
0
  11
1.02305
  21
3.35512
  31
0
  0
LINE
  8
0
  10
1.02305
  20
3.35512
  30
0
  11
1.02842
  21
3.36246
  31
0
  0
LINE
  8
0
  10
1.02842
  20
3.36246
  30
0
  11
1.03334
  21
3.37017
  31
0
  0
LINE
  8
0
  10
1.03334
  20
3.37017
  30
0
  11
1.03766
  21
3.37834
  31
0
  0
LINE
  8
0
  10
1.03766
  20
3.37834
  30
0
  11
1.03954
  21
3.38265
  31
0
  0
LINE
  8
0
  10
1.03954
  20
3.38265
  30
0
  11
1.04117
  21
3.38716
  31
0
  0
LINE
  8
0
  10
1.04117
  20
3.38716
  30
0
  11
1.04248
  21
3.39193
  31
0
  0
LINE
  8
0
  10
1.04248
  20
3.39193
  30
0
  11
1.04331
  21
3.39709
  31
0
  0
LINE
  8
0
  10
1.04331
  20
3.39709
  30
0
  11
1.04327
  21
3.40296
  31
0
  0
LINE
  8
0
  10
1.04327
  20
3.40296
  30
0
  11
1.03849
  21
3.41273
  31
0
  0
LINE
  8
0
  10
1.03849
  20
3.41273
  30
0
  11
0.90044
  21
3.5537
  31
0
  0
LINE
  8
0
  10
0.90044
  20
3.5537
  30
0
  11
0.89077
  21
3.55869
  31
0
  0
LINE
  8
0
  10
0.89077
  20
3.55869
  30
0
  11
0.88491
  21
3.55884
  31
0
  0
LINE
  8
0
  10
0.88491
  20
3.55884
  30
0
  11
0.87973
  21
3.55812
  31
0
  0
LINE
  8
0
  10
0.87973
  20
3.55812
  30
0
  11
0.87493
  21
3.55692
  31
0
  0
LINE
  8
0
  10
0.87493
  20
3.55692
  30
0
  11
0.87039
  21
3.55538
  31
0
  0
LINE
  8
0
  10
0.87039
  20
3.55538
  30
0
  11
0.86604
  21
3.55359
  31
0
  0
LINE
  8
0
  10
0.86604
  20
3.55359
  30
0
  11
0.85778
  21
3.54944
  31
0
  0
LINE
  8
0
  10
0.85778
  20
3.54944
  30
0
  11
0.84997
  21
3.54469
  31
0
  0
LINE
  8
0
  10
0.84997
  20
3.54469
  30
0
  11
0.84252
  21
3.53946
  31
0
  0
LINE
  8
0
  10
0.84252
  20
3.53946
  30
0
  11
0.82847
  21
3.52789
  31
0
  0
LINE
  8
0
  10
0.82847
  20
3.52789
  30
0
  11
0.81534
  21
3.51507
  31
0
  0
LINE
  8
0
  10
0.81534
  20
3.51507
  30
0
  11
0.80286
  21
3.50142
  31
0
  0
LINE
  8
0
  10
0.80286
  20
3.50142
  30
0
  11
0.78613
  21
3.49338
  31
0
  0
LINE
  8
0
  10
0.78613
  20
3.49338
  30
0
  11
0.76853
  21
3.48652
  31
0
  0
LINE
  8
0
  10
0.76853
  20
3.48652
  30
0
  11
0.75025
  21
3.48062
  31
0
  0
LINE
  8
0
  10
0.75025
  20
3.48062
  30
0
  11
0.73137
  21
3.47559
  31
0
  0
LINE
  8
0
  10
0.73137
  20
3.47559
  30
0
  11
0.71197
  21
3.47137
  31
0
  0
LINE
  8
0
  10
0.71197
  20
3.47137
  30
0
  11
0.69209
  21
3.46793
  31
0
  0
LINE
  8
0
  10
0.69209
  20
3.46793
  30
0
  11
0.67177
  21
3.46522
  31
0
  0
LINE
  8
0
  10
0.67177
  20
3.46522
  30
0
  11
0.65105
  21
3.46325
  31
0
  0
LINE
  8
0
  10
0.65105
  20
3.46325
  30
0
  11
0.62994
  21
3.46199
  31
0
  0
LINE
  8
0
  10
0.62994
  20
3.46199
  30
0
  11
0.53964
  21
3.62225
  31
0
  0
LINE
  8
0
  10
0.53964
  20
3.62225
  30
0
  11
0.55165
  21
3.63965
  31
0
  0
LINE
  8
0
  10
0.55165
  20
3.63965
  30
0
  11
0.56407
  21
3.65636
  31
0
  0
LINE
  8
0
  10
0.56407
  20
3.65636
  30
0
  11
0.57691
  21
3.67234
  31
0
  0
LINE
  8
0
  10
0.57691
  20
3.67234
  30
0
  11
0.59016
  21
3.68756
  31
0
  0
LINE
  8
0
  10
0.59016
  20
3.68756
  30
0
  11
0.60382
  21
3.70197
  31
0
  0
LINE
  8
0
  10
0.60382
  20
3.70197
  30
0
  11
0.6179
  21
3.71551
  31
0
  0
LINE
  8
0
  10
0.6179
  20
3.71551
  30
0
  11
0.63241
  21
3.72809
  31
0
  0
LINE
  8
0
  10
0.63241
  20
3.72809
  30
0
  11
0.6474
  21
3.73959
  31
0
  0
LINE
  8
0
  10
0.6474
  20
3.73959
  30
0
  11
0.66294
  21
3.74974
  31
0
  0
LINE
  8
0
  10
0.66294
  20
3.74974
  30
0
  11
0.68109
  21
3.75334
  31
0
  0
LINE
  8
0
  10
0.68109
  20
3.75334
  30
0
  11
0.69884
  21
3.75793
  31
0
  0
LINE
  8
0
  10
0.69884
  20
3.75793
  30
0
  11
0.71603
  21
3.76395
  31
0
  0
LINE
  8
0
  10
0.71603
  20
3.76395
  30
0
  11
0.72436
  21
3.76762
  31
0
  0
LINE
  8
0
  10
0.72436
  20
3.76762
  30
0
  11
0.73246
  21
3.77184
  31
0
  0
LINE
  8
0
  10
0.73246
  20
3.77184
  30
0
  11
0.7403
  21
3.77675
  31
0
  0
LINE
  8
0
  10
0.7403
  20
3.77675
  30
0
  11
0.74408
  21
3.77955
  31
0
  0
LINE
  8
0
  10
0.74408
  20
3.77955
  30
0
  11
0.74775
  21
3.78263
  31
0
  0
LINE
  8
0
  10
0.74775
  20
3.78263
  30
0
  11
0.75127
  21
3.78611
  31
0
  0
LINE
  8
0
  10
0.75127
  20
3.78611
  30
0
  11
0.75456
  21
3.79017
  31
0
  0
LINE
  8
0
  10
0.75456
  20
3.79017
  30
0
  11
0.75746
  21
3.79527
  31
0
  0
LINE
  8
0
  10
0.75746
  20
3.79527
  30
0
  11
0.75821
  21
3.80612
  31
0
  0
LINE
  8
0
  10
0.75821
  20
3.80612
  30
0
  11
0.70914
  21
3.99723
  31
0
  0
LINE
  8
0
  10
2.13243
  20
4.13244
  30
0
  11
2.13243
  21
4.13244
  31
0
  0
LINE
  8
0
  10
2.13243
  20
4.13244
  30
0
  11
2.11539
  21
4.26185
  31
0
  0
LINE
  8
0
  10
2.11539
  20
4.26185
  30
0
  11
2.06544
  21
4.38244
  31
0
  0
LINE
  8
0
  10
2.06544
  20
4.38244
  30
0
  11
1.98598
  21
4.48599
  31
0
  0
LINE
  8
0
  10
1.98598
  20
4.48599
  30
0
  11
1.88243
  21
4.56545
  31
0
  0
LINE
  8
0
  10
1.88243
  20
4.56545
  30
0
  11
1.76184
  21
4.6154
  31
0
  0
LINE
  8
0
  10
1.76184
  20
4.6154
  30
0
  11
1.63243
  21
4.63244
  31
0
  0
LINE
  8
0
  10
1.63243
  20
4.63244
  30
0
  11
1.50302
  21
4.6154
  31
0
  0
LINE
  8
0
  10
1.50302
  20
4.6154
  30
0
  11
1.38243
  21
4.56545
  31
0
  0
LINE
  8
0
  10
1.38243
  20
4.56545
  30
0
  11
1.27888
  21
4.48599
  31
0
  0
LINE
  8
0
  10
1.27888
  20
4.48599
  30
0
  11
1.19942
  21
4.38244
  31
0
  0
LINE
  8
0
  10
1.19942
  20
4.38244
  30
0
  11
1.14947
  21
4.26185
  31
0
  0
LINE
  8
0
  10
1.14947
  20
4.26185
  30
0
  11
1.13243
  21
4.13244
  31
0
  0
LINE
  8
0
  10
1.13243
  20
4.13244
  30
0
  11
1.14947
  21
4.00303
  31
0
  0
LINE
  8
0
  10
1.14947
  20
4.00303
  30
0
  11
1.19942
  21
3.88244
  31
0
  0
LINE
  8
0
  10
1.19942
  20
3.88244
  30
0
  11
1.27888
  21
3.77888
  31
0
  0
LINE
  8
0
  10
1.27888
  20
3.77888
  30
0
  11
1.38243
  21
3.69942
  31
0
  0
LINE
  8
0
  10
1.38243
  20
3.69942
  30
0
  11
1.50302
  21
3.64947
  31
0
  0
LINE
  8
0
  10
1.50302
  20
3.64947
  30
0
  11
1.63243
  21
3.63244
  31
0
  0
LINE
  8
0
  10
1.63243
  20
3.63244
  30
0
  11
1.76184
  21
3.64947
  31
0
  0
LINE
  8
0
  10
1.76184
  20
3.64947
  30
0
  11
1.88243
  21
3.69942
  31
0
  0
LINE
  8
0
  10
1.88243
  20
3.69942
  30
0
  11
1.98598
  21
3.77888
  31
0
  0
LINE
  8
0
  10
1.98598
  20
3.77888
  30
0
  11
2.06544
  21
3.88244
  31
0
  0
LINE
  8
0
  10
2.06544
  20
3.88244
  30
0
  11
2.11539
  21
4.00303
  31
0
  0
LINE
  8
0
  10
2.11539
  20
4.00303
  30
0
  11
2.13243
  21
4.13244
  31
0
  0
LINE
  8
0
  10
2.13243
  20
4.13244
  30
0
  11
2.13243
  21
4.13244
  31
0
  0
LINE
  8
0
  10
0.69935
  20
4.14221
  30
0
  11
0.42648
  21
4.14507
  31
0
  0
LINE
  8
0
  10
0.82924
  20
4.60744
  30
0
  11
0.59436
  21
4.74635
  31
0
  0
LINE
  8
0
  10
1.17435
  20
4.9454
  30
0
  11
1.04039
  21
5.18313
  31
0
  0
LINE
  8
0
  10
1.6422
  20
5.06552
  30
0
  11
1.64506
  21
5.33839
  31
0
  0
LINE
  8
0
  10
2.10744
  20
4.93563
  30
0
  11
2.24634
  21
5.1705
  31
0
  0
LINE
  8
0
  10
2.44539
  20
4.59052
  30
0
  11
2.68313
  21
4.72447
  31
0
  0
LINE
  8
0
  10
2.56552
  20
4.12267
  30
0
  11
2.83838
  21
4.11981
  31
0
  0
LINE
  8
0
  10
2.43562
  20
3.65743
  30
0
  11
2.6705
  21
3.51853
  31
0
  0
LINE
  8
0
  10
2.09051
  20
3.31948
  30
0
  11
2.22447
  21
3.08174
  31
0
  0
LINE
  8
0
  10
1.62266
  20
3.19935
  30
0
  11
1.6198
  21
2.92649
  31
0
  0
LINE
  8
0
  10
1.15743
  20
3.32925
  30
0
  11
1.01852
  21
3.09437
  31
0
  0
LINE
  8
0
  10
0.81947
  20
3.67436
  30
0
  11
0.58173
  21
3.5404
  31
0
  0
LINE
  8
0
  10
2.70386
  20
4.13244
  30
0
  11
2.70386
  21
4.13244
  31
0
  0
LINE
  8
0
  10
2.70386
  20
4.13244
  30
0
  11
2.70175
  21
4.19971
  31
0
  0
LINE
  8
0
  10
2.70175
  20
4.19971
  30
0
  11
2.69541
  21
4.26672
  31
0
  0
LINE
  8
0
  10
2.69541
  20
4.26672
  30
0
  11
2.68488
  21
4.3332
  31
0
  0
LINE
  8
0
  10
2.68488
  20
4.3332
  30
0
  11
2.6702
  21
4.39889
  31
0
  0
LINE
  8
0
  10
2.6702
  20
4.39889
  30
0
  11
2.65142
  21
4.46353
  31
0
  0
LINE
  8
0
  10
2.65142
  20
4.46353
  30
0
  11
2.62862
  21
4.52686
  31
0
  0
LINE
  8
0
  10
2.62862
  20
4.52686
  30
0
  11
2.60189
  21
4.58863
  31
0
  0
LINE
  8
0
  10
2.60189
  20
4.58863
  30
0
  11
2.57133
  21
4.6486
  31
0
  0
LINE
  8
0
  10
2.57133
  20
4.6486
  30
0
  11
2.53707
  21
4.70654
  31
0
  0
LINE
  8
0
  10
2.53707
  20
4.70654
  30
0
  11
2.49924
  21
4.76221
  31
0
  0
LINE
  8
0
  10
2.49924
  20
4.76221
  30
0
  11
2.45798
  21
4.81539
  31
0
  0
LINE
  8
0
  10
2.45798
  20
4.81539
  30
0
  11
2.41347
  21
4.86588
  31
0
  0
LINE
  8
0
  10
2.41347
  20
4.86588
  30
0
  11
2.36588
  21
4.91348
  31
0
  0
LINE
  8
0
  10
2.36588
  20
4.91348
  30
0
  11
2.31539
  21
4.95799
  31
0
  0
LINE
  8
0
  10
2.31539
  20
4.95799
  30
0
  11
2.2622
  21
4.99924
  31
0
  0
LINE
  8
0
  10
2.2622
  20
4.99924
  30
0
  11
2.20653
  21
5.03708
  31
0
  0
LINE
  8
0
  10
2.20653
  20
5.03708
  30
0
  11
2.1486
  21
5.07134
  31
0
  0
LINE
  8
0
  10
2.1486
  20
5.07134
  30
0
  11
2.08862
  21
5.1019
  31
0
  0
LINE
  8
0
  10
2.08862
  20
5.1019
  30
0
  11
2.02685
  21
5.12863
  31
0
  0
LINE
  8
0
  10
2.02685
  20
5.12863
  30
0
  11
1.96352
  21
5.15143
  31
0
  0
LINE
  8
0
  10
1.96352
  20
5.15143
  30
0
  11
1.89889
  21
5.17021
  31
0
  0
LINE
  8
0
  10
1.89889
  20
5.17021
  30
0
  11
1.8332
  21
5.18489
  31
0
  0
LINE
  8
0
  10
1.8332
  20
5.18489
  30
0
  11
1.76672
  21
5.19542
  31
0
  0
LINE
  8
0
  10
1.76672
  20
5.19542
  30
0
  11
1.69971
  21
5.20175
  31
0
  0
LINE
  8
0
  10
1.69971
  20
5.20175
  30
0
  11
1.63243
  21
5.20387
  31
0
  0
LINE
  8
0
  10
1.63243
  20
5.20387
  30
0
  11
1.56516
  21
5.20175
  31
0
  0
LINE
  8
0
  10
1.56516
  20
5.20175
  30
0
  11
1.49815
  21
5.19542
  31
0
  0
LINE
  8
0
  10
1.49815
  20
5.19542
  30
0
  11
1.43166
  21
5.18489
  31
0
  0
LINE
  8
0
  10
1.43166
  20
5.18489
  30
0
  11
1.36598
  21
5.17021
  31
0
  0
LINE
  8
0
  10
1.36598
  20
5.17021
  30
0
  11
1.30134
  21
5.15143
  31
0
  0
LINE
  8
0
  10
1.30134
  20
5.15143
  30
0
  11
1.23801
  21
5.12863
  31
0
  0
LINE
  8
0
  10
1.23801
  20
5.12863
  30
0
  11
1.17624
  21
5.1019
  31
0
  0
LINE
  8
0
  10
1.17624
  20
5.1019
  30
0
  11
1.11627
  21
5.07134
  31
0
  0
LINE
  8
0
  10
1.11627
  20
5.07134
  30
0
  11
1.05833
  21
5.03708
  31
0
  0
LINE
  8
0
  10
1.05833
  20
5.03708
  30
0
  11
1.00266
  21
4.99924
  31
0
  0
LINE
  8
0
  10
1.00266
  20
4.99924
  30
0
  11
0.94948
  21
4.95799
  31
0
  0
LINE
  8
0
  10
0.94948
  20
4.95799
  30
0
  11
0.89899
  21
4.91348
  31
0
  0
LINE
  8
0
  10
0.89899
  20
4.91348
  30
0
  11
0.85139
  21
4.86588
  31
0
  0
LINE
  8
0
  10
0.85139
  20
4.86588
  30
0
  11
0.80688
  21
4.81539
  31
0
  0
LINE
  8
0
  10
0.80688
  20
4.81539
  30
0
  11
0.76563
  21
4.76221
  31
0
  0
LINE
  8
0
  10
0.76563
  20
4.76221
  30
0
  11
0.72779
  21
4.70654
  31
0
  0
LINE
  8
0
  10
0.72779
  20
4.70654
  30
0
  11
0.69353
  21
4.6486
  31
0
  0
LINE
  8
0
  10
0.69353
  20
4.6486
  30
0
  11
0.66297
  21
4.58863
  31
0
  0
LINE
  8
0
  10
0.66297
  20
4.58863
  30
0
  11
0.63624
  21
4.52686
  31
0
  0
LINE
  8
0
  10
0.63624
  20
4.52686
  30
0
  11
0.61344
  21
4.46353
  31
0
  0
LINE
  8
0
  10
0.61344
  20
4.46353
  30
0
  11
0.59466
  21
4.39889
  31
0
  0
LINE
  8
0
  10
0.59466
  20
4.39889
  30
0
  11
0.57998
  21
4.3332
  31
0
  0
LINE
  8
0
  10
0.57998
  20
4.3332
  30
0
  11
0.56945
  21
4.26672
  31
0
  0
LINE
  8
0
  10
0.56945
  20
4.26672
  30
0
  11
0.56311
  21
4.19971
  31
0
  0
LINE
  8
0
  10
0.56311
  20
4.19971
  30
0
  11
0.561
  21
4.13244
  31
0
  0
LINE
  8
0
  10
0.561
  20
4.13244
  30
0
  11
0.56311
  21
4.06516
  31
0
  0
LINE
  8
0
  10
0.56311
  20
4.06516
  30
0
  11
0.56945
  21
3.99815
  31
0
  0
LINE
  8
0
  10
0.56945
  20
3.99815
  30
0
  11
0.57998
  21
3.93167
  31
0
  0
LINE
  8
0
  10
0.57998
  20
3.93167
  30
0
  11
0.59466
  21
3.86598
  31
0
  0
LINE
  8
0
  10
0.59466
  20
3.86598
  30
0
  11
0.61344
  21
3.80135
  31
0
  0
LINE
  8
0
  10
0.61344
  20
3.80135
  30
0
  11
0.63624
  21
3.73802
  31
0
  0
LINE
  8
0
  10
0.63624
  20
3.73802
  30
0
  11
0.66297
  21
3.67624
  31
0
  0
LINE
  8
0
  10
0.66297
  20
3.67624
  30
0
  11
0.69353
  21
3.61627
  31
0
  0
LINE
  8
0
  10
0.69353
  20
3.61627
  30
0
  11
0.72779
  21
3.55834
  31
0
  0
LINE
  8
0
  10
0.72779
  20
3.55834
  30
0
  11
0.76563
  21
3.50267
  31
0
  0
LINE
  8
0
  10
0.76563
  20
3.50267
  30
0
  11
0.80688
  21
3.44948
  31
0
  0
LINE
  8
0
  10
0.80688
  20
3.44948
  30
0
  11
0.85139
  21
3.39899
  31
0
  0
LINE
  8
0
  10
0.85139
  20
3.39899
  30
0
  11
0.89899
  21
3.3514
  31
0
  0
LINE
  8
0
  10
0.89899
  20
3.3514
  30
0
  11
0.94948
  21
3.30689
  31
0
  0
LINE
  8
0
  10
0.94948
  20
3.30689
  30
0
  11
1.00266
  21
3.26563
  31
0
  0
LINE
  8
0
  10
1.00266
  20
3.26563
  30
0
  11
1.05833
  21
3.2278
  31
0
  0
LINE
  8
0
  10
1.05833
  20
3.2278
  30
0
  11
1.11627
  21
3.19353
  31
0
  0
LINE
  8
0
  10
1.11627
  20
3.19353
  30
0
  11
1.17624
  21
3.16298
  31
0
  0
LINE
  8
0
  10
1.17624
  20
3.16298
  30
0
  11
1.23801
  21
3.13625
  31
0
  0
LINE
  8
0
  10
1.23801
  20
3.13625
  30
0
  11
1.30134
  21
3.11345
  31
0
  0
LINE
  8
0
  10
1.30134
  20
3.11345
  30
0
  11
1.36598
  21
3.09467
  31
0
  0
LINE
  8
0
  10
1.36598
  20
3.09467
  30
0
  11
1.43166
  21
3.07998
  31
0
  0
LINE
  8
0
  10
1.43166
  20
3.07998
  30
0
  11
1.49815
  21
3.06945
  31
0
  0
LINE
  8
0
  10
1.49815
  20
3.06945
  30
0
  11
1.56516
  21
3.06312
  31
0
  0
LINE
  8
0
  10
1.56516
  20
3.06312
  30
0
  11
1.63243
  21
3.06101
  31
0
  0
LINE
  8
0
  10
1.63243
  20
3.06101
  30
0
  11
1.69971
  21
3.06312
  31
0
  0
LINE
  8
0
  10
1.69971
  20
3.06312
  30
0
  11
1.76672
  21
3.06945
  31
0
  0
LINE
  8
0
  10
1.76672
  20
3.06945
  30
0
  11
1.8332
  21
3.07998
  31
0
  0
LINE
  8
0
  10
1.8332
  20
3.07998
  30
0
  11
1.89889
  21
3.09467
  31
0
  0
LINE
  8
0
  10
1.89889
  20
3.09467
  30
0
  11
1.96352
  21
3.11345
  31
0
  0
LINE
  8
0
  10
1.96352
  20
3.11345
  30
0
  11
2.02685
  21
3.13625
  31
0
  0
LINE
  8
0
  10
2.02685
  20
3.13625
  30
0
  11
2.08862
  21
3.16298
  31
0
  0
LINE
  8
0
  10
2.08862
  20
3.16298
  30
0
  11
2.1486
  21
3.19353
  31
0
  0
LINE
  8
0
  10
2.1486
  20
3.19353
  30
0
  11
2.20653
  21
3.2278
  31
0
  0
LINE
  8
0
  10
2.20653
  20
3.2278
  30
0
  11
2.2622
  21
3.26563
  31
0
  0
LINE
  8
0
  10
2.2622
  20
3.26563
  30
0
  11
2.31539
  21
3.30689
  31
0
  0
LINE
  8
0
  10
2.31539
  20
3.30689
  30
0
  11
2.36588
  21
3.3514
  31
0
  0
LINE
  8
0
  10
2.36588
  20
3.3514
  30
0
  11
2.41347
  21
3.39899
  31
0
  0
LINE
  8
0
  10
2.41347
  20
3.39899
  30
0
  11
2.45798
  21
3.44948
  31
0
  0
LINE
  8
0
  10
2.45798
  20
3.44948
  30
0
  11
2.49924
  21
3.50267
  31
0
  0
LINE
  8
0
  10
2.49924
  20
3.50267
  30
0
  11
2.53707
  21
3.55834
  31
0
  0
LINE
  8
0
  10
2.53707
  20
3.55834
  30
0
  11
2.57133
  21
3.61627
  31
0
  0
LINE
  8
0
  10
2.57133
  20
3.61627
  30
0
  11
2.60189
  21
3.67624
  31
0
  0
LINE
  8
0
  10
2.60189
  20
3.67624
  30
0
  11
2.62862
  21
3.73802
  31
0
  0
LINE
  8
0
  10
2.62862
  20
3.73802
  30
0
  11
2.65142
  21
3.80135
  31
0
  0
LINE
  8
0
  10
2.65142
  20
3.80135
  30
0
  11
2.6702
  21
3.86598
  31
0
  0
LINE
  8
0
  10
2.6702
  20
3.86598
  30
0
  11
2.68488
  21
3.93167
  31
0
  0
LINE
  8
0
  10
2.68488
  20
3.93167
  30
0
  11
2.69541
  21
3.99815
  31
0
  0
LINE
  8
0
  10
2.69541
  20
3.99815
  30
0
  11
2.70175
  21
4.06516
  31
0
  0
LINE
  8
0
  10
2.70175
  20
4.06516
  30
0
  11
2.70386
  21
4.13244
  31
0
  0
LINE
  8
0
  10
2.70386
  20
4.13244
  30
0
  11
2.70386
  21
4.13244
  31
0
  0
LINE
  8
0
  10
1.23043
  20
4.13244
  30
0
  11
2.03444
  21
4.13244
  31
0
  0
LINE
  8
0
  10
1.63243
  20
3.73043
  30
0
  11
1.63243
  21
4.53444
  31
0
  0
ENDSEC
  0
EOF
