  999
DXF file created by gear template generator.  2015-10-06T15:59:35
  0
SECTION
  2
ENTITIES
 0
LINE
 8
b
 10
0.561
 20
0
 30
0
 11
0.561
 21
8.26487
 31
 0
 0
LINE
 8
b
 10
1.561
 20
0
 30
0
 11
1.561
 21
8.26487
 31
 0
 0
LINE
 8
b
 10
2.561
 20
0
 30
0
 11
2.561
 21
8.26487
 31
 0
 0
LINE
 8
b
 10
3.561
 20
0
 30
0
 11
3.561
 21
8.26487
 31
 0
 0
LINE
 8
b
 10
4.561
 20
0
 30
0
 11
4.561
 21
8.26487
 31
 0
 0
LINE
 8
b
 10
5.561
 20
0
 30
0
 11
5.561
 21
8.26487
 31
 0
 0
LINE
 8
b
 10
6.561
 20
0
 30
0
 11
6.561
 21
8.26487
 31
 0
 0
LINE
 8
b
 10
7.561
 20
0
 30
0
 11
7.561
 21
8.26487
 31
 0
 0
LINE
 8
b
 10
0
 20
0.13244
 30
0
 11
8.26487
 21
0.13244
 31
 0
 0
LINE
 8
b
 10
0
 20
1.13244
 30
0
 11
8.26487
 21
1.13244
 31
 0
 0
LINE
 8
b
 10
0
 20
2.13244
 30
0
 11
8.26487
 21
2.13244
 31
 0
 0
LINE
 8
b
 10
0
 20
3.13244
 30
0
 11
8.26487
 21
3.13244
 31
 0
 0
LINE
 8
b
 10
0
 20
4.13244
 30
0
 11
8.26487
 21
4.13244
 31
 0
 0
LINE
 8
b
 10
0
 20
5.13244
 30
0
 11
8.26487
 21
5.13244
 31
 0
 0
LINE
 8
b
 10
0
 20
6.13244
 30
0
 11
8.26487
 21
6.13244
 31
 0
 0
LINE
 8
b
 10
0
 20
7.13244
 30
0
 11
8.26487
 21
7.13244
 31
 0
 0
LINE
 8
b
 10
0
 20
8.13244
 30
0
 11
8.26487
 21
8.13244
 31
 0
 0
LINE
 8
b
 10
0.69344
 20
0
 30
0
 11
0
 21
0.69344
 31
 0
 0
LINE
 8
b
 10
2.69344
 20
0
 30
0
 11
0
 21
2.69344
 31
 0
 0
LINE
 8
b
 10
4.69344
 20
0
 30
0
 11
0
 21
4.69344
 31
 0
 0
LINE
 8
b
 10
6.69344
 20
0
 30
0
 11
0
 21
6.69344
 31
 0
 0
LINE
 8
b
 10
8.26487
 20
0.42856
 30
0
 11
0.42856
 21
8.26487
 31
 0
 0
LINE
 8
b
 10
8.26487
 20
2.42856
 30
0
 11
2.42856
 21
8.26487
 31
 0
 0
LINE
 8
b
 10
8.26487
 20
4.42856
 30
0
 11
4.42856
 21
8.26487
 31
 0
 0
LINE
 8
b
 10
8.26487
 20
6.42856
 30
0
 11
6.42856
 21
8.26487
 31
 0
 0
LINE
 8
b
 10
0
 20
7.57144
 30
0
 11
0.69344
 21
8.26487
 31
 0
 0
LINE
 8
b
 10
0
 20
5.57144
 30
0
 11
2.69344
 21
8.26487
 31
 0
 0
LINE
 8
b
 10
0
 20
3.57144
 30
0
 11
4.69344
 21
8.26487
 31
 0
 0
LINE
 8
b
 10
0
 20
1.57144
 30
0
 11
6.69344
 21
8.26487
 31
 0
 0
LINE
 8
b
 10
0.42856
 20
0
 30
0
 11
8.26487
 21
7.83631
 31
 0
 0
LINE
 8
b
 10
2.42856
 20
0
 30
0
 11
8.26487
 21
5.83631
 31
 0
 0
LINE
 8
b
 10
4.42856
 20
0
 30
0
 11
8.26487
 21
3.83631
 31
 0
 0
LINE
 8
b
 10
6.42856
 20
0
 30
0
 11
8.26487
 21
1.83631
 31
 0
 0
LWPOLYLINE
 8
a
 90
720
 70
1
 10
0.70256
 20
3.98273
 10
0.69117
 20
3.98285
 10
0.67977
 20
3.98349
 10
0.65691
 20
3.98572
 10
0.6111
 20
3.99292
 10
0.5652
 20
4.00297
 10
0.51927
 20
4.0154
 10
0.47333
 20
4.02995
 10
0.42741
 20
4.04645
 10
0.42803
 20
4.2417
 10
0.47405
 20
4.25791
 10
0.52008
 20
4.27217
 10
0.56609
 20
4.28431
 10
0.61204
 20
4.29407
 10
0.6579
 20
4.30099
 10
0.68077
 20
4.30307
 10
0.69218
 20
4.30364
 10
0.70357
 20
4.30369
 10
0.72137
 20
4.52112
 10
0.71014
 20
4.52303
 10
0.69897
 20
4.52544
 10
0.67675
 20
4.53122
 10
0.63263
 20
4.5455
 10
0.58887
 20
4.5626
 10
0.54545
 20
4.58207
 10
0.50235
 20
4.60362
 10
0.45958
 20
4.6271
 10
0.49073
 20
4.81985
 10
0.53872
 20
4.82867
 10
0.58641
 20
4.83555
 10
0.63375
 20
4.84034
 10
0.68067
 20
4.84279
 10
0.72705
 20
4.84245
 10
0.74996
 20
4.84093
 10
0.76132
 20
4.83971
 10
0.77257
 20
4.83798
 10
0.82417
 20
5.04994
 10
0.81338
 20
5.05358
 10
0.80273
 20
5.05772
 10
0.78168
 20
5.0669
 10
0.74033
 20
5.0879
 10
0.69979
 20
5.11164
 10
0.65995
 20
5.13766
 10
0.62075
 20
5.16569
 10
0.58218
 20
5.19557
 10
0.6431
 20
5.38108
 10
0.69188
 20
5.38228
 10
0.74006
 20
5.38161
 10
0.78757
 20
5.37894
 10
0.83429
 20
5.37402
 10
0.88004
 20
5.36643
 10
0.90244
 20
5.36134
 10
0.91347
 20
5.35836
 10
0.92431
 20
5.35489
 10
1.00843
 20
5.55618
 10
0.99834
 20
5.56146
 10
0.98847
 20
5.56721
 10
0.96911
 20
5.57957
 10
0.93156
 20
5.60678
 10
0.89523
 20
5.63657
 10
0.85995
 20
5.6685
 10
0.82562
 20
5.70232
 10
0.7922
 20
5.73787
 10
0.88139
 20
5.91156
 10
0.92975
 20
5.90511
 10
0.97724
 20
5.89692
 10
1.02375
 20
5.88685
 10
1.06913
 20
5.87468
 10
1.11312
 20
5.86002
 10
1.13445
 20
5.8515
 10
1.14487
 20
5.84682
 10
1.15504
 20
5.8417
 10
1.26961
 20
6.02735
 10
1.26047
 20
6.03414
 10
1.25162
 20
6.04137
 10
1.23444
 20
6.0566
 10
1.20161
 20
6.08936
 10
1.17039
 20
6.12446
 10
1.14053
 20
6.16152
 10
1.11192
 20
6.20029
 10
1.08447
 20
6.24063
 10
1.19973
 20
6.39823
 10
1.24649
 20
6.3843
 10
1.29211
 20
6.36878
 10
1.33647
 20
6.35155
 10
1.37939
 20
6.33244
 10
1.42055
 20
6.31108
 10
1.44028
 20
6.29932
 10
1.44984
 20
6.29307
 10
1.45909
 20
6.28642
 10
1.60129
 20
6.45186
 10
1.59333
 20
6.46001
 10
1.58571
 20
6.46852
 10
1.57112
 20
6.48626
 10
1.54382
 20
6.52375
 10
1.51848
 20
6.56331
 10
1.49479
 20
6.60457
 10
1.47259
 20
6.64735
 10
1.45179
 20
6.69148
 10
1.59029
 20
6.82911
 10
1.63429
 20
6.80803
 10
1.67692
 20
6.78557
 10
1.71804
 20
6.76162
 10
1.75744
 20
6.73602
 10
1.79475
 20
6.70849
 10
1.8124
 20
6.69379
 10
1.82087
 20
6.68612
 10
1.82896
 20
6.67811
 10
1.99529
 20
6.81927
 10
1.9887
 20
6.82855
 10
1.98251
 20
6.83816
 10
1.97088
 20
6.85796
 10
1.94978
 20
6.89926
 10
1.93093
 20
6.94229
 10
1.91399
 20
6.98676
 10
1.89875
 20
7.03248
 10
1.88511
 20
7.07932
 10
2.04344
 20
7.19359
 10
2.0836
 20
7.16589
 10
2.12219
 20
7.13703
 10
2.15906
 20
7.10694
 10
2.19397
 20
7.0755
 10
2.22652
 20
7.04247
 10
2.24165
 20
7.02519
 10
2.24881
 20
7.01629
 10
2.25555
 20
7.00711
 10
2.44191
 20
7.12051
 10
2.43686
 20
7.13071
 10
2.43225
 20
7.14117
 10
2.42386
 20
7.16255
 10
2.40947
 20
7.20663
 10
2.39759
 20
7.25209
 10
2.38781
 20
7.29866
 10
2.37992
 20
7.3462
 10
2.37378
 20
7.3946
 10
2.54803
 20
7.4827
 10
2.58336
 20
7.44905
 10
2.61697
 20
7.41451
 10
2.64867
 20
7.37903
 10
2.67823
 20
7.34251
 10
2.70521
 20
7.30479
 10
2.71745
 20
7.28536
 10
2.72314
 20
7.27545
 10
2.72835
 20
7.26533
 10
2.93016
 20
7.34818
 10
2.92677
 20
7.35905
 10
2.92385
 20
7.37009
 10
2.9189
 20
7.39252
 10
2.9116
 20
7.43832
 10
2.90697
 20
7.48507
 10
2.9046
 20
7.5326
 10
2.90424
 20
7.58078
 10
2.90574
 20
7.62955
 10
3.09163
 20
7.6893
 10
3.12127
 20
7.65055
 10
3.14905
 20
7.61118
 10
3.17482
 20
7.57117
 10
3.1983
 20
7.53048
 10
3.21905
 20
7.489
 10
3.2281
 20
7.4679
 10
3.23216
 20
7.45722
 10
3.23573
 20
7.44641
 10
3.44802
 20
7.49667
 10
3.44636
 20
7.50793
 10
3.44521
 20
7.5193
 10
3.44383
 20
7.54222
 10
3.44378
 20
7.5886
 10
3.44653
 20
7.6355
 10
3.45162
 20
7.68281
 10
3.4588
 20
7.73046
 10
3.46792
 20
7.77839
 10
3.66086
 20
7.80833
 10
3.68407
 20
7.76541
 10
3.70535
 20
7.72218
 10
3.72454
 20
7.67864
 10
3.74137
 20
7.63477
 10
3.75538
 20
7.59056
 10
3.76101
 20
7.5683
 10
3.76336
 20
7.55712
 10
3.76519
 20
7.54588
 10
3.98273
 20
7.56231
 10
3.98285
 20
7.5737
 10
3.98349
 20
7.58511
 10
3.98572
 20
7.60796
 10
3.99292
 20
7.65378
 10
4.00297
 20
7.69967
 10
4.0154
 20
7.7456
 10
4.02995
 20
7.79154
 10
4.04645
 20
7.83746
 10
4.2417
 20
7.83685
 10
4.25791
 20
7.79083
 10
4.27217
 20
7.7448
 10
4.28431
 20
7.69879
 10
4.29407
 20
7.65283
 10
4.30099
 20
7.60697
 10
4.30307
 20
7.5841
 10
4.30364
 20
7.57269
 10
4.30369
 20
7.5613
 10
4.52112
 20
7.54351
 10
4.52303
 20
7.55473
 10
4.52544
 20
7.5659
 10
4.53122
 20
7.58813
 10
4.5455
 20
7.63225
 10
4.5626
 20
7.676
 10
4.58207
 20
7.71943
 10
4.60362
 20
7.76253
 10
4.6271
 20
7.8053
 10
4.81985
 20
7.77415
 10
4.82867
 20
7.72616
 10
4.83555
 20
7.67846
 10
4.84034
 20
7.63112
 10
4.84279
 20
7.5842
 10
4.84245
 20
7.53783
 10
4.84093
 20
7.51491
 10
4.83971
 20
7.50355
 10
4.83798
 20
7.4923
 10
5.04994
 20
7.44071
 10
5.05358
 20
7.4515
 10
5.05772
 20
7.46215
 10
5.0669
 20
7.4832
 10
5.0879
 20
7.52454
 10
5.11164
 20
7.56508
 10
5.13766
 20
7.60493
 10
5.16569
 20
7.64412
 10
5.19557
 20
7.68269
 10
5.38108
 20
7.62178
 10
5.38228
 20
7.573
 10
5.38161
 20
7.52481
 10
5.37894
 20
7.4773
 10
5.37402
 20
7.43058
 10
5.36643
 20
7.38483
 10
5.36134
 20
7.36244
 10
5.35836
 20
7.35141
 10
5.35489
 20
7.34056
 10
5.55618
 20
7.25645
 10
5.56146
 20
7.26653
 10
5.56721
 20
7.27641
 10
5.57957
 20
7.29576
 10
5.60678
 20
7.33331
 10
5.63657
 20
7.36964
 10
5.6685
 20
7.40492
 10
5.70232
 20
7.43925
 10
5.73787
 20
7.47267
 10
5.91156
 20
7.38349
 10
5.90511
 20
7.33512
 10
5.89692
 20
7.28763
 10
5.88685
 20
7.24113
 10
5.87468
 20
7.19575
 10
5.86002
 20
7.15175
 10
5.8515
 20
7.13043
 10
5.84682
 20
7.12
 10
5.8417
 20
7.10983
 10
6.02735
 20
6.99526
 10
6.03414
 20
7.0044
 10
6.04137
 20
7.01325
 10
6.0566
 20
7.03043
 10
6.08936
 20
7.06326
 10
6.12446
 20
7.09449
 10
6.16152
 20
7.12434
 10
6.20029
 20
7.15296
 10
6.24063
 20
7.18041
 10
6.39823
 20
7.06514
 10
6.3843
 20
7.01838
 10
6.36878
 20
6.97276
 10
6.35155
 20
6.9284
 10
6.33244
 20
6.88549
 10
6.31108
 20
6.84432
 10
6.29932
 20
6.8246
 10
6.29307
 20
6.81503
 10
6.28642
 20
6.80579
 10
6.45186
 20
6.66359
 10
6.46001
 20
6.67155
 10
6.46852
 20
6.67916
 10
6.48626
 20
6.69375
 10
6.52375
 20
6.72105
 10
6.56331
 20
6.7464
 10
6.60457
 20
6.77009
 10
6.64735
 20
6.79228
 10
6.69148
 20
6.81309
 10
6.82911
 20
6.67459
 10
6.80803
 20
6.63058
 10
6.78557
 20
6.58795
 10
6.76162
 20
6.54683
 10
6.73602
 20
6.50744
 10
6.70849
 20
6.47012
 10
6.69379
 20
6.45248
 10
6.68612
 20
6.44401
 10
6.67811
 20
6.43592
 10
6.81927
 20
6.26958
 10
6.82855
 20
6.27618
 10
6.83816
 20
6.28236
 10
6.85796
 20
6.294
 10
6.89926
 20
6.3151
 10
6.94229
 20
6.33394
 10
6.98676
 20
6.35089
 10
7.03248
 20
6.36612
 10
7.07932
 20
6.37976
 10
7.19359
 20
6.22144
 10
7.16589
 20
6.18127
 10
7.13703
 20
6.14268
 10
7.10694
 20
6.10581
 10
7.0755
 20
6.07091
 10
7.04247
 20
6.03836
 10
7.02519
 20
6.02323
 10
7.01629
 20
6.01606
 10
7.00711
 20
6.00932
 10
7.12051
 20
5.82296
 10
7.13071
 20
5.82802
 10
7.14117
 20
5.83263
 10
7.16255
 20
5.84102
 10
7.20663
 20
5.8554
 10
7.25209
 20
5.86728
 10
7.29866
 20
5.87706
 10
7.3462
 20
5.88495
 10
7.3946
 20
5.8911
 10
7.4827
 20
5.71685
 10
7.44905
 20
5.68151
 10
7.41451
 20
5.64791
 10
7.37903
 20
5.6162
 10
7.34251
 20
5.58664
 10
7.30479
 20
5.55966
 10
7.28536
 20
5.54742
 10
7.27545
 20
5.54174
 10
7.26533
 20
5.53652
 10
7.34818
 20
5.33471
 10
7.35905
 20
5.33811
 10
7.37009
 20
5.34103
 10
7.39252
 20
5.34597
 10
7.43832
 20
5.35328
 10
7.48507
 20
5.3579
 10
7.5326
 20
5.36027
 10
7.58078
 20
5.36063
 10
7.62955
 20
5.35913
 10
7.6893
 20
5.17325
 10
7.65055
 20
5.14361
 10
7.61118
 20
5.11582
 10
7.57117
 20
5.09006
 10
7.53048
 20
5.06657
 10
7.489
 20
5.04583
 10
7.4679
 20
5.03678
 10
7.45722
 20
5.03271
 10
7.44641
 20
5.02914
 10
7.49667
 20
4.81685
 10
7.50793
 20
4.81851
 10
7.5193
 20
4.81967
 10
7.54222
 20
4.82104
 10
7.5886
 20
4.82109
 10
7.6355
 20
4.81835
 10
7.68281
 20
4.81326
 10
7.73046
 20
4.80607
 10
7.77839
 20
4.79696
 10
7.80833
 20
4.60401
 10
7.76541
 20
4.5808
 10
7.72218
 20
4.55952
 10
7.67864
 20
4.54033
 10
7.63477
 20
4.5235
 10
7.59056
 20
4.5095
 10
7.5683
 20
4.50386
 10
7.55712
 20
4.50152
 10
7.54588
 20
4.49968
 10
7.56231
 20
4.28215
 10
7.5737
 20
4.28202
 10
7.58511
 20
4.28138
 10
7.60796
 20
4.27915
 10
7.65378
 20
4.27195
 10
7.69967
 20
4.2619
 10
7.7456
 20
4.24947
 10
7.79154
 20
4.23492
 10
7.83746
 20
4.21842
 10
7.83685
 20
4.02317
 10
7.79083
 20
4.00696
 10
7.7448
 20
3.9927
 10
7.69879
 20
3.98056
 10
7.65283
 20
3.9708
 10
7.60697
 20
3.96389
 10
7.5841
 20
3.9618
 10
7.57269
 20
3.96123
 10
7.5613
 20
3.96118
 10
7.54351
 20
3.74375
 10
7.55473
 20
3.74185
 10
7.5659
 20
3.73943
 10
7.58813
 20
3.73366
 10
7.63225
 20
3.71937
 10
7.676
 20
3.70227
 10
7.71943
 20
3.68281
 10
7.76253
 20
3.66125
 10
7.8053
 20
3.63777
 10
7.77415
 20
3.44502
 10
7.72616
 20
3.43621
 10
7.67846
 20
3.42932
 10
7.63112
 20
3.42453
 10
7.5842
 20
3.42208
 10
7.53783
 20
3.42242
 10
7.51491
 20
3.42394
 10
7.50355
 20
3.42517
 10
7.4923
 20
3.4269
 10
7.44071
 20
3.21493
 10
7.4515
 20
3.21129
 10
7.46215
 20
3.20716
 10
7.4832
 20
3.19798
 10
7.52454
 20
3.17697
 10
7.56508
 20
3.15323
 10
7.60493
 20
3.12721
 10
7.64412
 20
3.09918
 10
7.68269
 20
3.0693
 10
7.62178
 20
2.88379
 10
7.573
 20
2.8826
 10
7.52481
 20
2.88326
 10
7.4773
 20
2.88593
 10
7.43058
 20
2.89085
 10
7.38483
 20
2.89844
 10
7.36244
 20
2.90353
 10
7.35141
 20
2.90652
 10
7.34056
 20
2.90998
 10
7.25645
 20
2.7087
 10
7.26653
 20
2.70342
 10
7.27641
 20
2.69767
 10
7.29576
 20
2.68531
 10
7.33331
 20
2.65809
 10
7.36964
 20
2.6283
 10
7.40492
 20
2.59637
 10
7.43925
 20
2.56255
 10
7.47267
 20
2.52701
 10
7.38349
 20
2.35331
 10
7.33512
 20
2.35976
 10
7.28763
 20
2.36795
 10
7.24113
 20
2.37803
 10
7.19575
 20
2.39019
 10
7.15175
 20
2.40485
 10
7.13043
 20
2.41338
 10
7.12
 20
2.41805
 10
7.10983
 20
2.42317
 10
6.99526
 20
2.23752
 10
7.0044
 20
2.23073
 10
7.01325
 20
2.22351
 10
7.03043
 20
2.20827
 10
7.06326
 20
2.17552
 10
7.09449
 20
2.14041
 10
7.12434
 20
2.10335
 10
7.15296
 20
2.06458
 10
7.18041
 20
2.02424
 10
7.06514
 20
1.86664
 10
7.01838
 20
1.88058
 10
6.97276
 20
1.8961
 10
6.9284
 20
1.91332
 10
6.88549
 20
1.93244
 10
6.84432
 20
1.9538
 10
6.8246
 20
1.96555
 10
6.81503
 20
1.9718
 10
6.80579
 20
1.97845
 10
6.66359
 20
1.81301
 10
6.67155
 20
1.80487
 10
6.67916
 20
1.79635
 10
6.69375
 20
1.77861
 10
6.72105
 20
1.74113
 10
6.7464
 20
1.70157
 10
6.77009
 20
1.6603
 10
6.79228
 20
1.61753
 10
6.81309
 20
1.57339
 10
6.67459
 20
1.43576
 10
6.63058
 20
1.45684
 10
6.58795
 20
1.47931
 10
6.54683
 20
1.50326
 10
6.50744
 20
1.52885
 10
6.47012
 20
1.55639
 10
6.45248
 20
1.57108
 10
6.44401
 20
1.57875
 10
6.43592
 20
1.58676
 10
6.26958
 20
1.44561
 10
6.27618
 20
1.43632
 10
6.28236
 20
1.42672
 10
6.294
 20
1.40692
 10
6.3151
 20
1.36562
 10
6.33394
 20
1.32258
 10
6.35089
 20
1.27812
 10
6.36612
 20
1.2324
 10
6.37976
 20
1.18555
 10
6.22144
 20
1.07128
 10
6.18127
 20
1.09898
 10
6.14268
 20
1.12784
 10
6.10581
 20
1.15793
 10
6.07091
 20
1.18937
 10
6.03836
 20
1.22241
 10
6.02323
 20
1.23968
 10
6.01606
 20
1.24858
 10
6.00932
 20
1.25776
 10
5.82296
 20
1.14436
 10
5.82802
 20
1.13416
 10
5.83263
 20
1.1237
 10
5.84102
 20
1.10233
 10
5.8554
 20
1.05824
 10
5.86728
 20
1.01279
 10
5.87706
 20
0.96622
 10
5.88495
 20
0.91868
 10
5.8911
 20
0.87027
 10
5.71685
 20
0.78218
 10
5.68151
 20
0.81582
 10
5.64791
 20
0.85036
 10
5.6162
 20
0.88585
 10
5.58664
 20
0.92236
 10
5.55966
 20
0.96008
 10
5.54742
 20
0.97951
 10
5.54174
 20
0.98942
 10
5.53652
 20
0.99954
 10
5.33471
 20
0.91669
 10
5.33811
 20
0.90583
 10
5.34103
 20
0.89478
 10
5.34597
 20
0.87235
 10
5.35328
 20
0.82656
 10
5.3579
 20
0.7798
 10
5.36027
 20
0.73228
 10
5.36063
 20
0.68409
 10
5.35913
 20
0.63532
 10
5.17325
 20
0.57557
 10
5.14361
 20
0.61433
 10
5.11582
 20
0.6537
 10
5.09006
 20
0.69371
 10
5.06657
 20
0.7344
 10
5.04583
 20
0.77587
 10
5.03678
 20
0.79698
 10
5.03271
 20
0.80766
 10
5.02914
 20
0.81847
 10
4.81685
 20
0.76821
 10
4.81851
 20
0.75694
 10
4.81967
 20
0.74557
 10
4.82104
 20
0.72265
 10
4.82109
 20
0.67628
 10
4.81835
 20
0.62938
 10
4.81326
 20
0.58206
 10
4.80607
 20
0.53441
 10
4.79696
 20
0.48648
 10
4.60401
 20
0.45654
 10
4.5808
 20
0.49946
 10
4.55952
 20
0.54269
 10
4.54033
 20
0.58624
 10
4.5235
 20
0.6301
 10
4.5095
 20
0.67431
 10
4.50386
 20
0.69657
 10
4.50152
 20
0.70776
 10
4.49968
 20
0.71899
 10
4.28215
 20
0.70256
 10
4.28202
 20
0.69117
 10
4.28138
 20
0.67977
 10
4.27915
 20
0.65691
 10
4.27195
 20
0.6111
 10
4.2619
 20
0.5652
 10
4.24947
 20
0.51927
 10
4.23492
 20
0.47333
 10
4.21842
 20
0.42741
 10
4.02317
 20
0.42803
 10
4.00696
 20
0.47405
 10
3.9927
 20
0.52008
 10
3.98056
 20
0.56609
 10
3.9708
 20
0.61204
 10
3.96389
 20
0.6579
 10
3.9618
 20
0.68077
 10
3.96123
 20
0.69218
 10
3.96118
 20
0.70357
 10
3.74375
 20
0.72137
 10
3.74185
 20
0.71014
 10
3.73943
 20
0.69897
 10
3.73366
 20
0.67675
 10
3.71937
 20
0.63263
 10
3.70227
 20
0.58887
 10
3.68281
 20
0.54545
 10
3.66125
 20
0.50235
 10
3.63777
 20
0.45958
 10
3.44502
 20
0.49073
 10
3.43621
 20
0.53872
 10
3.42932
 20
0.58641
 10
3.42453
 20
0.63375
 10
3.42208
 20
0.68067
 10
3.42242
 20
0.72705
 10
3.42394
 20
0.74996
 10
3.42517
 20
0.76132
 10
3.4269
 20
0.77257
 10
3.21493
 20
0.82417
 10
3.21129
 20
0.81338
 10
3.20716
 20
0.80273
 10
3.19798
 20
0.78168
 10
3.17697
 20
0.74033
 10
3.15323
 20
0.69979
 10
3.12721
 20
0.65995
 10
3.09918
 20
0.62075
 10
3.0693
 20
0.58218
 10
2.88379
 20
0.6431
 10
2.8826
 20
0.69188
 10
2.88326
 20
0.74006
 10
2.88593
 20
0.78757
 10
2.89085
 20
0.83429
 10
2.89844
 20
0.88004
 10
2.90353
 20
0.90244
 10
2.90652
 20
0.91347
 10
2.90998
 20
0.92431
 10
2.7087
 20
1.00843
 10
2.70342
 20
0.99834
 10
2.69767
 20
0.98847
 10
2.68531
 20
0.96911
 10
2.65809
 20
0.93156
 10
2.6283
 20
0.89523
 10
2.59637
 20
0.85995
 10
2.56255
 20
0.82562
 10
2.52701
 20
0.7922
 10
2.35331
 20
0.88139
 10
2.35976
 20
0.92975
 10
2.36795
 20
0.97724
 10
2.37803
 20
1.02375
 10
2.39019
 20
1.06913
 10
2.40485
 20
1.11312
 10
2.41338
 20
1.13445
 10
2.41805
 20
1.14487
 10
2.42317
 20
1.15504
 10
2.23752
 20
1.26961
 10
2.23073
 20
1.26047
 10
2.22351
 20
1.25162
 10
2.20827
 20
1.23444
 10
2.17552
 20
1.20161
 10
2.14041
 20
1.17039
 10
2.10335
 20
1.14053
 10
2.06458
 20
1.11192
 10
2.02424
 20
1.08447
 10
1.86664
 20
1.19973
 10
1.88058
 20
1.24649
 10
1.8961
 20
1.29211
 10
1.91332
 20
1.33647
 10
1.93244
 20
1.37939
 10
1.9538
 20
1.42055
 10
1.96555
 20
1.44028
 10
1.9718
 20
1.44984
 10
1.97845
 20
1.45909
 10
1.81301
 20
1.60129
 10
1.80487
 20
1.59333
 10
1.79635
 20
1.58571
 10
1.77861
 20
1.57112
 10
1.74113
 20
1.54382
 10
1.70157
 20
1.51848
 10
1.6603
 20
1.49479
 10
1.61753
 20
1.47259
 10
1.57339
 20
1.45179
 10
1.43576
 20
1.59029
 10
1.45684
 20
1.63429
 10
1.47931
 20
1.67692
 10
1.50326
 20
1.71804
 10
1.52885
 20
1.75744
 10
1.55639
 20
1.79475
 10
1.57108
 20
1.8124
 10
1.57875
 20
1.82087
 10
1.58676
 20
1.82896
 10
1.44561
 20
1.99529
 10
1.43632
 20
1.9887
 10
1.42672
 20
1.98251
 10
1.40692
 20
1.97088
 10
1.36562
 20
1.94978
 10
1.32258
 20
1.93093
 10
1.27812
 20
1.91399
 10
1.2324
 20
1.89875
 10
1.18555
 20
1.88511
 10
1.07128
 20
2.04344
 10
1.09898
 20
2.0836
 10
1.12784
 20
2.12219
 10
1.15793
 20
2.15906
 10
1.18937
 20
2.19397
 10
1.22241
 20
2.22652
 10
1.23968
 20
2.24165
 10
1.24858
 20
2.24881
 10
1.25776
 20
2.25555
 10
1.14436
 20
2.44191
 10
1.13416
 20
2.43686
 10
1.1237
 20
2.43225
 10
1.10233
 20
2.42386
 10
1.05824
 20
2.40947
 10
1.01279
 20
2.39759
 10
0.96622
 20
2.38781
 10
0.91868
 20
2.37992
 10
0.87027
 20
2.37378
 10
0.78218
 20
2.54803
 10
0.81582
 20
2.58336
 10
0.85036
 20
2.61697
 10
0.88585
 20
2.64867
 10
0.92236
 20
2.67823
 10
0.96008
 20
2.70521
 10
0.97951
 20
2.71745
 10
0.98942
 20
2.72314
 10
0.99954
 20
2.72835
 10
0.91669
 20
2.93016
 10
0.90583
 20
2.92677
 10
0.89478
 20
2.92385
 10
0.87235
 20
2.9189
 10
0.82656
 20
2.9116
 10
0.7798
 20
2.90697
 10
0.73228
 20
2.9046
 10
0.68409
 20
2.90424
 10
0.63532
 20
2.90574
 10
0.57557
 20
3.09163
 10
0.61433
 20
3.12127
 10
0.6537
 20
3.14905
 10
0.69371
 20
3.17482
 10
0.7344
 20
3.1983
 10
0.77587
 20
3.21905
 10
0.79698
 20
3.2281
 10
0.80766
 20
3.23216
 10
0.81847
 20
3.23573
 10
0.76821
 20
3.44802
 10
0.75694
 20
3.44636
 10
0.74557
 20
3.44521
 10
0.72265
 20
3.44383
 10
0.67628
 20
3.44378
 10
0.62938
 20
3.44653
 10
0.58206
 20
3.45162
 10
0.53441
 20
3.4588
 10
0.48648
 20
3.46792
 10
0.45654
 20
3.66086
 10
0.49946
 20
3.68407
 10
0.54269
 20
3.70535
 10
0.58624
 20
3.72454
 10
0.6301
 20
3.74137
 10
0.67431
 20
3.75538
 10
0.69657
 20
3.76101
 10
0.70776
 20
3.76336
 10
0.71899
 20
3.76519
 0
CIRCLE
 8
a
 10
4.13244
 20
4.13244
 40
4.13244
 0
CIRCLE
 8
a
 10
4.13244
 20
4.13244
 40
0.5
 0
LINE
 8
c
 10
0.69931
 20
4.14322
 30
0
 11
0.42643
 21
4.14408
 31
 0
 0
LINE
 8
c
 10
0.74327
 20
4.68015
 30
0
 11
0.47388
 21
4.72368
 31
 0
 0
LINE
 8
c
 10
0.87067
 20
5.20359
 30
0
 11
0.61142
 21
5.28873
 31
 0
 0
LINE
 8
c
 10
1.0784
 20
5.70065
 30
0
 11
0.83565
 21
5.8253
 31
 0
 0
LINE
 8
c
 10
1.36132
 20
6.1591
 30
0
 11
1.14106
 21
6.32019
 31
 0
 0
LINE
 8
c
 10
1.71248
 20
6.56765
 30
0
 11
1.52013
 21
6.76121
 31
 0
 0
LINE
 8
c
 10
2.12322
 20
6.91623
 30
0
 11
1.96352
 21
7.1375
 31
 0
 0
LINE
 8
c
 10
2.58344
 20
7.19627
 30
0
 11
2.46032
 21
7.4398
 31
 0
 0
LINE
 8
c
 10
3.0818
 20
7.40087
 30
0
 11
2.99829
 21
7.66065
 31
 0
 0
LINE
 8
c
 10
3.60603
 20
7.52498
 30
0
 11
3.56419
 21
7.79463
 31
 0
 0
LINE
 8
c
 10
4.14322
 20
7.56556
 30
0
 11
4.14408
 21
7.83844
 31
 0
 0
LINE
 8
c
 10
4.68015
 20
7.52161
 30
0
 11
4.72368
 21
7.79099
 31
 0
 0
LINE
 8
c
 10
5.20359
 20
7.3942
 30
0
 11
5.28873
 21
7.65346
 31
 0
 0
LINE
 8
c
 10
5.70065
 20
7.18648
 30
0
 11
5.8253
 21
7.42922
 31
 0
 0
LINE
 8
c
 10
6.1591
 20
6.90355
 30
0
 11
6.32019
 21
7.12381
 31
 0
 0
LINE
 8
c
 10
6.56765
 20
6.5524
 30
0
 11
6.76121
 21
6.74474
 31
 0
 0
LINE
 8
c
 10
6.91623
 20
6.14165
 30
0
 11
7.1375
 21
6.30135
 31
 0
 0
LINE
 8
c
 10
7.19627
 20
5.68143
 30
0
 11
7.4398
 21
5.80455
 31
 0
 0
LINE
 8
c
 10
7.40087
 20
5.18307
 30
0
 11
7.66065
 21
5.26658
 31
 0
 0
LINE
 8
c
 10
7.52498
 20
4.65884
 30
0
 11
7.79463
 21
4.70068
 31
 0
 0
LINE
 8
c
 10
7.56556
 20
4.12165
 30
0
 11
7.83844
 21
4.12079
 31
 0
 0
LINE
 8
c
 10
7.52161
 20
3.58473
 30
0
 11
7.79099
 21
3.54119
 31
 0
 0
LINE
 8
c
 10
7.3942
 20
3.06129
 30
0
 11
7.65346
 21
2.97615
 31
 0
 0
LINE
 8
c
 10
7.18648
 20
2.56422
 30
0
 11
7.42922
 21
2.43957
 31
 0
 0
LINE
 8
c
 10
6.90355
 20
2.10577
 30
0
 11
7.12381
 21
1.94468
 31
 0
 0
LINE
 8
c
 10
6.5524
 20
1.69722
 30
0
 11
6.74474
 21
1.50366
 31
 0
 0
LINE
 8
c
 10
6.14165
 20
1.34864
 30
0
 11
6.30135
 21
1.12737
 31
 0
 0
LINE
 8
c
 10
5.68143
 20
1.0686
 30
0
 11
5.80455
 21
0.82508
 31
 0
 0
LINE
 8
c
 10
5.18307
 20
0.86401
 30
0
 11
5.26658
 21
0.60422
 31
 0
 0
LINE
 8
c
 10
4.65884
 20
0.73989
 30
0
 11
4.70068
 21
0.47024
 31
 0
 0
LINE
 8
c
 10
4.12165
 20
0.69931
 30
0
 11
4.12079
 21
0.42643
 31
 0
 0
LINE
 8
c
 10
3.58473
 20
0.74327
 30
0
 11
3.54119
 21
0.47388
 31
 0
 0
LINE
 8
c
 10
3.06129
 20
0.87067
 30
0
 11
2.97615
 21
0.61142
 31
 0
 0
LINE
 8
c
 10
2.56422
 20
1.0784
 30
0
 11
2.43957
 21
0.83565
 31
 0
 0
LINE
 8
c
 10
2.10577
 20
1.36132
 30
0
 11
1.94468
 21
1.14106
 31
 0
 0
LINE
 8
c
 10
1.69722
 20
1.71248
 30
0
 11
1.50366
 21
1.52013
 31
 0
 0
LINE
 8
c
 10
1.34864
 20
2.12322
 30
0
 11
1.12737
 21
1.96352
 31
 0
 0
LINE
 8
c
 10
1.0686
 20
2.58344
 30
0
 11
0.82508
 21
2.46032
 31
 0
 0
LINE
 8
c
 10
0.86401
 20
3.0818
 30
0
 11
0.60422
 21
2.99829
 31
 0
 0
LINE
 8
c
 10
0.73989
 20
3.60603
 30
0
 11
0.47024
 21
3.56419
 31
 0
 0
CIRCLE
 8
c
 10
4.13244
 20
4.13244
 40
3.57144
 0
LINE
 8
a
 10
2.8971
 20
4.13244
 30
0
 11
5.36778
 21
4.13244
 31
 0
 0
LINE
 8
a
 10
4.13244
 20
2.8971
 30
0
 11
4.13244
 21
5.36778
 31
 0
 0
LWPOLYLINE
 8
a
 90
528
 70
1
 10
0.70914
 20
3.99723
 10
0.70326
 20
4.00638
 10
0.69826
 20
4.00945
 10
0.69342
 20
4.01142
 10
0.68866
 20
4.01277
 10
0.68396
 20
4.01371
 10
0.6793
 20
4.01434
 10
0.67007
 20
4.01487
 10
0.66093
 20
4.01466
 10
0.65186
 20
4.01386
 10
0.6339
 20
4.01086
 10
0.61613
 20
4.00633
 10
0.5985
 20
4.00075
 10
0.57999
 20
4.00215
 10
0.56131
 20
4.00501
 10
0.54253
 20
4.00904
 10
0.52367
 20
4.01412
 10
0.50476
 20
4.02017
 10
0.48582
 20
4.02712
 10
0.46687
 20
4.03494
 10
0.44794
 20
4.0436
 10
0.42903
 20
4.05306
 10
0.43096
 20
4.237
 10
0.45006
 20
4.24606
 10
0.46917
 20
4.25432
 10
0.48828
 20
4.26174
 10
0.50736
 20
4.2683
 10
0.52639
 20
4.27394
 10
0.54535
 20
4.27863
 10
0.56422
 20
4.28227
 10
0.58294
 20
4.28473
 10
0.60148
 20
4.28575
 10
0.61899
 20
4.2798
 10
0.63667
 20
4.27489
 10
0.65456
 20
4.27152
 10
0.66361
 20
4.27054
 10
0.67274
 20
4.27013
 10
0.68198
 20
4.27047
 10
0.68665
 20
4.271
 10
0.69137
 20
4.27184
 10
0.69616
 20
4.2731
 10
0.70104
 20
4.27496
 10
0.7061
 20
4.27792
 10
0.71218
 20
4.28695
 10
0.76524
 20
4.47699
 10
0.76472
 20
4.48786
 10
0.76192
 20
4.49301
 10
0.75871
 20
4.49714
 10
0.75527
 20
4.50069
 10
0.75167
 20
4.50385
 10
0.74794
 20
4.50673
 10
0.74021
 20
4.5118
 10
0.7322
 20
4.51619
 10
0.72395
 20
4.52003
 10
0.70689
 20
4.52642
 10
0.68923
 20
4.53137
 10
0.67117
 20
4.53536
 10
0.65584
 20
4.54583
 10
0.6411
 20
4.55764
 10
0.62685
 20
4.57052
 10
0.61306
 20
4.58436
 10
0.5997
 20
4.59905
 10
0.58678
 20
4.61454
 10
0.57428
 20
4.63078
 10
0.56221
 20
4.64775
 10
0.55057
 20
4.66539
 10
0.64421
 20
4.82373
 10
0.66528
 20
4.82203
 10
0.68596
 20
4.81962
 10
0.70621
 20
4.8165
 10
0.72602
 20
4.81263
 10
0.74533
 20
4.80801
 10
0.76409
 20
4.80258
 10
0.78225
 20
4.7963
 10
0.7997
 20
4.78907
 10
0.81626
 20
4.78069
 10
0.82845
 20
4.76678
 10
0.8413
 20
4.75369
 10
0.85511
 20
4.74182
 10
0.86246
 20
4.73645
 10
0.87016
 20
4.73153
 10
0.87833
 20
4.72721
 10
0.88264
 20
4.72533
 10
0.88715
 20
4.72369
 10
0.89192
 20
4.72239
 10
0.89709
 20
4.72156
 10
0.90295
 20
4.72159
 10
0.91272
 20
4.72637
 10
1.0537
 20
4.86443
 10
1.05868
 20
4.8741
 10
1.05884
 20
4.87996
 10
1.05812
 20
4.88514
 10
1.05691
 20
4.88993
 10
1.05537
 20
4.89448
 10
1.05359
 20
4.89883
 10
1.04943
 20
4.90708
 10
1.04468
 20
4.91489
 10
1.03946
 20
4.92235
 10
1.02788
 20
4.9364
 10
1.01506
 20
4.94952
 10
1.00142
 20
4.962
 10
0.99338
 20
4.97874
 10
0.98651
 20
4.99634
 10
0.98062
 20
5.01462
 10
0.97559
 20
5.0335
 10
0.97137
 20
5.0529
 10
0.96792
 20
5.07278
 10
0.96522
 20
5.09309
 10
0.96324
 20
5.11382
 10
0.96199
 20
5.13492
 10
1.12225
 20
5.22522
 10
1.13965
 20
5.21322
 10
1.15635
 20
5.20079
 10
1.17233
 20
5.18796
 10
1.18755
 20
5.17471
 10
1.20196
 20
5.16105
 10
1.2155
 20
5.14697
 10
1.22808
 20
5.13245
 10
1.23958
 20
5.11747
 10
1.24973
 20
5.10192
 10
1.25334
 20
5.08378
 10
1.25792
 20
5.06602
 10
1.26395
 20
5.04884
 10
1.26762
 20
5.04051
 10
1.27184
 20
5.0324
 10
1.27675
 20
5.02457
 10
1.27954
 20
5.02079
 10
1.28263
 20
5.01712
 10
1.28611
 20
5.0136
 10
1.29016
 20
5.01031
 10
1.29526
 20
5.0074
 10
1.30611
 20
5.00666
 10
1.49723
 20
5.05573
 10
1.50638
 20
5.06161
 10
1.50944
 20
5.06661
 10
1.51141
 20
5.07145
 10
1.51277
 20
5.07621
 10
1.51371
 20
5.08091
 10
1.51433
 20
5.08557
 10
1.51486
 20
5.0948
 10
1.51465
 20
5.10394
 10
1.51386
 20
5.11301
 10
1.51086
 20
5.13097
 10
1.50632
 20
5.14874
 10
1.50074
 20
5.16637
 10
1.50215
 20
5.18488
 10
1.505
 20
5.20355
 10
1.50904
 20
5.22234
 10
1.51412
 20
5.2412
 10
1.52016
 20
5.26011
 10
1.52712
 20
5.27905
 10
1.53494
 20
5.298
 10
1.54359
 20
5.31693
 10
1.55305
 20
5.33584
 10
1.73699
 20
5.33391
 10
1.74606
 20
5.31481
 10
1.75431
 20
5.2957
 10
1.76173
 20
5.27659
 10
1.76829
 20
5.25751
 10
1.77394
 20
5.23848
 10
1.77862
 20
5.21951
 10
1.78227
 20
5.20065
 10
1.78473
 20
5.18192
 10
1.78575
 20
5.16339
 10
1.7798
 20
5.14587
 10
1.77489
 20
5.1282
 10
1.77151
 20
5.11031
 10
1.77053
 20
5.10126
 10
1.77013
 20
5.09213
 10
1.77047
 20
5.08289
 10
1.77099
 20
5.07822
 10
1.77183
 20
5.0735
 10
1.77309
 20
5.06871
 10
1.77495
 20
5.06383
 10
1.77792
 20
5.05877
 10
1.78694
 20
5.05269
 10
1.97699
 20
4.99963
 10
1.98785
 20
5.00015
 10
1.99301
 20
5.00295
 10
1.99713
 20
5.00616
 10
2.00068
 20
5.0096
 10
2.00385
 20
5.0132
 10
2.00672
 20
5.01693
 10
2.0118
 20
5.02465
 10
2.01618
 20
5.03267
 10
2.02003
 20
5.04092
 10
2.02641
 20
5.05798
 10
2.03137
 20
5.07564
 10
2.03535
 20
5.0937
 10
2.04582
 20
5.10902
 10
2.05763
 20
5.12377
 10
2.07052
 20
5.13802
 10
2.08435
 20
5.15181
 10
2.09904
 20
5.16516
 10
2.11453
 20
5.17809
 10
2.13078
 20
5.19059
 10
2.14774
 20
5.20266
 10
2.16539
 20
5.2143
 10
2.32372
 20
5.12066
 10
2.32202
 20
5.09959
 10
2.31962
 20
5.07891
 10
2.31649
 20
5.05865
 10
2.31263
 20
5.03885
 10
2.308
 20
5.01954
 10
2.30258
 20
5.00078
 10
2.2963
 20
4.98262
 10
2.28907
 20
4.96517
 10
2.28068
 20
4.94861
 10
2.26677
 20
4.93642
 10
2.25369
 20
4.92357
 10
2.24182
 20
4.90976
 10
2.23644
 20
4.90241
 10
2.23153
 20
4.89471
 10
2.2272
 20
4.88653
 10
2.22532
 20
4.88222
 10
2.22369
 20
4.87772
 10
2.22238
 20
4.87294
 10
2.22155
 20
4.86778
 10
2.22159
 20
4.86192
 10
2.22637
 20
4.85215
 10
2.36442
 20
4.71117
 10
2.37409
 20
4.70619
 10
2.37995
 20
4.70603
 10
2.38513
 20
4.70675
 10
2.38993
 20
4.70796
 10
2.39447
 20
4.70949
 10
2.39882
 20
4.71128
 10
2.40708
 20
4.71544
 10
2.41489
 20
4.72019
 10
2.42234
 20
4.72541
 10
2.4364
 20
4.73699
 10
2.44952
 20
4.7498
 10
2.462
 20
4.76345
 10
2.47873
 20
4.77149
 10
2.49633
 20
4.77835
 10
2.51462
 20
4.78425
 10
2.53349
 20
4.78928
 10
2.55289
 20
4.7935
 10
2.57277
 20
4.79695
 10
2.59309
 20
4.79965
 10
2.61381
 20
4.80162
 10
2.63492
 20
4.80288
 10
2.72522
 20
4.64262
 10
2.71321
 20
4.62522
 10
2.70079
 20
4.60851
 10
2.68795
 20
4.59253
 10
2.6747
 20
4.57732
 10
2.66104
 20
4.56291
 10
2.64696
 20
4.54937
 10
2.63245
 20
4.53678
 10
2.61746
 20
4.52529
 10
2.60192
 20
4.51514
 10
2.58378
 20
4.51153
 10
2.56602
 20
4.50695
 10
2.54883
 20
4.50092
 10
2.54051
 20
4.49725
 10
2.5324
 20
4.49303
 10
2.52456
 20
4.48812
 10
2.52078
 20
4.48533
 10
2.51711
 20
4.48224
 10
2.5136
 20
4.47876
 10
2.5103
 20
4.4747
 10
2.5074
 20
4.46961
 10
2.50665
 20
4.45876
 10
2.55572
 20
4.26764
 10
2.5616
 20
4.25849
 10
2.5666
 20
4.25542
 10
2.57144
 20
4.25346
 10
2.5762
 20
4.2521
 10
2.5809
 20
4.25116
 10
2.58557
 20
4.25054
 10
2.5948
 20
4.25001
 10
2.60393
 20
4.25022
 10
2.613
 20
4.25101
 10
2.63096
 20
4.25401
 10
2.64873
 20
4.25855
 10
2.66637
 20
4.26413
 10
2.68488
 20
4.26272
 10
2.70355
 20
4.25987
 10
2.72233
 20
4.25583
 10
2.74119
 20
4.25075
 10
2.7601
 20
4.2447
 10
2.77904
 20
4.23775
 10
2.79799
 20
4.22993
 10
2.81693
 20
4.22128
 10
2.83583
 20
4.21181
 10
2.8339
 20
4.02787
 10
2.81481
 20
4.01881
 10
2.79569
 20
4.01055
 10
2.77659
 20
4.00313
 10
2.75751
 20
3.99658
 10
2.73847
 20
3.99093
 10
2.71951
 20
3.98624
 10
2.70065
 20
3.9826
 10
2.68192
 20
3.98014
 10
2.66338
 20
3.97912
 10
2.64587
 20
3.98507
 10
2.6282
 20
3.98998
 10
2.6103
 20
3.99335
 10
2.60125
 20
3.99434
 10
2.59212
 20
3.99474
 10
2.58288
 20
3.9944
 10
2.57821
 20
3.99387
 10
2.57349
 20
3.99303
 10
2.5687
 20
3.99178
 10
2.56382
 20
3.98991
 10
2.55876
 20
3.98695
 10
2.55269
 20
3.97793
 10
2.49962
 20
3.78788
 10
2.50014
 20
3.77702
 10
2.50294
 20
3.77186
 10
2.50615
 20
3.76774
 10
2.50959
 20
3.76418
 10
2.5132
 20
3.76102
 10
2.51692
 20
3.75815
 10
2.52465
 20
3.75307
 10
2.53267
 20
3.74869
 10
2.54092
 20
3.74484
 10
2.55797
 20
3.73846
 10
2.57563
 20
3.7335
 10
2.59369
 20
3.72952
 10
2.60902
 20
3.71904
 10
2.62376
 20
3.70724
 10
2.63801
 20
3.69435
 10
2.6518
 20
3.68052
 10
2.66516
 20
3.66583
 10
2.67808
 20
3.65034
 10
2.69058
 20
3.63409
 10
2.70266
 20
3.61713
 10
2.71429
 20
3.59948
 10
2.62066
 20
3.44115
 10
2.59958
 20
3.44284
 10
2.5789
 20
3.44525
 10
2.55865
 20
3.44838
 10
2.53884
 20
3.45224
 10
2.51954
 20
3.45687
 10
2.50077
 20
3.46229
 10
2.48261
 20
3.46857
 10
2.46516
 20
3.4758
 10
2.4486
 20
3.48419
 10
2.43641
 20
3.49809
 10
2.42356
 20
3.51118
 10
2.40975
 20
3.52305
 10
2.40241
 20
3.52843
 10
2.3947
 20
3.53334
 10
2.38653
 20
3.53767
 10
2.38222
 20
3.53955
 10
2.37771
 20
3.54118
 10
2.37294
 20
3.54249
 10
2.36778
 20
3.54331
 10
2.36191
 20
3.54328
 10
2.35214
 20
3.5385
 10
2.21117
 20
3.40045
 10
2.20618
 20
3.39078
 10
2.20603
 20
3.38491
 10
2.20674
 20
3.37974
 10
2.20795
 20
3.37494
 10
2.20949
 20
3.3704
 10
2.21128
 20
3.36605
 10
2.21543
 20
3.35779
 10
2.22018
 20
3.34998
 10
2.2254
 20
3.34253
 10
2.23698
 20
3.32847
 10
2.2498
 20
3.31535
 10
2.26345
 20
3.30287
 10
2.27148
 20
3.28613
 10
2.27835
 20
3.26854
 10
2.28424
 20
3.25025
 10
2.28927
 20
3.23138
 10
2.29349
 20
3.21198
 10
2.29694
 20
3.1921
 10
2.29964
 20
3.17178
 10
2.30162
 20
3.15105
 10
2.30287
 20
3.12995
 10
2.14261
 20
3.03965
 10
2.12521
 20
3.05166
 10
2.10851
 20
3.06408
 10
2.09253
 20
3.07692
 10
2.07731
 20
3.09016
 10
2.0629
 20
3.10382
 10
2.04936
 20
3.1179
 10
2.03678
 20
3.13242
 10
2.02528
 20
3.14741
 10
2.01513
 20
3.16295
 10
2.01153
 20
3.18109
 10
2.00694
 20
3.19885
 10
2.00092
 20
3.21603
 10
1.99725
 20
3.22436
 10
1.99303
 20
3.23247
 10
1.98811
 20
3.2403
 10
1.98532
 20
3.24409
 10
1.98223
 20
3.24775
 10
1.97875
 20
3.25127
 10
1.9747
 20
3.25457
 10
1.9696
 20
3.25747
 10
1.95875
 20
3.25822
 10
1.76763
 20
3.20915
 10
1.75848
 20
3.20326
 10
1.75542
 20
3.19827
 10
1.75345
 20
3.19342
 10
1.7521
 20
3.18867
 10
1.75116
 20
3.18396
 10
1.75053
 20
3.1793
 10
1.75
 20
3.17007
 10
1.75021
 20
3.16093
 10
1.751
 20
3.15187
 10
1.754
 20
3.13391
 10
1.75854
 20
3.11614
 10
1.76412
 20
3.0985
 10
1.76272
 20
3.07999
 10
1.75986
 20
3.06132
 10
1.75583
 20
3.04254
 10
1.75074
 20
3.02368
 10
1.7447
 20
3.00476
 10
1.73775
 20
2.98582
 10
1.72993
 20
2.96688
 10
1.72127
 20
2.94794
 10
1.71181
 20
2.92904
 10
1.52787
 20
2.93096
 10
1.5188
 20
2.95006
 10
1.51055
 20
2.96917
 10
1.50313
 20
2.98828
 10
1.49657
 20
3.00736
 10
1.49092
 20
3.0264
 10
1.48624
 20
3.04536
 10
1.4826
 20
3.06422
 10
1.48013
 20
3.08295
 10
1.47912
 20
3.10149
 10
1.48506
 20
3.119
 10
1.48997
 20
3.13667
 10
1.49335
 20
3.15457
 10
1.49433
 20
3.16361
 10
1.49473
 20
3.17275
 10
1.4944
 20
3.18198
 10
1.49387
 20
3.18666
 10
1.49303
 20
3.19138
 10
1.49177
 20
3.19616
 10
1.48991
 20
3.20105
 10
1.48695
 20
3.20611
 10
1.47792
 20
3.21218
 10
1.28788
 20
3.26524
 10
1.27701
 20
3.26472
 10
1.27186
 20
3.26193
 10
1.26773
 20
3.25872
 10
1.26418
 20
3.25527
 10
1.26101
 20
3.25167
 10
1.25814
 20
3.24795
 10
1.25307
 20
3.24022
 10
1.24868
 20
3.2322
 10
1.24483
 20
3.22395
 10
1.23845
 20
3.2069
 10
1.2335
 20
3.18924
 10
1.22951
 20
3.17118
 10
1.21904
 20
3.15585
 10
1.20723
 20
3.14111
 10
1.19434
 20
3.12686
 10
1.18051
 20
3.11307
 10
1.16582
 20
3.09971
 10
1.15033
 20
3.08678
 10
1.13408
 20
3.07428
 10
1.11712
 20
3.06221
 10
1.09947
 20
3.05057
 10
0.94114
 20
3.14421
 10
0.94284
 20
3.16528
 10
0.94525
 20
3.18596
 10
0.94837
 20
3.20622
 10
0.95224
 20
3.22602
 10
0.95686
 20
3.24533
 10
0.96229
 20
3.2641
 10
0.96856
 20
3.28225
 10
0.97579
 20
3.2997
 10
0.98418
 20
3.31627
 10
0.99809
 20
3.32846
 10
1.01118
 20
3.34131
 10
1.02305
 20
3.35512
 10
1.02842
 20
3.36246
 10
1.03334
 20
3.37017
 10
1.03766
 20
3.37834
 10
1.03954
 20
3.38265
 10
1.04117
 20
3.38716
 10
1.04248
 20
3.39193
 10
1.04331
 20
3.39709
 10
1.04327
 20
3.40296
 10
1.03849
 20
3.41273
 10
0.90044
 20
3.5537
 10
0.89077
 20
3.55869
 10
0.88491
 20
3.55884
 10
0.87973
 20
3.55812
 10
0.87493
 20
3.55692
 10
0.87039
 20
3.55538
 10
0.86604
 20
3.55359
 10
0.85778
 20
3.54944
 10
0.84997
 20
3.54469
 10
0.84252
 20
3.53946
 10
0.82847
 20
3.52789
 10
0.81534
 20
3.51507
 10
0.80286
 20
3.50142
 10
0.78613
 20
3.49338
 10
0.76853
 20
3.48652
 10
0.75025
 20
3.48062
 10
0.73137
 20
3.47559
 10
0.71197
 20
3.47137
 10
0.69209
 20
3.46793
 10
0.67177
 20
3.46522
 10
0.65105
 20
3.46325
 10
0.62994
 20
3.46199
 10
0.53964
 20
3.62225
 10
0.55165
 20
3.63965
 10
0.56407
 20
3.65636
 10
0.57691
 20
3.67234
 10
0.59016
 20
3.68756
 10
0.60382
 20
3.70197
 10
0.6179
 20
3.71551
 10
0.63241
 20
3.72809
 10
0.6474
 20
3.73959
 10
0.66294
 20
3.74974
 10
0.68109
 20
3.75334
 10
0.69884
 20
3.75793
 10
0.71603
 20
3.76395
 10
0.72436
 20
3.76762
 10
0.73246
 20
3.77184
 10
0.7403
 20
3.77675
 10
0.74408
 20
3.77955
 10
0.74775
 20
3.78263
 10
0.75127
 20
3.78611
 10
0.75456
 20
3.79017
 10
0.75746
 20
3.79527
 10
0.75821
 20
3.80612
 0
CIRCLE
 8
a
 10
1.63243
 20
4.13244
 40
0.5
 0
LINE
 8
c
 10
0.69935
 20
4.14221
 30
0
 11
0.42648
 21
4.14507
 31
 0
 0
LINE
 8
c
 10
0.82924
 20
4.60744
 30
0
 11
0.59436
 21
4.74635
 31
 0
 0
LINE
 8
c
 10
1.17435
 20
4.9454
 30
0
 11
1.04039
 21
5.18313
 31
 0
 0
LINE
 8
c
 10
1.6422
 20
5.06552
 30
0
 11
1.64506
 21
5.33839
 31
 0
 0
LINE
 8
c
 10
2.10744
 20
4.93563
 30
0
 11
2.24634
 21
5.1705
 31
 0
 0
LINE
 8
c
 10
2.44539
 20
4.59052
 30
0
 11
2.68313
 21
4.72447
 31
 0
 0
LINE
 8
c
 10
2.56552
 20
4.12267
 30
0
 11
2.83838
 21
4.11981
 31
 0
 0
LINE
 8
c
 10
2.43562
 20
3.65743
 30
0
 11
2.6705
 21
3.51853
 31
 0
 0
LINE
 8
c
 10
2.09051
 20
3.31948
 30
0
 11
2.22447
 21
3.08174
 31
 0
 0
LINE
 8
c
 10
1.62266
 20
3.19935
 30
0
 11
1.6198
 21
2.92649
 31
 0
 0
LINE
 8
c
 10
1.15743
 20
3.32925
 30
0
 11
1.01852
 21
3.09437
 31
 0
 0
LINE
 8
c
 10
0.81947
 20
3.67436
 30
0
 11
0.58173
 21
3.5404
 31
 0
 0
CIRCLE
 8
c
 10
1.63243
 20
4.13244
 40
1.07143
 0
LINE
 8
a
 10
1.23043
 20
4.13244
 30
0
 11
2.03444
 21
4.13244
 31
 0
 0
LINE
 8
a
 10
1.63243
 20
3.73043
 30
0
 11
1.63243
 21
4.53444
 31
 0
  0
ENDSEC
  0
EOF
